<svg width="61" height="72" fill="none" xmlns="http://www.w3.org/2000/svg"><path d="M23.588 2.613a1.514 1.514 0 00-.166.02 1.301 1.301 0 00-1.025.682c-.207.388-.203.847.008 1.231l2.216 4.444c-4.932 1.848-8.781 5.624-10.183 10.514l-.005.04-.005.04-.016.121-.01.08a1.346 1.346 0 00-.025.201l-.228 1.809c-.707-.544-1.536-.929-2.48-1.048-2.829-.356-5.436 1.668-5.793 4.496L3.932 40.674c-.357 2.828 1.667 5.436 4.495 5.792.945.12 1.843-.048 2.663-.4l-.415 3.296c-.267 2.115 1.257 4.078 3.372 4.344l1.286.162-.973 7.716c-.356 2.828 1.668 5.435 4.496 5.792 2.828.356 5.435-1.668 5.792-4.496l.972-7.716 5.144.649-.973 7.715c-.356 2.828 1.668 5.436 4.496 5.792 2.828.357 5.436-1.667 5.792-4.495l.972-7.716 1.286.162c2.115.267 4.078-1.257 4.344-3.371l.416-3.296c.707.544 1.536.929 2.48 1.048 2.828.356 5.436-1.668 5.792-4.496l1.945-15.431c.356-2.828-1.668-5.436-4.496-5.792-.944-.119-1.843.048-2.663.4l.223-1.769c.03-.119.045-.24.046-.362l.005-.04.005-.04c-.116-5.117-2.903-9.765-7.247-12.793l3.25-3.754a1.29 1.29 0 00.214-1.458 1.289 1.289 0 00-1.288-.719 1.296 1.296 0 00-.874.462l-3.576 4.08c-2.024-1.03-4.304-1.726-6.725-2.031-2.421-.305-4.803-.197-7.019.3l-2.451-4.841a1.303 1.303 0 00-1.13-.755zm10.276 7.868c2.416.304 4.622 1.062 6.504 2.167.038.02.076.04.115.055 3.801 2.27 6.314 5.94 6.953 9.939l-29.737-3.747c1.589-3.663 4.868-6.562 9.03-7.844a1.06 1.06 0 00.257-.09c2.108-.612 4.447-.787 6.878-.48zm-7.559 2.966a1.941 1.941 0 00-2.172 1.686 1.938 1.938 0 001.686 2.172 1.945 1.945 0 00.486-3.858zM40.45 15.23a1.945 1.945 0 10-.485 3.859 1.945 1.945 0 00.485-3.86zm-23.638 6.165l30.863 3.89-3.566 28.29a1.28 1.28 0 01-1.448 1.124l-10.046-1.266a1.318 1.318 0 00-.522-.066l-14.91-1.878a1.317 1.317 0 00-.522-.066l-2.29-.289a1.28 1.28 0 01-1.124-1.448l3.565-28.29zm-5.468 1.924a2.572 2.572 0 012.248 2.896l-1.945 15.431a2.571 2.571 0 01-2.896 2.248 2.572 2.572 0 01-2.247-2.896l1.944-15.431a2.572 2.572 0 012.896-2.248zm41.15 5.186a2.571 2.571 0 012.248 2.896l-1.945 15.431a2.572 2.572 0 01-2.896 2.248 2.572 2.572 0 01-2.248-2.896l1.945-15.431a2.572 2.572 0 012.896-2.248zm-34.59 25.687l5.144.648-.972 7.716a2.572 2.572 0 01-2.896 2.248 2.572 2.572 0 01-2.248-2.896l.973-7.716zm15.432 1.945l5.143.648-.972 7.716a2.571 2.571 0 01-2.896 2.247 2.571 2.571 0 01-2.248-2.896l.973-7.715z" fill="#fff"/></svg>