<svg width="123" height="126" fill="none" xmlns="http://www.w3.org/2000/svg"><path d="M75.768 13.837a2.218 2.218 0 00-.796-.103l-49.13 2.664a2.22 2.22 0 00-2.072 1.867l-9.63 59.89a2.22 2.22 0 00.633 1.933l31.741 31.315a2.22 2.22 0 002.047.585l43.818-9.828a2.213 2.213 0 001.556-1.298l23.736-55.817a2.222 2.222 0 00-.772-2.691L76.361 14.13a2.218 2.218 0 00-.593-.293zm-1.316 4.377l38.427 26.753-22.586 53.112-41.52 9.313L18.706 77.73l9.16-56.993 46.585-2.523zm-.986 4.201a2.22 2.22 0 00-2.364.654L26.15 74.8a2.22 2.22 0 001.059 3.59l9.465 2.73a2.22 2.22 0 002.29-.676l8.691-10.002 21.94 6.326 2.03 13.095a2.22 2.22 0 001.578 1.79l9.466 2.73a2.22 2.22 0 002.808-2.475L74.969 24.184a2.22 2.22 0 00-1.503-1.769zm-2.15 7.173l9.24 59.564-4.761-1.373-2.032-13.094a2.22 2.22 0 00-1.577-1.791l-24.664-7.112a2.22 2.22 0 00-2.289.675L36.537 76.46l-4.758-1.372 39.537-45.499zm-3.685 13.094a2.22 2.22 0 00-2.379.658l-13.61 15.742a2.22 2.22 0 001.066 3.583l16.748 4.83a2.22 2.22 0 002.81-2.466l-3.14-20.571a2.22 2.22 0 00-1.495-1.776zm-2.167 7.2l1.89 12.386L57.27 59.36l8.193-9.478z" fill="#fff"/></svg>