<svg width="65" height="68" fill="none" xmlns="http://www.w3.org/2000/svg"><path d="M7.374 12.6a5.427 5.427 0 00-1.201 2.498L.99 44.022a5.399 5.399 0 001.833 5.038l20.37 17.188a5.37 5.37 0 005.275.959l7.253-2.623c3.303-1.446 4.045-2.33 4.99-3.448 3.096-3.67 2.65-7.64-1.197-10.886l-21.02-17.734a.745.745 0 00-1.05.085l-2.07 2.453a.734.734 0 00.09 1.053l21 17.718c1.727 1.458 1.91 4.666-1.958 6.342l-7.587 2.74a.778.778 0 01-.795-.132L5.772 45.603a.825.825 0 01-.287-.78l5.187-28.922a.745.745 0 01.515-.609l27.635-9.98a.816.816 0 01.798.134l20.372 17.188a.81.81 0 01.28.741l-5.18 28.96a.874.874 0 01-.515.61l-7.187 2.507c-.214.054-.396.231-.433.435-.39 2.056-.508 2.393-1.15 4.07-.167.396-.385 1.052.992.535l9.328-3.247a5.487 5.487 0 002.272-1.58 5.488 5.488 0 001.189-2.522L64.77 24.18a5.37 5.37 0 00-1.833-5.037L42.586 1.97a5.37 5.37 0 00-5.274-.959L9.634 10.996a5.427 5.427 0 00-2.26 1.604zm20.129 8.025c-4.687 5.555-5.131 10.857-1.206 14.17 4.26 3.593 8.215 1.29 13.25-3.601 6.01-5.85 7.368-5.543 8.624-4.483 2.16 1.822 1.611 4.345-1.85 8.447-4.355 5.162-6.614 5.206-9.48 3.426a.719.719 0 00-.934.15L33.77 41.27a.719.719 0 00.09 1.014c3.277 2.765 8.687 4.272 15.874-4.247 5.2-6.163 5.749-11.745 1.51-15.322-4.2-3.544-7.723-1.644-13.562 3.644-5.903 5.403-6.829 5.664-8.242 4.472-1.178-.994-2.277-2.831 1.498-7.306 3.362-3.985 5.48-4.75 8.683-3.09a.741.741 0 00.915-.166l2.138-2.534c.133-.157.169-.358.15-.575a.693.693 0 00-.316-.503c-4.963-3.516-9.738-2.272-15.004 3.97z" fill="#fff"/></svg>