<svg width="67" height="68" fill="none" xmlns="http://www.w3.org/2000/svg"><mask id="a" fill="#fff"><path d="M13.63.51a1.333 1.333 0 00-1.594 1.007L6.46 26.23.294 53.542a.551.551 0 00-.013.083 1.34 1.34 0 00-.015.314 1.326 1.326 0 00.021.152 1.331 1.331 0 00.053.19 1.3 1.3 0 00.018.053 1.325 1.325 0 00.058.122 1.34 1.34 0 00.217.303 1.229 1.229 0 00.026.027 1.331 1.331 0 00.324.233 1.31 1.31 0 00.318.117l.038.01 51.987 11.733a1.333 1.333 0 001.42-2.012L35.317 34.11l30.757-19.43a1.333 1.333 0 00-.418-2.427L38.342 6.088 13.632.51zm.714 2.895l20.272 4.576L9.769 23.677l4.575-20.272zm23.95 5.406l23.635 5.335-29.163 18.422L3.604 50.99l5.334-23.635L38.294 8.81zm-5.23 26.723l17.71 28.035L5.027 53.244l28.035-17.71z"/></mask><path d="M13.63.51a1.333 1.333 0 00-1.594 1.007L6.46 26.23.294 53.542a.551.551 0 00-.013.083 1.34 1.34 0 00-.015.314 1.326 1.326 0 00.021.152 1.331 1.331 0 00.053.19 1.3 1.3 0 00.018.053 1.325 1.325 0 00.058.122 1.34 1.34 0 00.217.303 1.229 1.229 0 00.026.027 1.331 1.331 0 00.324.233 1.31 1.31 0 00.318.117l.038.01 51.987 11.733a1.333 1.333 0 001.42-2.012L35.317 34.11l30.757-19.43a1.333 1.333 0 00-.418-2.427L38.342 6.088 13.632.51zm.714 2.895l20.272 4.576L9.769 23.677l4.575-20.272zm23.95 5.406l23.635 5.335-29.163 18.422L3.604 50.99l5.334-23.635L38.294 8.81zm-5.23 26.723l17.71 28.035L5.027 53.244l28.035-17.71z" fill="#fff"/><path d="M13.63.51l47.496-210.425-.01-.002-.01-.002L13.63.511zm-1.594 1.007l-210.42-47.516-.002.01-.002.01L12.036 1.518zM.294 53.542l210.285 48.112.07-.308.07-.308L.294 53.542zm-.002.008L-210.27 6.67l-.88 3.953-.731 3.983L.292 53.55zm-.011.075L213.01 89.409l.75-4.458.563-4.485L.281 53.625zm-.01.064l-214.227-25.325-.695 5.88-.371 5.91L.271 53.688zm0 .016l214.258 25.06.821-7.022.359-7.06L.27 53.705zm-.01.121l-215.647-5.506-.048 1.863-.015 1.864 215.71 1.78zm.005.113l-215.087 16.5.174 2.265.221 2.259L.266 53.939zm.008.069l213.983-27.313-.308-2.414-.363-2.405L.274 54.007zm.013.083l-211.833 40.755.278 1.447.298 1.444L.287 54.09zm.032.122l207.38-59.397-.569-1.986-.607-1.974L.319 54.213zm.021.069l205.701-64.977-.886-2.803-.961-2.778L.34 54.282zm.018.052l-202.849 73.393 2 5.529 2.299 5.412L.358 54.334zm.036.077l195.721-90.708-1.44-3.106-1.538-3.06L.394 54.411zm.022.045l-192.181 97.985.788 1.545.812 1.531L.415 54.457zm.04.07l188.507-104.88-2.134-3.834-2.288-3.746L.456 54.526zm.025.044l-184.463 111.839 3.016 4.974 3.279 4.804L.481 54.57zm.07.093L183.4-59.794l-7.276-11.623-8.689-10.608L.551 54.663zm.006.01L-181.34 170.64l6.523 10.231 7.628 9.434L.557 54.672zm.076.086l162.16-142.263-3.313-3.776-3.485-3.618L.633 54.759zm.015.017l-159.747 144.967 4.77 5.256 5.106 4.931L.648 54.776zm.011.01L150.715-100.19l-.975-.943-.986-.931L.659 54.786zm.085.075L138.469-111.17l-.667-.553-.671-.547L.744 54.861zm.107.08l120.928-178.635-.284-.193-.285-.192L.851 54.941zm.072.046L-108.286 241.02l1.89 1.11 1.913 1.071L.923 54.987zm.053.028l112.166-184.264-7.451-4.535-7.793-3.92L.976 55.016zm.007.004l-111.026 184.954 6.068 3.642 6.294 3.237L.983 55.019zm.101.047l-82.239 199.428 1.025.422 1.03.412L1.084 55.066zm.077.028L76.39-147.082l-3.683-1.37-3.73-1.235L1.161 55.094zm.07.024l-64.002 206.006 7.158 2.224 7.295 1.721L1.23 55.118zm.025.006l62.737-206.395-8.556-2.6-8.743-1.884L1.256 55.124zm.045.012l-55.433 208.475 2.423.644 2.437.588L1.301 55.136zm.038.01L48.835-155.28l-1.541-.348-1.546-.325L1.339 55.145zm51.987 11.733L5.83 277.304l.041.01.042.009L53.326 66.879zm1.42-2.012L237.165-50.278l-.02-.032-.02-.032L54.747 64.867zM35.317 34.11L-79.89-148.267-262.268-33.059l115.208 182.377L35.317 34.11zm30.757-19.43l115.208 182.378.032-.02.032-.02L66.074 14.681zm-.418-2.427l47.578-210.406-.041-.01-.042-.009L65.656 12.253zM14.344 3.405L61.84-207.02l-210.425-47.495-47.496 210.424L14.344 3.406zm20.272 4.576l115.208 182.377L590.122-87.78 82.112-202.444 34.615 7.981zM9.769 23.677L-200.656-23.82l-114.665 508.011 440.298-278.138L9.769 23.677zM38.294 8.81L85.79-201.614l-87.161-19.673-75.544 47.721L38.294 8.811zm23.635 5.335l115.208 182.377L617.435-81.615 109.424-196.279 61.929 14.146zM32.766 32.568L-82.442-149.81 32.766 32.568zM3.604 50.99L-206.821 3.494l-114.665 508.011 440.298-278.138L3.604 50.99zm5.334-23.635L-106.27-155.022l-75.543 47.72-19.674 87.161L8.938 27.355zm24.125 8.179L215.441-79.674 100.232-262.052-82.145-146.843 33.063 35.534zm17.71 28.035L3.277 273.994l508.011 114.665L233.151-51.639 50.773 63.569zM5.028 53.244l-115.209-182.377-440.298 278.137 508.011 114.665L5.028 53.244zm56.077-263.163a217.047 217.047 0 00-163.688 28.225l230.416 364.755A214.379 214.379 0 01-33.844 210.94l94.95-420.859zm-163.688 28.225a217.056 217.056 0 00-95.801 135.695l420.841 95.033a214.383 214.383 0 01-94.624 134.027l-230.416-364.755zm-95.805 135.716l-5.578 24.712 420.85 94.99 5.577-24.71-420.849-94.992zm-5.578 24.712l-6.165 27.313 420.85 94.991 6.165-27.313-420.85-94.991zm-6.025 26.696c-.095.414-.188.827-.28 1.24l421.126 93.759c-.091.409-.183.817-.276 1.225L-209.991 5.43zm-1.891 9.176a216.739 216.739 0 00-1.88 12.178l428.085 53.682a214.233 214.233 0 01-1.857 12.028l-424.348-77.888zm-.567 3.235a217.923 217.923 0 00-1.507 10.523l428.454 50.65a213.854 213.854 0 01-1.488 10.395L-212.449 17.84zm-2.573 22.312c-.054.86-.103 1.719-.147 2.575l430.878 21.955c-.043.845-.091 1.693-.144 2.542l-430.587-27.072zm1.034-11.507a216.774 216.774 0 00-1.398 19.674L215.91 59.332a214.71 214.71 0 01-1.381 19.432l-428.517-50.118zm-1.461 23.4c-.051 6.138.159 12.274.628 18.394l430.173-33.002c.464 6.045.671 12.106.621 18.167l-431.422-3.558zm1.023 22.917a217.45 217.45 0 001.388 11.177l426.624-64.264a213.31 213.31 0 011.371 11.04l-429.383 42.047zm.718 6.358c.578 4.53 1.299 9.04 2.162 13.525l423.667-81.51a215.018 215.018 0 012.136 13.359L-213.708 81.32zm2.738 16.416a217.168 217.168 0 005.084 19.833L206.523-9.144a214.247 214.247 0 015.022 19.59l-422.515 87.29zm3.909 15.873a217.56 217.56 0 003.548 11.23L204.194-16.276a215.213 215.213 0 013.505 11.092l-414.76 118.794zm1.701 5.648a217.259 217.259 0 002.869 8.469L203.208-19.06a215.85 215.85 0 012.833 8.365L-205.36 119.258zm7.168 19.41a216.135 216.135 0 005.843 12.617L193.137-42.463A214.133 214.133 0 01198.908-30l-397.1 168.669zm2.865 6.451a217.769 217.769 0 003.562 7.322l384.362-195.97a215.575 215.575 0 013.518 7.232L-195.327 145.12zm5.162 10.398c2.06 3.885 4.24 7.71 6.536 11.47l368.17-224.92a214.907 214.907 0 016.456 11.328l-381.162 202.122zm2.115 3.89a217.253 217.253 0 004.068 7.002L184.944-57.269a216.014 216.014 0 014.019 6.916l-377.013 209.76zm10.363 16.78a217.094 217.094 0 0011.352 15.164L167.436-82.025a214.513 214.513 0 0111.213 14.978l-356.336 243.234zm-4.612-7.068c.312.499.632 1.006.96 1.521L182.452-61.295c.325.508.641 1.009.949 1.501l-365.7 228.913zm15.111 21.186a217.144 217.144 0 0012.459 14.111L155.995-94.898a214.342 214.342 0 0112.306 13.937l-335.489 271.266zm5.662 6.717c.807.92 1.617 1.827 2.427 2.721L160.395-90.192c.801.883 1.6 1.779 2.398 2.688l-324.319 284.526zm12.303 12.908c.584.565 1.18 1.134 1.787 1.707l296.19-313.702c.6.566 1.189 1.129 1.766 1.686L-149.223 209.93zm-.173-.167c4.41 4.27 8.998 8.35 13.752 12.23L137.131-112.27a213.911 213.911 0 0113.584 12.079l-300.111 309.954zm12.414 11.129a216.969 216.969 0 0017.474 13.07L121.21-124.079a214.592 214.592 0 0117.259 12.909l-275.451 332.062zm16.904 12.685a217.244 217.244 0 0011.792 7.442l218.419-372.063a213.493 213.493 0 0111.646 7.35l-241.857 357.271zm15.595 9.623a216.583 216.583 0 008.536 4.534L97.898-137.704a213.322 213.322 0 018.432 4.479L-104.483 243.2zm-6.707-3.921c.374.228.756.459 1.147.694l222.052-369.907c.386.232.764.46 1.133.685L-111.19 239.279zm13.509 7.573a216.993 216.993 0 0016.526 7.642L83.324-144.361a214.84 214.84 0 0116.323 7.547L-97.681 246.852zm18.58 8.476a216.785 216.785 0 0012.445 4.548L68.977-149.687a214.038 214.038 0 0112.292 4.491L-79.1 255.328zm5.033 1.942a217.293 217.293 0 0011.297 3.854L65.232-150.888a215.058 215.058 0 0111.159 3.806L-74.068 257.27zm25.75 7.799c1.375.325 2.754.636 4.135.933l90.877-421.757c1.365.294 2.726.601 4.084.922l-99.096 419.902zm-13.163-3.551c2.436.74 4.886 1.438 7.349 2.093L56.734-153.338c2.433.647 4.853 1.336 7.259 2.067L-61.481 261.518zm12.21 3.325c2.06.497 4.127.964 6.202 1.4l88.817-422.196c2.048.431 4.09.892 6.126 1.383L-49.273 264.843zm3.114.727L5.83 277.304l94.991-420.85-51.986-11.734-94.992 420.85zm52.07 11.753a217.056 217.056 0 00125.641-9.167L-23.359-134.51a214.38 214.38 0 01124.098-9.054L5.913 277.323zm125.641-9.167a217.06 217.06 0 0099.389-77.406L-121.526-58.055a214.383 214.383 0 0198.167-76.455l154.913 402.666zm99.389-77.406a217.065 217.065 0 0039.656-119.57l-431.294-11.134a214.386 214.386 0 0139.169-118.101L230.943 190.75zm39.656-119.57a217.057 217.057 0 00-33.435-121.458L-127.671 180.01a214.378 214.378 0 01-33.024-119.965L270.599 71.18zM237.124-50.343L217.695-81.1-147.06 149.317l19.429 30.757L237.124-50.342zm-86.598 266.829l30.756-19.429-230.416-364.755-30.757 19.43 230.417 364.754zm30.82-19.469a217.042 217.042 0 0082.364-95.32L-130.55-73.508a214.38 214.38 0 0181.352-94.148l230.544 364.674zm82.364-95.32a217.053 217.053 0 0015.55-125.012l-425.168 73.282A214.388 214.388 0 01-130.55-73.508l394.26 175.206zm15.55-125.012a217.057 217.057 0 00-56.504-112.593L-90.099 161.178a214.385 214.385 0 01-55.809-111.21L279.26-23.314zm-56.504-112.593a217.051 217.051 0 00-109.522-62.246L18.077 222.659a214.386 214.386 0 01-108.176-61.481l312.855-297.085zm-109.605-62.265l-27.313-6.165-94.991 420.85 27.313 6.165 94.991-420.85zm-27.313-6.165l-24.712-5.578-94.991 420.85 24.712 5.578 94.991-420.85zM-33.152 213.83l20.272 4.576 94.991-420.85-20.271-4.576-94.992 420.85zm-47.44-388.227l-24.848 15.696 230.417 364.755 24.847-15.696-230.417-364.755zm300.786 245.57l4.575-20.272-420.85-94.992-4.575 20.272 420.85 94.991zM-9.202 219.235l23.635 5.335 94.991-420.85-23.634-5.335-94.992 420.85zM-53.28-168.232l-29.162 18.422 230.417 364.755 29.162-18.422L-53.28-168.232zm-29.162 18.422l-29.163 18.422 230.417 364.755 29.163-18.422L-82.442-149.81zM214.029 98.485l5.334-23.634-420.85-94.992-5.334 23.635 420.85 94.991zm-89.882 111.247l29.355-18.544-230.417-364.754-29.355 18.544 230.417 364.754zm-273.461-58.99l17.71 28.036L233.151-51.639l-17.71-28.035-364.755 230.416zM98.269-146.856l-45.746-10.325-94.99 420.85 45.744 10.325 94.992-420.85zm21.967 382.477l28.036-17.71-230.417-364.754-28.036 17.71 230.417 364.754z" fill="#fff" mask="url(#a)"/></svg>