<svg width="129" height="135" fill="none" xmlns="http://www.w3.org/2000/svg"><path d="M79.914 24.622c12.377 4.597 23.065 11.419 29.898 16.239 2.752 1.877 3.841 5.135 3.136 8.582-1.264 4.95-2.873 10.058-4.735 15.072-14.524 39.11-49.437 44.116-59.674 44.594-7.352-7.295-30.534-33.876-16.103-72.735 1.862-5.014 3.977-9.934 6.251-14.51 1.463-3.165 4.667-4.828 7.978-4.454 8.322.808 20.872 2.616 33.25 7.212zm2.793-7.52c-13.134-4.878-26.442-6.968-35.363-7.713-6.368-.653-12.87 2.923-15.61 8.752-2.088 4.074-4.641 9.402-6.876 15.419-19.086 51.394 20.608 83.822 20.608 83.822s51.238 1.341 70.325-50.053c2.327-6.267 3.777-11.72 4.855-16.169 1.569-6.549-.863-13.157-6.366-16.913-6.992-5.164-18.438-12.268-31.573-17.145z" fill="#fff"/></svg>