<svg width="155" height="155" fill="none" xmlns="http://www.w3.org/2000/svg"><g filter="url(#filter0_d)"><path d="M53.528 61.424l-10.667 8.17c-.4.304-.601.79-.53 1.27l1.923 12.875c.072.48.406.884.878 1.06l12.59 4.702c.47.174 1.008.094 1.406-.21l10.666-8.174c.395-.306.597-.79.525-1.27l-1.922-12.874a1.352 1.352 0 00-.878-1.061l-12.586-4.698a1.47 1.47 0 00-.73-.075 1.464 1.464 0 00-.677.286h.002zm61.555 2.657l-1.778 1.36a.222.222 0 00-.088.212l.321 2.147c.012.08.068.147.145.177l2.099.784c.079.03.167.016.234-.035l1.778-1.363a.227.227 0 00.087-.212l-.32-2.147a.224.224 0 00-.148-.176l-2.098-.782a.228.228 0 00-.121-.013.225.225 0 00-.111.048zm-19.64-22.865l-6.132-2.314a.583.583 0 00-.78.63l2.846 19.08-5.652-2.108a1.47 1.47 0 00-.73-.075 1.469 1.469 0 00-.677.285h.002l-10.667 8.169c-.4.304-.601.79-.53 1.268l1.923 12.874c.071.481.405.884.877 1.06l12.591 4.703a1.48 1.48 0 001.406-.21l10.666-8.175c.395-.303.597-.789.525-1.27l-4.928-33a1.167 1.167 0 00-.74-.917zM93.24 73.263l-4.847 3.716a.67.67 0 01-.638.095l-5.723-2.137a.612.612 0 01-.402-.483l-.874-5.852a.617.617 0 01.24-.579l4.85-3.713h-.002a.667.667 0 01.308-.128.695.695 0 01.332.032l5.721 2.136a.62.62 0 01.4.485l.873 5.853a.615.615 0 01-.238.575z" fill="#fff"/><path d="M53.528 61.424L44.254 83.74c.072.48.406.884.878 1.06l12.59 4.702c.47.174 1.008.094 1.406-.21l9.269-22.318a1.352 1.352 0 00-.878-1.061l-12.586-4.698a1.47 1.47 0 00-.73-.075 1.464 1.464 0 00-.677.286" fill="#fff"/><path d="M53.528 61.424l-10.667 8.17c-.4.304-.601.79-.53 1.27l15.39 18.637a1.48 1.48 0 001.405-.21l10.666-8.174c.397-.306.599-.79.527-1.27L54.933 61.214a1.47 1.47 0 00-.73-.075 1.464 1.464 0 00-.677.286" fill="#1B1816"/><path d="M126.745 56.954l-12.585-4.697a1.47 1.47 0 00-.731-.075 1.468 1.468 0 00-.677.285h.003l-10.667 8.17c-.398.303-.6.799-.526 1.296l1.914 12.822c.074.495.413.912.882 1.087l12.591 4.701a1.47 1.47 0 001.406-.21l4.918-3.77a.719.719 0 00-.19-1.245l-12.619-4.625a.63.63 0 01-.4-.492l-.873-5.844a.606.606 0 01.23-.57l4.859-3.719h-.003a.673.673 0 01.308-.128.696.696 0 01.332.033l5.734 2.14c.205.076.353.26.386.478l.712 4.768a.578.578 0 00.934.364l5.189-4.15c.32-.255.482-.665.421-1.072l-.665-4.455a1.38 1.38 0 00-.883-1.092zM39.072 70.046l-12.586-4.698a1.47 1.47 0 00-.73-.075 1.47 1.47 0 00-.678.285h.003l-10.667 8.17c-.398.304-.6.799-.526 1.297l2.641 17.688a.578.578 0 00.934.365l5.19-4.15c.32-.256.48-.665.418-1.072l-1.554-10.41a.605.605 0 01.23-.57l4.858-3.719a.669.669 0 01.308-.128.696.696 0 01.332.033l5.734 2.14c.205.076.354.26.386.478l1.554 10.41c.061.407.333.751.717.902l6.175 2.453a.59.59 0 00.574-.084c.16-.13.24-.336.21-.54l-2.641-17.686a1.379 1.379 0 00-.882-1.09z" fill="#fff"/></g><defs><filter id="filter0_d" x="0" y=".217" width="154.722" height="154.722" filterUnits="userSpaceOnUse" color-interpolation-filters="sRGB"><feFlood flood-opacity="0" result="BackgroundImageFix"/><feColorMatrix in="SourceAlpha" values="0 0 0 0 0 0 0 0 0 0 0 0 0 0 0 0 0 0 127 0"/><feOffset dx="6" dy="7"/><feGaussianBlur stdDeviation="6"/><feColorMatrix values="0 0 0 0 0.770833 0 0 0 0 0.770833 0 0 0 0 0.770833 0 0 0 0.2 0"/><feBlend in2="BackgroundImageFix" result="effect1_dropShadow"/><feBlend in="SourceGraphic" in2="effect1_dropShadow" result="shape"/></filter></defs></svg>