<svg width="22" height="22" fill="none" xmlns="http://www.w3.org/2000/svg"><path fill-rule="evenodd" clip-rule="evenodd" d="M6.942 4.352a.248.248 0 00-.031.008c-1.076.336-1.802.914-2.197 1.655-.394.74-.452 1.623-.275 2.542.353 1.838 1.638 3.872 3.267 5.564 1.63 1.692 3.604 3.038 5.425 3.421.91.192 1.788.138 2.543-.263.756-.402 1.367-1.148 1.756-2.263a.26.26 0 00-.102-.296l-3.606-2.294a.249.249 0 00-.024-.016l-.016-.016h-.008a.233.233 0 00-.015-.008h-.008a.256.256 0 00-.04-.024h-.007a.41.41 0 00-.016 0h-.008a.25.25 0 00-.047-.008.25.25 0 00-.047.008.25.25 0 00-.119.056.235.235 0 00-.007.016.26.26 0 00-.04.048l-.929.936c-1.613-.771-2.81-2.123-3.874-3.95l.859-.871.039-.04a.253.253 0 00.016-.016h.007a.26.26 0 00.008-.016.245.245 0 00.008-.008.251.251 0 00.008-.015v-.008a.28.28 0 00.008-.008.26.26 0 00.008-.016.267.267 0 00.008-.008.262.262 0 000-.032.245.245 0 00.008-.008.262.262 0 000-.024.261.261 0 000-.023.262.262 0 000-.024.262.262 0 000-.024.259.259 0 00-.008-.016v-.008a.26.26 0 00-.008-.016V8.28a.25.25 0 00-.016-.016v-.008a.255.255 0 00-.008-.008.256.256 0 00-.04-.056L7.203 4.475a.254.254 0 00-.204-.12.249.249 0 00-.056 0v-.003zm-.063.56l2.04 3.43-.898.902a.257.257 0 00-.04.312c1.152 2.024 2.493 3.568 4.363 4.405a.248.248 0 00.275-.056l.953-.967 3.315 2.102c-.355.912-.852 1.478-1.441 1.791-.63.335-1.383.39-2.213.216-1.659-.35-3.594-1.646-5.172-3.286-1.58-1.64-2.804-3.623-3.126-5.3-.161-.838-.097-1.588.228-2.198.304-.571.844-1.042 1.716-1.351z" fill="#fff"/><path fill-rule="evenodd" clip-rule="evenodd" d="M10.896 0C4.916 0 .062 4.927.062 11c0 2.248.667 4.343 1.843 6.136L.631 21.45a.26.26 0 00.067.258.25.25 0 00.257.057l4.163-1.459A10.66 10.66 0 0010.896 22c5.981 0 10.834-4.927 10.834-11S16.877 0 10.896 0zm0 .512c5.709 0 10.33 4.691 10.33 10.488s-4.621 10.488-10.33 10.488a10.16 10.16 0 01-5.608-1.677.251.251 0 00-.22-.028L1.256 21.12l1.167-3.953a.26.26 0 00-.033-.218A10.592 10.592 0 01.565 11C.565 5.203 5.19.512 10.895.512z" fill="#fff"/></svg>