<svg width="199" height="80" fill="none" xmlns="http://www.w3.org/2000/svg"><g filter="url(#filter0_d)"><path d="M10 23.61c0-4.849 0-7.273.792-9.186a10.406 10.406 0 015.632-5.632C18.337 8 20.761 8 25.61 8h147.183c4.849 0 7.273 0 9.186.792a10.406 10.406 0 015.632 5.632c.792 1.913.792 4.337.792 9.186v28.247c0 4.85 0 7.274-.792 9.186a10.406 10.406 0 01-5.632 5.633c-1.913.792-4.337.792-9.186.792H25.61c-4.849 0-7.273 0-9.186-.793a10.407 10.407 0 01-5.632-5.632C10 59.131 10 56.706 10 51.857V23.61z" fill="#fff"/><path d="M131.204 36.546v3.406h-2.135v2.234h2.135v7.59c0 2.59 1.172 3.627 4.121 3.627a8.56 8.56 0 001.444-.135v-2.21c-.37.038-.604.062-1.012.062-1.32 0-1.9-.617-1.9-2.023v-6.911h2.912v-2.234h-2.912v-3.406h-2.653zm13.079 17.043c3.924 0 6.331-2.63 6.331-6.985 0-4.332-2.419-6.973-6.331-6.973-3.925 0-6.343 2.641-6.343 6.973 0 4.356 2.406 6.985 6.343 6.985zm0-2.358c-2.308 0-3.604-1.69-3.604-4.627 0-2.913 1.296-4.616 3.604-4.616 2.295 0 3.603 1.703 3.603 4.616 0 2.924-1.308 4.627-3.603 4.627zm8.389 2.099h2.654v-7.936c0-1.888 1.419-3.159 3.43-3.159.469 0 1.259.086 1.481.16V39.78c-.284-.074-.789-.11-1.184-.11-1.753 0-3.246.962-3.629 2.282h-.197v-2.06h-2.555V53.33zm14.153-11.44c1.962 0 3.246 1.37 3.308 3.48h-6.788c.148-2.098 1.518-3.48 3.48-3.48zm3.295 7.811c-.493 1.05-1.592 1.63-3.196 1.63-2.123 0-3.492-1.494-3.579-3.851v-.148h9.49v-.926c0-4.22-2.258-6.775-5.997-6.775-3.789 0-6.195 2.727-6.195 7.022s2.357 6.936 6.207 6.936c3.073 0 5.22-1.481 5.825-3.888h-2.555zm-56.316-1.334c.205 3.3 2.955 5.41 7.048 5.41 4.374 0 7.111-2.213 7.111-5.743 0-2.776-1.56-4.31-5.346-5.193l-2.034-.499c-2.405-.563-3.377-1.317-3.377-2.635 0-1.663 1.51-2.75 3.774-2.75 2.148 0 3.632 1.062 3.901 2.763h2.788c-.166-3.108-2.903-5.295-6.651-5.295-4.029 0-6.715 2.187-6.715 5.474 0 2.712 1.522 4.323 4.86 5.103l2.379.576c2.443.576 3.518 1.42 3.518 2.827 0 1.637-1.689 2.827-3.991 2.827-2.469 0-4.182-1.113-4.425-2.865h-2.84zm-27.485-8.699c-1.826 0-3.406.913-4.22 2.444H81.9V39.89h-2.554v17.907H82v-6.504h.21c.703 1.42 2.22 2.258 4.134 2.258 3.393 0 5.553-2.678 5.553-6.947 0-4.27-2.16-6.936-5.578-6.936zm-.753 11.502c-2.221 0-3.616-1.753-3.616-4.554 0-2.814 1.395-4.566 3.629-4.566 2.246 0 3.59 1.715 3.59 4.554 0 2.85-1.344 4.566-3.603 4.566zm15.615-11.502c-1.826 0-3.406.913-4.22 2.444h-.198V39.89H94.21v17.907h2.653v-6.504h.21c.703 1.42 2.221 2.258 4.134 2.258 3.394 0 5.553-2.678 5.553-6.947 0-4.27-2.159-6.936-5.578-6.936zm-.753 11.502c-2.221 0-3.615-1.753-3.615-4.554 0-2.814 1.394-4.566 3.628-4.566 2.246 0 3.591 1.715 3.591 4.554 0 2.85-1.345 4.566-3.604 4.566zm-25.842 2.16h3.044l-6.664-18.458h-3.082L61.22 53.33h2.942l1.7-4.898h7.036l1.688 4.898zm-5.308-15.107h.217l2.674 7.803h-5.577l2.686-7.803zM63.003 20.95v8.904h3.215c2.653 0 4.19-1.635 4.19-4.48 0-2.8-1.55-4.424-4.19-4.424h-3.215zm1.382 1.26h1.678c1.845 0 2.938 1.171 2.938 3.183 0 2.043-1.074 3.203-2.938 3.203h-1.678v-6.387zm10.728 7.774c1.962 0 3.165-1.315 3.165-3.493 0-2.165-1.21-3.486-3.165-3.486-1.962 0-3.172 1.32-3.172 3.486 0 2.178 1.203 3.493 3.172 3.493zm0-1.179c-1.154 0-1.802-.845-1.802-2.314 0-1.456.648-2.307 1.802-2.307 1.147 0 1.802.851 1.802 2.307 0 1.463-.655 2.314-1.802 2.314zm13.412-5.67h-1.327l-1.197 5.127h-.105l-1.382-5.127h-1.271l-1.382 5.127h-.099l-1.203-5.127h-1.345l1.85 6.72h1.364l1.383-4.95h.104l1.389 4.95h1.376l1.845-6.72zm1.527 6.719h1.327v-3.93c0-1.05.623-1.703 1.604-1.703.981 0 1.45.537 1.45 1.616v4.017h1.327v-4.35c0-1.598-.827-2.499-2.326-2.499-1.012 0-1.678.45-2.005 1.197h-.1v-1.067h-1.276v6.72zm7.798 0h1.326v-9.342h-1.327v9.342zm6.315.13c1.963 0 3.166-1.315 3.166-3.493 0-2.165-1.21-3.486-3.166-3.486-1.962 0-3.171 1.32-3.171 3.486 0 2.178 1.203 3.493 3.171 3.493zm0-1.179c-1.154 0-1.801-.845-1.801-2.314 0-1.456.647-2.307 1.801-2.307 1.148 0 1.802.851 1.802 2.307 0 1.463-.654 2.314-1.802 2.314zm7.118.044c-.721 0-1.246-.352-1.246-.957 0-.592.42-.907 1.345-.969l1.642-.105v.562c0 .833-.741 1.469-1.741 1.469zm-.339 1.116c.882 0 1.617-.382 2.018-1.055h.105v.944h1.277v-4.59c0-1.42-.95-2.259-2.635-2.259-1.524 0-2.61.74-2.746 1.894h1.284c.148-.475.66-.746 1.401-.746.907 0 1.376.4 1.376 1.11v.58l-1.821.105c-1.598.1-2.499.796-2.499 2.006 0 1.228.944 2.011 2.24 2.011zm7.902 0c.925 0 1.709-.438 2.11-1.172h.105v1.061h1.271v-9.342h-1.327v3.69h-.098c-.364-.74-1.142-1.178-2.061-1.178-1.697 0-2.789 1.345-2.789 3.467 0 2.13 1.08 3.474 2.789 3.474zm.376-5.75c1.111 0 1.808.882 1.808 2.283 0 1.406-.691 2.276-1.808 2.276-1.123 0-1.795-.857-1.795-2.283 0-1.413.678-2.276 1.795-2.276zm11.713 5.769c1.962 0 3.165-1.315 3.165-3.493 0-2.165-1.209-3.486-3.165-3.486-1.962 0-3.172 1.32-3.172 3.486 0 2.178 1.203 3.493 3.172 3.493zm0-1.179c-1.154 0-1.802-.845-1.802-2.314 0-1.456.648-2.307 1.802-2.307 1.147 0 1.802.851 1.802 2.307 0 1.463-.655 2.314-1.802 2.314zm4.921 1.049h1.327v-3.93c0-1.05.623-1.703 1.604-1.703.981 0 1.45.537 1.45 1.616v4.017h1.327v-4.35c0-1.598-.827-2.499-2.326-2.499-1.012 0-1.679.45-2.006 1.197h-.098v-1.067h-1.278v6.72zm11.818-8.391v1.703h-1.068v1.116h1.068v3.795c0 1.296.586 1.814 2.061 1.814.259 0 .506-.03.722-.068V28.72c-.186.018-.303.03-.506.03-.661 0-.951-.308-.951-1.011v-3.456h1.457v-1.116H149v-1.703h-1.326zm4.563 8.391h1.327V25.93c0-1.018.605-1.703 1.691-1.703.938 0 1.437.543 1.437 1.616v4.011h1.327v-4.337c0-1.599-.882-2.506-2.314-2.506-1.012 0-1.721.45-2.048 1.204h-.105v-3.703h-1.315v9.342zm10.568-5.72c.981 0 1.622.685 1.653 1.74h-3.393c.074-1.049.759-1.74 1.74-1.74zm1.647 3.906c-.247.525-.796.815-1.598.815-1.061 0-1.746-.747-1.789-1.925v-.075h4.745v-.462c0-2.11-1.13-3.388-2.999-3.388-1.894 0-3.098 1.364-3.098 3.511 0 2.147 1.179 3.468 3.104 3.468 1.536 0 2.61-.74 2.912-1.944h-1.277zM46.824 38.181a7.417 7.417 0 013.504-6.173 7.624 7.624 0 00-5.934-3.208c-2.496-.262-4.917 1.494-6.189 1.494-1.297 0-3.255-1.468-5.365-1.424a7.967 7.967 0 00-6.65 4.055c-2.875 4.978-.73 12.294 2.024 16.318 1.378 1.97 2.989 4.172 5.096 4.094 2.062-.086 2.832-1.315 5.322-1.315 2.466 0 3.188 1.315 5.338 1.265 2.213-.036 3.607-1.98 4.937-3.968a16.297 16.297 0 002.257-4.598c-2.6-1.1-4.337-3.716-4.34-6.54zm-4.061-12.027a7.244 7.244 0 001.657-5.19 7.37 7.37 0 00-4.769 2.468 6.955 6.955 0 00-1.7 4.997 6.166 6.166 0 004.812-2.275zM16.424 66.675l.57-1.373-.57 1.373zm171.187-5.632l1.373.57-1.373-.57zm-5.632 5.633l-.569-1.374.569 1.373zm0-57.884l-.569 1.374.569-1.374zm5.632 5.632l-1.374.57 1.374-.57zM16.424 8.792l-.569-1.373.57 1.373zm-5.632 5.632l-1.373-.569 1.373.57zM25.61 9.487h147.183V6.513H25.61v2.974zM186.916 23.61v28.247h2.974V23.61h-2.974zm-14.123 42.371H25.61v2.973h147.183v-2.973zM11.487 51.857V23.61H8.513v28.247h2.974zM25.61 65.981c-2.445 0-4.204 0-5.593-.096-1.375-.093-2.279-.275-3.024-.583l-1.138 2.747c1.168.484 2.433.699 3.96.803 1.514.103 3.391.102 5.795.102v-2.973zM8.513 51.857c0 2.405 0 4.282.103 5.796.104 1.527.319 2.792.803 3.96l2.747-1.139c-.309-.744-.49-1.648-.584-3.024-.095-1.389-.095-3.148-.095-5.593H8.513zm8.48 13.445a8.92 8.92 0 01-4.827-4.828l-2.747 1.138a11.894 11.894 0 006.436 6.437l1.138-2.747zm169.923-13.445c0 2.445 0 4.204-.095 5.593-.094 1.376-.275 2.28-.584 3.024l2.747 1.138c.484-1.167.699-2.432.803-3.96.104-1.513.103-3.39.103-5.795h-2.974zm-14.123 17.097c2.404 0 4.281.001 5.795-.102 1.527-.104 2.792-.32 3.96-.803l-1.138-2.747c-.745.308-1.649.49-3.024.583-1.389.095-3.148.096-5.593.096v2.973zm13.444-8.48a8.92 8.92 0 01-4.827 4.828l1.138 2.747a11.893 11.893 0 006.436-6.437l-2.747-1.138zM172.793 9.487c2.445 0 4.204 0 5.593.095 1.375.094 2.279.275 3.024.584l1.138-2.747c-1.168-.484-2.433-.699-3.96-.803-1.514-.103-3.391-.103-5.795-.103v2.974zM189.89 23.61c0-2.404.001-4.282-.103-5.795-.104-1.527-.319-2.792-.803-3.96l-2.747 1.138c.309.745.49 1.649.584 3.024.095 1.39.095 3.148.095 5.593h2.974zm-8.48-13.444a8.92 8.92 0 014.827 4.827l2.747-1.138a11.893 11.893 0 00-6.436-6.436l-1.138 2.747zM25.61 6.513c-2.404 0-4.282 0-5.795.103-1.527.104-2.792.319-3.96.803l1.138 2.747c.745-.309 1.649-.49 3.024-.584 1.39-.095 3.148-.095 5.593-.095V6.513zM11.487 23.61c0-2.445 0-4.204.095-5.593.094-1.375.275-2.279.584-3.024l-2.747-1.138c-.484 1.168-.699 2.433-.803 3.96-.104 1.514-.103 3.391-.103 5.795h2.974zm4.368-16.19a11.893 11.893 0 00-6.436 6.436l2.747 1.138a8.92 8.92 0 014.827-4.827L15.855 7.42z" fill="#000"/></g><defs><filter id="filter0_d" x="0" y="0" width="198.403" height="79.468" filterUnits="userSpaceOnUse" color-interpolation-filters="sRGB"><feFlood flood-opacity="0" result="BackgroundImageFix"/><feColorMatrix in="SourceAlpha" values="0 0 0 0 0 0 0 0 0 0 0 0 0 0 0 0 0 0 127 0"/><feOffset dy="2"/><feGaussianBlur stdDeviation="5"/><feColorMatrix values="0 0 0 0 1 0 0 0 0 1 0 0 0 0 1 0 0 0 0.25 0"/><feBlend in2="BackgroundImageFix" result="effect1_dropShadow"/><feBlend in="SourceGraphic" in2="effect1_dropShadow" result="shape"/></filter></defs></svg>