<svg width="135" height="143" fill="none" xmlns="http://www.w3.org/2000/svg"><g filter="url(#filter0_d)"><path d="M36.3 22.572c9.505-5.906 21.419-7.959 32.309-5.201 13.646 3.252 25.234 13.883 29.634 27.196 4.672 13.374 1.848 28.983-7.152 39.889-9.924 12.433-27.24 18.241-42.632 14.238-15.568-3.696-28.185-17.064-30.988-32.83-3.456-16.504 4.462-34.512 18.83-43.291z" fill="#fff"/><path d="M36.78 29.61c17.073-13.972 45.58-7.074 54.196 13.236 9.081 17.857-.532 41.935-19.454 48.5-17.591 7.53-39.989-2.34-46.245-20.416-6.003-14.339-.886-32.053 11.503-41.32z" fill="#1B1816"/><path d="M48.21 59.077c6.505-9.91 12.74-20.01 19.502-29.77-2.423 8.689-5.01 17.324-7.433 26.012a663.352 663.352 0 01-12.068 3.758zm8.658 1.657c4.044-1.273 8.07-2.54 12.113-3.75-6.574 9.89-12.753 20.033-19.54 29.781 2.424-8.689 5.004-17.343 7.427-26.031z" fill="#fff"/></g><defs><filter id="filter0_d" x=".066" y=".548" width="134.187" height="142.32" filterUnits="userSpaceOnUse" color-interpolation-filters="sRGB"><feFlood flood-opacity="0" result="BackgroundImageFix"/><feColorMatrix in="SourceAlpha" values="0 0 0 0 0 0 0 0 0 0 0 0 0 0 0 0 0 0 127 0"/><feOffset dx="6" dy="7"/><feGaussianBlur stdDeviation="6"/><feColorMatrix values="0 0 0 0 0.770833 0 0 0 0 0.770833 0 0 0 0 0.770833 0 0 0 0.2 0"/><feBlend in2="BackgroundImageFix" result="effect1_dropShadow"/><feBlend in="SourceGraphic" in2="effect1_dropShadow" result="shape"/></filter></defs></svg>