<svg width="22" height="23" fill="none" xmlns="http://www.w3.org/2000/svg"><path d="M11.008 0h5.938c.7-.01 1.391.15 2.017.468a4.388 4.388 0 011.58 1.358 5.64 5.64 0 011.142 2.98c0 .323.043.633.043.976v10.922a5.51 5.51 0 01-.799 2.985 4.808 4.808 0 01-2.922 2.187 5.38 5.38 0 01-1.417.171H5.683a7.438 7.438 0 01-2.416-.342 4.261 4.261 0 01-1.99-1.238 4.36 4.36 0 01-1.05-2.115 8.207 8.207 0 01-.163-1.515V5.763a6.772 6.772 0 01.749-3.278A4.528 4.528 0 013.054.393 4.971 4.971 0 015.09.013L11.008 0zm4.895 7.956c.388.778.6 1.633.625 2.504a5.778 5.778 0 01-.562 2.472 5.573 5.573 0 01-1.536 1.997 5.512 5.512 0 01-6.243.551 5.511 5.511 0 01-2.38-2.662 5.78 5.78 0 01.1-4.875H.739c-.156 0-.187.057-.187.203v8.71a5.87 5.87 0 00.237 1.711c.161.593.459 1.138.868 1.59.41.453.918.801 1.486 1.016.8.29 1.647.428 2.497.405h10.926a5.73 5.73 0 00.874-.057 4.214 4.214 0 001.604-.56 4.28 4.28 0 001.262-1.151c.656-.87 1-1.941.974-3.037V8.184c0-.19-.056-.222-.225-.222h-5.15v-.006zM2.898.983l-.112.038a4.05 4.05 0 00-1.099.945A5.484 5.484 0 00.526 5.217c-.038.704 0 1.414 0 2.124 0 .12.037.158.156.158h5.357a.304.304 0 00.193-.1c.206-.248.387-.527.625-.762a5.615 5.615 0 012.07-1.41 5.542 5.542 0 014.849.397 5.654 5.654 0 011.821 1.73.302.302 0 00.3.152h5.245c.1 0 .2 0 .2-.14 0-.868 0-1.743-.07-2.605a4.795 4.795 0 00-1.048-2.681A3.942 3.942 0 0018.803.874a3.878 3.878 0 00-1.807-.41H6.27c-.25 0-.25 0-.25.253v5.14a.643.643 0 01-.031.273.308.308 0 01-.206.14.304.304 0 01-.188-.159.508.508 0 010-.24V.596c0-.05-.037-.14-.13-.14h-.481c-.238 0-.238 0-.238.242v5.204c0 .26-.068.368-.224.368-.157 0-.231-.108-.231-.368V.514C4.06.57 3.86.628 3.666.666c-.193.038-.23.14-.225.323v4.875c.02.08.02.162 0 .24a.345.345 0 01-.187.166.166.166 0 01-.195-.075.173.173 0 01-.023-.071 1.885 1.885 0 010-.26V1.237c-.125-.077-.131-.153-.138-.254zm8.004 4.342a5.1 5.1 0 00-2.87.873 5.219 5.219 0 00-1.908 2.346 5.31 5.31 0 00-.3 3.027 5.262 5.262 0 001.406 2.686 5.134 5.134 0 002.64 1.438 5.08 5.08 0 002.983-.295 5.174 5.174 0 002.317-1.928c.568-.861.87-1.874.87-2.91 0-1.386-.54-2.715-1.503-3.696a5.118 5.118 0 00-3.635-1.54z" fill="#fff"/><path d="M18.788 4.057v.717c0 .304-.115.597-.322.818a1.16 1.16 0 01-.789.367c-.534.035-1.07.035-1.604 0a1.14 1.14 0 01-.808-.366 1.176 1.176 0 01-.316-.838V3.303a1.226 1.226 0 01.364-.885 1.19 1.19 0 01.884-.339h1.349a1.189 1.189 0 01.896.358 1.225 1.225 0 01.353.91v.685l-.007.025zm-1.91-1.496h-.724a.74.74 0 00-.543.23.761.761 0 00-.213.556v1.401a.773.773 0 00.208.559.749.749 0 00.541.234h1.449a.737.737 0 00.519-.221.76.76 0 00.218-.527v-1.49a.766.766 0 00-.222-.515.744.744 0 00-.509-.22c-.243-.013-.493-.007-.724-.007zM10.901 14.2a3.576 3.576 0 01-2.01-.616 3.659 3.659 0 01-1.334-1.646 3.722 3.722 0 01-.208-2.121 3.688 3.688 0 01.988-1.88 3.598 3.598 0 011.85-1.007 3.564 3.564 0 012.09.208A3.622 3.622 0 0113.9 8.489a3.71 3.71 0 01.61 2.04c0 .482-.092.959-.273 1.404a3.634 3.634 0 01-1.953 1.987 3.56 3.56 0 01-1.383.28zm0-.45a3.13 3.13 0 001.768-.518 3.203 3.203 0 001.185-1.428 3.26 3.26 0 00.203-1.856 3.232 3.232 0 00-.847-1.658 3.153 3.153 0 00-1.612-.899 3.12 3.12 0 00-1.832.162 3.175 3.175 0 00-1.434 1.17 3.248 3.248 0 00-.552 1.78 3.253 3.253 0 00.895 2.266c.58.607 1.37.959 2.201.98h.025z" fill="#fff"/></svg>