<svg width="65" height="47" fill="none" xmlns="http://www.w3.org/2000/svg"><path d="M38.865 23.722L33.462 8.466a.683.683 0 00-.306-.397.753.753 0 00-.428-.121c-.367 0-.61.174-.732.52l-5.345 15.278-3.572.007L29 7.039c.283-.835.75-1.457 1.4-1.865.672-.409 1.445-.614 2.32-.615.855-.002 1.62.2 2.292.606.672.406 1.152 1.026 1.438 1.86l5.986 16.69-3.572.007z" fill="#009B95"/><path d="M15.505 8.419a7.096 7.096 0 11-7.096 7.094 7.105 7.105 0 017.105-7.094h-.009zm.01-8.418a15.514 15.514 0 10-.001 31.028 15.514 15.514 0 000-31.028zm33.972 8.417a7.096 7.096 0 11-7.095 7.094 7.104 7.104 0 017.095-7.094zm0-8.418a15.514 15.514 0 10-.003 31.028A15.514 15.514 0 0049.487 0z" fill="#FF7A00"/><path d="M37.487 36.624a15.51 15.51 0 0024.001 0" stroke="#FF7A00" stroke-width="7.576" stroke-miterlimit="10"/></svg>