<svg width="119" height="125" fill="none" xmlns="http://www.w3.org/2000/svg"><mask id="a" fill="#fff"><path d="M74.787 1.615c-5.264 1.197-9.497 3.658-12.334 5.78-3.332-.337-8.87-.949-14.739 1.736-3.447 1.442-6.406 3.678-8.914 6.64-5.529-1.273-11.067-1.566-16.578-.568-3.417.5-16.747 5.168-20.012 13.521C1.053 31.985.07 36.014.294 40.587c.106 4.058 1.108 8.464 4.458 17.227 2.187 6.03 4.168 9.937 8.426 17.94.44.719 2.672 4.57 9.134 15.08 1.235 1.887 3.67 5.415 7.59 8.33 2.654 2.117 5.076 3.204 7.657 2.617 3.358-.763 5.149-3.615 6.627-6.673.112-.206.23-.435.342-.64a3.536 3.536 0 00-.224 1.156c.073 2.704 3.64 4.072 6.456 4.516 2.302.561 4.68.297 6.486-.114 2.319-.527 4.017-1.455 4.988-1.942.818-.505 2.545-1.77 4.282-3.599 1.594 6.59 3.428 14.378 3.996 16.131 2.307 6.555 5.17 10.794 9.116 12.618 3.052 1.485 7.76.69 8.022.631 4.639-1.055 11.163-5.801 13.142-11.417 1.022-2.688 1.065-4.877.932-7.844.162-1.664-1.382-10.837-1.532-12.705-.297-2.94-.666-5.823-1.016-8.624 1.805.058 4.01.056 6.289-.462 4.124-.938 8.901-5.022 9.81-5.781 1.716-2.016 5.017-6.572 2.507-9.265-1.442-1.585-2.995-1.232-6.748.174 0 0-6.016 2.175-6.6 2.032-.406-.057-1.063-.29-1.817-.618.868-2.387 1.589-4.72 2.56-6.886 1.742-6.657 2.498-11.729 2.966-15.64.849-6.996.96-12.475.904-16.268.05-8.174-.258-11.91-2.239-15.818C103.103 7.964 94.2 3.462 90.693 2.356c-2.303-.57-8.162-2.502-15.906-.741zm1.177 5.175c6.453-1.468 11.428.123 13.981.626 3.198.91 10.828 4.618 12.459 9.413.91 2.79 1.81 5.583 1.711 13.493-.206 3.853-.186 8.748-1.044 15.746-.468 3.912-1.009 8.67-2.868 14.811-.051.15-.11.312-.158.472.054-1.16.066-2.088.066-2.088-.074-2.704-.545-4.776-1.513-7.82-.616-1.496-1.75-5.32-2.104-6.877-.175-.768-1.233-8.967-1.62-11.877-.794-4.71-4.934-9.763-5.934-10.62-5.226-5.072-8.056-7.958-12.956-10.384-1.228-.645-3.326-1.71-6.061-2.64 1.79-.896 3.802-1.746 6.04-2.255zm-22.568 6.247c3.386-.685 6.451-.404 8.756-.11 5.836.576 9.83 2.655 11.677 3.596 4.006 2.087 6.459 4.526 11.684 9.6.411.501 1.42 1.537 2.387 3.081-5.394.716-8.48 3.374-10.156 5.753-2.507 3.292-1.373 7.115-.465 9.896.471 2.072 1.586 4.55 7.458 12.463 2.425 3.53 4.907 7.314 7.108 9.81a25.38 25.38 0 003.854 3.748 7.41 7.41 0 00-1.531 1.71c-1.132 2.16-.98 4.038-.73 7.52.075 2.705.794 8.25 1.532 12.706.411 1.809 1.647 10.787 1.678 12.14-.188 2.764-.156 4.117-.83 5.907-1.16 3.251-6.306 6.876-9.723 7.377-1.029.234-2.582.587-4.107-.15-3.315-1.426-5.403-5.851-6.487-9.41-.85-2.528-4.826-21.225-6.282-25.252-.497-.972-1.337-3.502-3.816-4.84-1.033-.531-2.913-.497-4.664-.365-.177-.874-.325-1.754-.343-2.58-.101-1.613.236-2.508.466-3.921.078-.826.357-1.974.588-3.387.671-7.774-2.032-17.236-4.676-22.896-.37-.458-2.348-4.356-6.486-5.86-4.403-1.454-8.243.78-10.385 2.085-.899.481-1.752 1.11-2.59 1.811-.084-1.118-.191-2.241-.2-3.355-.149-5.409-.11-10.042 2.248-15.202 2.608-5.227 6.087-9.005 10.559-10.84a19.96 19.96 0 013.476-1.035zm-31.77 7.702a13.51 13.51 0 011.51-.302c4.082-.704 8.16-.632 12.36.114a36.59 36.59 0 00-1.034 1.936c-3.21 6.172-3.014 11.835-2.807 17.507.18 6.762 1.446 13.543 4.005 20.04l.613 5.027c.326 2.647.92 7.688 4.941 12.217 1.389 1.491 2.819 2.697 4.312 3.665-1.832 4.073-3.868 7.99-5.977 11.68-1.142 2.162-2.138 3.75-3.167 3.983-.262.06-1.407-.222-3.372-1.678-3.549-2.456-5.342-5.588-6.15-6.765-5.215-8.615-8.374-14.158-8.813-14.876-3.95-7.808-5.918-11.708-8.31-17.425-3.172-7.984-4.115-12.128-4.101-15.66-.049-3.805.594-6.95 1.416-9.304 2.033-5.703 10.404-9.094 14.573-10.16zm65.43 13.802a13.196 13.196 0 012.741-.304c.52 2.422 1.244 10.23 1.476 11.25.472 2.072 1.926 6.09 2.28 7.646.91 2.79 1.261 4.337 1.47 6.468 0 0 .038 1.937-.057 3.34-1.818-2.446-3.887-5.388-6.324-8.692-5.871-7.913-6.535-9.665-6.83-10.958-.413-1.82-.941-4.144.367-5.526 1.158-1.624 2.764-2.722 4.877-3.224zm-39.9 9.869a3.936 3.936 0 011.548.137c2.304.571 3.406 3.042 3.406 3.042 2.585 5.396 5.04 13.82 4.267 19.98-.017 1.089-.355 1.984-.44 2.822-.22 1.41-.44 2.82-.436 5.265.087.99.243 1.954.429 2.91-1.87.032-3.699-.222-5.093-.755-2.301-.56-4.258-2.03-5.757-3.868-2.698-3.468-3.258-7.146-3.465-9.267l-.852-6.078a65.12 65.12 0 01-2.48-8.62c.959-1.292 2.275-2.686 4.29-3.76 1.465-.738 3.037-1.659 4.583-1.808zm38.461-6.916c-.669.184-1.357.468-1.71.686-.97.497-1.231.556-1.376 1.131-.135.573.818 1.175 1.198 1.63.252-.056 1.205.545 2.176.059.717-.44 1.114-1.072 1.316-1.394.203-.323.937-1.85.043-2.19-.321-.202-.98-.116-1.647.078zM47.394 48.16a2.195 2.195 0 00-.766.408c-.252.058-.709.427-.854 1.002-.145.575.234 1.031.556 1.234.692.662 1.645 1.263 2.936.97.262-.06 1.29-.294 1.88-1.246 0 0 .61-.957.435-1.725-.382-.466-.954-.602-1.79-.688-.628-.06-1.574-.206-2.397.045zm2.949 34.94c1.776.49 3.838.743 6.033.744-.301 1.237-.889 2.338-1.547 3.126-1.521 1.706-3.664 3.012-5.866 4.055-.524.119-.716.439-1.23.556-1.17.638-2.291 1.307-2.923 2.354 1.89-3.395 3.724-7.086 5.533-10.835zm50.244-9.244c1.322.592 2.574.966 3.618 1.08 1.67.162 2.96-.131 7.492-1.704-.602.945-2.627 2.766-5.866 4.055-2.109.703-4.909.797-7.23.666-.13-1.511-.09-2.403.204-2.885.111-.163.909-.62 1.782-1.212zm-38.696 9.616c.556-.03.995-.056 1.094.006.634.409 1.19 1.643 1.307 2.159.132.437.407 1.555.604 2.328-1.56 2.98-4.663 5.142-5.334 5.55-.912.75-3.89 1.969-7.22 1.642 2.404-1.365 4.811-2.72 6.514-4.745 1.511-1.704 2.595-4.119 3.035-6.94z"/></mask><path d="M74.787 1.615c-5.264 1.197-9.497 3.658-12.334 5.78-3.332-.337-8.87-.949-14.739 1.736-3.447 1.442-6.406 3.678-8.914 6.64-5.529-1.273-11.067-1.566-16.578-.568-3.417.5-16.747 5.168-20.012 13.521C1.053 31.985.07 36.014.294 40.587c.106 4.058 1.108 8.464 4.458 17.227 2.187 6.03 4.168 9.937 8.426 17.94.44.719 2.672 4.57 9.134 15.08 1.235 1.887 3.67 5.415 7.59 8.33 2.654 2.117 5.076 3.204 7.657 2.617 3.358-.763 5.149-3.615 6.627-6.673.112-.206.23-.435.342-.64a3.536 3.536 0 00-.224 1.156c.073 2.704 3.64 4.072 6.456 4.516 2.302.561 4.68.297 6.486-.114 2.319-.527 4.017-1.455 4.988-1.942.818-.505 2.545-1.77 4.282-3.599 1.594 6.59 3.428 14.378 3.996 16.131 2.307 6.555 5.17 10.794 9.116 12.618 3.052 1.485 7.76.69 8.022.631 4.639-1.055 11.163-5.801 13.142-11.417 1.022-2.688 1.065-4.877.932-7.844.162-1.664-1.382-10.837-1.532-12.705-.297-2.94-.666-5.823-1.016-8.624 1.805.058 4.01.056 6.289-.462 4.124-.938 8.901-5.022 9.81-5.781 1.716-2.016 5.017-6.572 2.507-9.265-1.442-1.585-2.995-1.232-6.748.174 0 0-6.016 2.175-6.6 2.032-.406-.057-1.063-.29-1.817-.618.868-2.387 1.589-4.72 2.56-6.886 1.742-6.657 2.498-11.729 2.966-15.64.849-6.996.96-12.475.904-16.268.05-8.174-.258-11.91-2.239-15.818C103.103 7.964 94.2 3.462 90.693 2.356c-2.303-.57-8.162-2.502-15.906-.741zm1.177 5.175c6.453-1.468 11.428.123 13.981.626 3.198.91 10.828 4.618 12.459 9.413.91 2.79 1.81 5.583 1.711 13.493-.206 3.853-.186 8.748-1.044 15.746-.468 3.912-1.009 8.67-2.868 14.811-.051.15-.11.312-.158.472.054-1.16.066-2.088.066-2.088-.074-2.704-.545-4.776-1.513-7.82-.616-1.496-1.75-5.32-2.104-6.877-.175-.768-1.233-8.967-1.62-11.877-.794-4.71-4.934-9.763-5.934-10.62-5.226-5.072-8.056-7.958-12.956-10.384-1.228-.645-3.326-1.71-6.061-2.64 1.79-.896 3.802-1.746 6.04-2.255zm-22.568 6.247c3.386-.685 6.451-.404 8.756-.11 5.836.576 9.83 2.655 11.677 3.596 4.006 2.087 6.459 4.526 11.684 9.6.411.501 1.42 1.537 2.387 3.081-5.394.716-8.48 3.374-10.156 5.753-2.507 3.292-1.373 7.115-.465 9.896.471 2.072 1.586 4.55 7.458 12.463 2.425 3.53 4.907 7.314 7.108 9.81a25.38 25.38 0 003.854 3.748 7.41 7.41 0 00-1.531 1.71c-1.132 2.16-.98 4.038-.73 7.52.075 2.705.794 8.25 1.532 12.706.411 1.809 1.647 10.787 1.678 12.14-.188 2.764-.156 4.117-.83 5.907-1.16 3.251-6.306 6.876-9.723 7.377-1.029.234-2.582.587-4.107-.15-3.315-1.426-5.403-5.851-6.487-9.41-.85-2.528-4.826-21.225-6.282-25.252-.497-.972-1.337-3.502-3.816-4.84-1.033-.531-2.913-.497-4.664-.365-.177-.874-.325-1.754-.343-2.58-.101-1.613.236-2.508.466-3.921.078-.826.357-1.974.588-3.387.671-7.774-2.032-17.236-4.676-22.896-.37-.458-2.348-4.356-6.486-5.86-4.403-1.454-8.243.78-10.385 2.085-.899.481-1.752 1.11-2.59 1.811-.084-1.118-.191-2.241-.2-3.355-.149-5.409-.11-10.042 2.248-15.202 2.608-5.227 6.087-9.005 10.559-10.84a19.96 19.96 0 013.476-1.035zm-31.77 7.702a13.51 13.51 0 011.51-.302c4.082-.704 8.16-.632 12.36.114a36.59 36.59 0 00-1.034 1.936c-3.21 6.172-3.014 11.835-2.807 17.507.18 6.762 1.446 13.543 4.005 20.04l.613 5.027c.326 2.647.92 7.688 4.941 12.217 1.389 1.491 2.819 2.697 4.312 3.665-1.832 4.073-3.868 7.99-5.977 11.68-1.142 2.162-2.138 3.75-3.167 3.983-.262.06-1.407-.222-3.372-1.678-3.549-2.456-5.342-5.588-6.15-6.765-5.215-8.615-8.374-14.158-8.813-14.876-3.95-7.808-5.918-11.708-8.31-17.425-3.172-7.984-4.115-12.128-4.101-15.66-.049-3.805.594-6.95 1.416-9.304 2.033-5.703 10.404-9.094 14.573-10.16zm65.43 13.802a13.196 13.196 0 012.741-.304c.52 2.422 1.244 10.23 1.476 11.25.472 2.072 1.926 6.09 2.28 7.646.91 2.79 1.261 4.337 1.47 6.468 0 0 .038 1.937-.057 3.34-1.818-2.446-3.887-5.388-6.324-8.692-5.871-7.913-6.535-9.665-6.83-10.958-.413-1.82-.941-4.144.367-5.526 1.158-1.624 2.764-2.722 4.877-3.224zm-39.9 9.869a3.936 3.936 0 011.548.137c2.304.571 3.406 3.042 3.406 3.042 2.585 5.396 5.04 13.82 4.267 19.98-.017 1.089-.355 1.984-.44 2.822-.22 1.41-.44 2.82-.436 5.265.087.99.243 1.954.429 2.91-1.87.032-3.699-.222-5.093-.755-2.301-.56-4.258-2.03-5.757-3.868-2.698-3.468-3.258-7.146-3.465-9.267l-.852-6.078a65.12 65.12 0 01-2.48-8.62c.959-1.292 2.275-2.686 4.29-3.76 1.465-.738 3.037-1.659 4.583-1.808zm38.461-6.916c-.669.184-1.357.468-1.71.686-.97.497-1.231.556-1.376 1.131-.135.573.818 1.175 1.198 1.63.252-.056 1.205.545 2.176.059.717-.44 1.114-1.072 1.316-1.394.203-.323.937-1.85.043-2.19-.321-.202-.98-.116-1.647.078zM47.394 48.16a2.195 2.195 0 00-.766.408c-.252.058-.709.427-.854 1.002-.145.575.234 1.031.556 1.234.692.662 1.645 1.263 2.936.97.262-.06 1.29-.294 1.88-1.246 0 0 .61-.957.435-1.725-.382-.466-.954-.602-1.79-.688-.628-.06-1.574-.206-2.397.045zm2.949 34.94c1.776.49 3.838.743 6.033.744-.301 1.237-.889 2.338-1.547 3.126-1.521 1.706-3.664 3.012-5.866 4.055-.524.119-.716.439-1.23.556-1.17.638-2.291 1.307-2.923 2.354 1.89-3.395 3.724-7.086 5.533-10.835zm50.244-9.244c1.322.592 2.574.966 3.618 1.08 1.67.162 2.96-.131 7.492-1.704-.602.945-2.627 2.766-5.866 4.055-2.109.703-4.909.797-7.23.666-.13-1.511-.09-2.403.204-2.885.111-.163.909-.62 1.782-1.212zm-38.696 9.616c.556-.03.995-.056 1.094.006.634.409 1.19 1.643 1.307 2.159.132.437.407 1.555.604 2.328-1.56 2.98-4.663 5.142-5.334 5.55-.912.75-3.89 1.969-7.22 1.642 2.404-1.365 4.811-2.72 6.514-4.745 1.511-1.704 2.595-4.119 3.035-6.94z" fill="#fff" stroke="#fff" stroke-width="459.275" mask="url(#a)"/></svg>