<svg width="23" height="23" fill="none" xmlns="http://www.w3.org/2000/svg"><path d="M.266 8.132l9.686 4.82 4.762 9.84a.365.365 0 00.353.207.367.367 0 00.322-.253L22.696.488l.002-.013a.376.376 0 00.014-.074l.002-.021V.369a.38.38 0 00-.008-.078L22.7.273l-.012-.04V.23l-.014-.027-.011-.02a.37.37 0 00-.055-.074.359.359 0 00-.073-.056L22.514.04l-.026-.013-.003-.001-.038-.012-.02-.006A.348.348 0 0022.352 0h-.01l-.022.003a.36.36 0 00-.072.014l-.013.002L.31 7.447a.374.374 0 00-.045.685zm14.711 13.521l-4.309-8.904 9.714-9.857.038-.026 1.09-1.113-6.533 19.9zm6.018-20.432L10.151 12.224l-8.763-4.36L20.995 1.22z" fill="#fff"/></svg>