<svg width="59" height="59" fill="none" xmlns="http://www.w3.org/2000/svg"><path d="M6.854 13.607c-6.211 3.474-8.44 11.358-4.966 17.57l11.507 20.577c3.474 6.212 11.359 8.44 17.57 4.967l20.577-11.508c6.212-3.474 8.44-11.359 4.967-17.57L45.001 7.066c-3.474-6.212-11.358-8.44-17.57-4.967L6.854 13.607zm1.096 1.96L28.527 4.059a10.648 10.648 0 0114.515 4.103l11.507 20.577a10.648 10.648 0 01-4.102 14.514L29.87 54.761a10.648 10.648 0 01-14.515-4.103L3.847 30.081A10.648 10.648 0 017.95 15.567zm15.424-3.48a1.123 1.123 0 00.16 2.036s5.971 2.24 9.084 7.606c.589 1.014.99 2.571 1.378 4.028-2.554-.292-13.873-1.624-20.852-3.702a1.123 1.123 0 00-.81 2.087s2.88 1.395 6.182 2.873c.623.28 1.05.37 1.68.646-2.66-.28-5.199-.497-9.969-1.477a1.123 1.123 0 00-.667 2.132s4.31 1.84 9.42 3.698c4.45 1.619 9.177 3.07 12.741 3.524-.603 1.006-1.65 2.384-4.077 3.743-2.728 1.526-6.906 2.711-12.824 2.245a1.123 1.123 0 00-.707 2.056s11.172 7.31 23.428.457c2.8-1.566 4.383-3.443 5.52-5.012 1.137-1.569 1.85-2.72 2.813-3.258 2.047-1.145 4.748.319 4.748.319a1.123 1.123 0 001.684-1.11c-.368-2.892-2.487-4.867-4.37-6.11-1.534-1.014-2.505-1.314-3-1.493-.06-.808-.264-2.495-1.54-4.78-2.352-4.207-7.749-9.548-19.372-10.644a1.123 1.123 0 00-.65.135zm6.47 3.292c6.666 1.903 9.977 5.423 11.592 8.312 1.38 2.469 1.343 4.397 1.343 4.397a1.122 1.122 0 00.772 1.078s1.539.514 3.147 1.576c.979.647 1.809 1.52 2.456 2.496-1.274-.252-2.832-.293-4.376.57-1.65.924-2.474 2.437-3.536 3.903-1.062 1.466-2.339 2.994-4.797 4.369-6.531 3.651-12.365 2.861-16.31 1.612 3.572-.34 6.464-1.253 8.605-2.452 4.387-2.454 5.779-6.108 5.779-6.108a1.122 1.122 0 00-1.027-1.513c-2.655-.06-8.292-1.774-13.22-3.544 1.178.132 2.504.301 3.367.356 2.838.18 4.143.01 4.143.01a1.123 1.123 0 00.056-2.215c-.686-.13-2.778-1.063-4.404-1.707 6.298 1.045 12.072 1.7 12.072 1.7a1.122 1.122 0 001.225-1.306c-.375-2.204-1.157-4.566-2.17-6.31-1.327-2.288-3.045-3.902-4.718-5.224z" fill="#fff"/></svg>