<svg width="61" height="72" viewBox="0 0 61 72" fill="none" xmlns="http://www.w3.org/2000/svg">
<path d="M23.5879 2.61323C23.5314 2.61631 23.4742 2.62442 23.4221 2.63316C22.9881 2.67543 22.6042 2.92812 22.3972 3.31537C22.1902 3.70263 22.1935 4.16231 22.4054 4.54622L24.6214 8.98951C19.6887 10.8377 15.8398 14.6137 14.4376 19.5042C14.4357 19.5193 14.4345 19.5293 14.4326 19.5444C14.4307 19.5595 14.4294 19.5695 14.4275 19.5846C14.4225 19.6248 14.4174 19.6649 14.4123 19.7051C14.4092 19.7303 14.4054 19.7604 14.4022 19.7855C14.3889 19.8502 14.3801 19.9205 14.3769 19.9864L14.149 21.7948C13.4418 21.2515 12.6126 20.8663 11.6683 20.7473C8.84021 20.391 6.2327 22.4148 5.87631 25.2429L3.93168 40.6741C3.57529 43.5022 5.59916 46.1097 8.42722 46.4661C9.37158 46.5851 10.2704 46.4177 11.0902 46.0669L10.675 49.3621C10.4085 51.4768 11.9319 53.4395 14.0466 53.706L15.3326 53.8681L14.3603 61.5837C14.0039 64.4118 16.0277 67.0193 18.8558 67.3757C21.6839 67.7321 24.2914 65.7082 24.6478 62.8801L25.6201 55.1645L30.7638 55.8127L29.7915 63.5283C29.4351 66.3564 31.459 68.9639 34.287 69.3203C37.1151 69.6767 39.7226 67.6528 40.079 64.8248L41.0513 57.1091L42.3373 57.2712C44.452 57.5377 46.4147 56.0143 46.6812 53.8995L47.0965 50.6043C47.8037 51.1476 48.6328 51.5328 49.5772 51.6518C52.4053 52.0082 55.0128 49.9843 55.3692 47.1562L57.3138 31.725C57.6702 28.8969 55.6463 26.2894 52.8183 25.933C51.8739 25.814 50.9751 25.9814 50.1552 26.3323L50.3781 24.5641C50.4083 24.4454 50.4235 24.3249 50.4236 24.2024C50.4255 24.1874 50.4268 24.1773 50.4287 24.1622C50.4306 24.1472 50.4319 24.1371 50.4338 24.1221C50.3183 19.0045 47.531 14.3566 43.1872 11.3291L46.4363 7.57458C46.8072 7.18246 46.8907 6.60104 46.6507 6.11662C46.4157 5.63285 45.901 5.34346 45.3634 5.39818C45.0224 5.43175 44.7057 5.59596 44.4888 5.8595L40.9128 9.94028C38.8892 8.90962 36.6091 8.21405 34.1879 7.90893C31.7667 7.60382 29.3853 7.71195 27.1693 8.20834L24.7175 3.36794C24.5132 2.92375 24.0752 2.63382 23.5879 2.61323ZM33.8638 10.4808C36.2799 10.7853 38.4859 11.543 40.3675 12.6476C40.4058 12.6677 40.444 12.6878 40.483 12.703C44.2844 14.9731 46.797 18.6424 47.436 22.642L17.6987 18.8946C19.288 15.2319 22.5671 12.3333 26.7294 11.0514C26.8186 11.032 26.904 11.002 26.9857 10.9612C29.0938 10.3492 31.4326 10.1744 33.8638 10.4808ZM26.305 13.4473C25.235 13.3125 24.2672 14.0682 24.133 15.1332C23.9982 16.2031 24.7489 17.1703 25.8188 17.3051C26.8837 17.4393 27.856 16.6893 27.9908 15.6193C28.125 14.5544 27.3699 13.5815 26.305 13.4473ZM40.4503 15.2299C39.3854 15.0957 38.4125 15.8508 38.2783 16.9157C38.1435 17.9857 38.8992 18.9535 39.9641 19.0877C41.0341 19.2226 42.0013 18.4718 42.1361 17.4019C42.2703 16.337 41.5202 15.3647 40.4503 15.2299ZM16.812 21.3955L47.6745 25.2848L44.1094 53.5754C44.0182 54.2988 43.3847 54.7905 42.6614 54.6993L32.615 53.4333C32.4486 53.3766 32.2678 53.3538 32.0926 53.3674L17.1837 51.4887C17.0174 51.432 16.8365 51.4092 16.6613 51.4228L14.3707 51.1342C13.6474 51.043 13.1557 50.4095 13.2469 49.6862L16.812 21.3955ZM11.3442 23.3192C12.7808 23.5003 13.773 24.7786 13.5919 26.2152L11.6473 41.6464C11.4663 43.0831 10.188 44.0753 8.75132 43.8942C7.31469 43.7132 6.32251 42.4349 6.50355 40.9982L8.44818 25.567C8.62923 24.1304 9.90753 23.1382 11.3442 23.3192ZM52.4942 28.5049C53.9308 28.6859 54.923 29.9642 54.7419 31.4009L52.7973 46.8321C52.6163 48.2688 51.3379 49.2609 49.9013 49.0799C48.4647 48.8988 47.4725 47.6205 47.6535 46.1839L49.5982 30.7527C49.7792 29.316 51.0575 28.3239 52.4942 28.5049ZM17.9045 54.1922L23.0482 54.8404L22.0759 62.556C21.8948 63.9927 20.6165 64.9848 19.1799 64.8038C17.7433 64.6228 16.7511 63.3445 16.9321 61.9078L17.9045 54.1922ZM33.3357 56.1368L38.4794 56.785L37.5071 64.5007C37.3261 65.9373 36.0478 66.9295 34.6112 66.7484C33.1745 66.5674 32.1823 65.2891 32.3634 63.8525L33.3357 56.1368Z" fill="white"/>
</svg>
