<svg width="123" height="126" viewBox="0 0 123 126" fill="none" xmlns="http://www.w3.org/2000/svg">
<path d="M75.7682 13.837C75.5114 13.7545 75.2416 13.7195 74.9722 13.7338L25.8421 16.3984C25.3354 16.4258 24.8534 16.6259 24.4763 16.9655C24.0992 17.3051 23.8498 17.7636 23.7697 18.2646L14.1394 78.1543C14.0832 78.5038 14.1115 78.8616 14.2217 79.198C14.3319 79.5343 14.521 79.8395 14.7731 80.0879L46.5145 111.403C46.7793 111.664 47.1055 111.854 47.4632 111.957C47.8208 112.059 48.1984 112.07 48.5613 111.988L92.379 102.16C92.7228 102.083 93.0433 101.925 93.3139 101.699C93.5846 101.473 93.7977 101.187 93.9355 100.862L117.671 45.0448C117.871 44.5758 117.903 44.0524 117.763 43.5624C117.622 43.0723 117.317 42.6456 116.899 42.3539L76.3607 14.1297C76.1789 14.0031 75.9792 13.9044 75.7682 13.837ZM74.452 18.2137L112.879 44.967L90.2932 98.0792L48.7721 107.392L18.7068 77.7295L27.8672 20.7368L74.452 18.2137ZM73.4661 22.415C73.0514 22.2798 72.6061 22.2697 72.1858 22.386C71.7654 22.5023 71.3886 22.7399 71.1024 23.0691L26.1493 74.799C25.9044 75.0804 25.7344 75.4189 25.6549 75.7834C25.5755 76.1479 25.5891 76.5265 25.6946 76.8843C25.8001 77.2421 25.994 77.5675 26.2585 77.8306C26.523 78.0936 26.8495 78.2858 27.2078 78.3894L36.6734 81.1189C37.0796 81.2359 37.5108 81.2344 37.9162 81.1147C38.3217 80.995 38.6845 80.762 38.9621 80.4432L47.6542 70.4407L69.5933 76.7672L71.6249 89.862C71.6901 90.2797 71.8732 90.6701 72.1526 90.9873C72.4321 91.3045 72.7963 91.5353 73.2024 91.6527L82.668 94.3822C83.0264 94.4854 83.4051 94.4965 83.7691 94.4147C84.133 94.3328 84.4705 94.1606 84.7503 93.9139C85.0301 93.6672 85.2432 93.354 85.37 93.0032C85.4968 92.6524 85.5331 92.2752 85.4757 91.9067L74.9686 24.184C74.9058 23.7792 74.7321 23.3997 74.4669 23.0875C74.2018 22.7753 73.8554 22.5425 73.4661 22.415ZM71.3163 29.5883L80.5569 89.1525L75.795 87.7794L73.7633 74.6845C73.6981 74.2668 73.5151 73.8765 73.2356 73.5593C72.9562 73.242 72.592 73.0112 72.1858 72.8939L47.5221 65.7817C47.1158 65.6648 46.6846 65.6662 46.2792 65.7859C45.8738 65.9056 45.5109 66.1386 45.2334 66.4574L36.5371 76.4587L31.7793 75.0867L71.3163 29.5883ZM67.6309 42.6816C67.2138 42.5438 66.7651 42.5328 66.3416 42.6501C65.9182 42.7674 65.5391 43.0076 65.2523 43.3405L51.6427 59.0819C51.3995 59.3638 51.2312 59.7022 51.153 60.0662C51.0749 60.4301 51.0895 60.8079 51.1956 61.1647C51.3017 61.5215 51.4957 61.846 51.76 62.1082C52.0242 62.3704 52.3501 62.5619 52.7077 62.6652L69.4558 67.4947C69.8135 67.5977 70.1914 67.6091 70.5546 67.5279C70.9179 67.4467 71.2549 67.2754 71.5347 67.0298C71.8144 66.7843 72.028 66.4723 72.1556 66.1226C72.2833 65.773 72.321 65.3968 72.2653 65.0287L69.1269 44.4578C69.0658 44.0525 68.8937 43.672 68.6296 43.3585C68.3656 43.045 68.0199 42.8108 67.6309 42.6816ZM65.4644 49.8818L67.3531 62.2675L57.2709 59.3601L65.4644 49.8818Z" fill="white"/>
</svg>
