<svg width="199" height="80" viewBox="0 0 199 80" fill="none" xmlns="http://www.w3.org/2000/svg">
<g filter="url(#filter0_d)">
<path d="M10 23.6103C10 18.7613 10 16.3368 10.7922 14.4243C11.8484 11.8743 13.8743 9.84841 16.4243 8.79217C18.3368 8 20.7613 8 25.6103 8H172.793C177.642 8 180.066 8 181.979 8.79217C184.529 9.84841 186.555 11.8743 187.611 14.4243C188.403 16.3368 188.403 18.7613 188.403 23.6103V51.8574C188.403 56.7064 188.403 59.1309 187.611 61.0434C186.555 63.5933 184.529 65.6193 181.979 66.6755C180.066 67.4677 177.642 67.4677 172.793 67.4677H25.6103C20.7613 67.4677 18.3368 67.4677 16.4243 66.6755C13.8743 65.6193 11.8484 63.5933 10.7922 61.0434C10 59.1309 10 56.7064 10 51.8574V23.6103Z" fill="white"/>
<path d="M131.204 36.546V39.952H129.069V42.1857H131.204V49.7752C131.204 52.3668 132.376 53.4034 135.325 53.4034C135.844 53.4034 136.337 53.3417 136.769 53.2676V51.0586C136.399 51.0957 136.165 51.1203 135.757 51.1203C134.437 51.1203 133.857 50.5033 133.857 49.0965V42.1857H136.769V39.952H133.857V36.546H131.204Z" fill="black"/>
<path d="M144.283 53.5885C148.207 53.5885 150.614 50.9599 150.614 46.6036C150.614 42.2721 148.195 39.6311 144.283 39.6311C140.358 39.6311 137.94 42.2721 137.94 46.6036C137.94 50.9599 140.346 53.5885 144.283 53.5885ZM144.283 51.2314C141.975 51.2314 140.679 49.5407 140.679 46.6036C140.679 43.6912 141.975 41.9882 144.283 41.9882C146.578 41.9882 147.886 43.6912 147.886 46.6036C147.886 49.5284 146.578 51.2314 144.283 51.2314Z" fill="black"/>
<path d="M152.672 53.3293H155.326V45.3943C155.326 43.5061 156.745 42.235 158.756 42.235C159.225 42.235 160.015 42.3214 160.237 42.3955V39.7792C159.953 39.7052 159.448 39.6682 159.053 39.6682C157.3 39.6682 155.807 40.6307 155.424 41.9512H155.227V39.8903H152.672V53.3293Z" fill="black"/>
<path d="M166.825 41.8895C168.787 41.8895 170.071 43.2593 170.133 45.3696H163.345C163.493 43.2717 164.863 41.8895 166.825 41.8895ZM170.12 49.7012C169.627 50.7501 168.528 51.3301 166.924 51.3301C164.801 51.3301 163.432 49.8369 163.345 47.4798V47.3317H172.835V46.4062C172.835 42.1857 170.577 39.6311 166.838 39.6311C163.049 39.6311 160.643 42.3584 160.643 46.653C160.643 50.9476 163 53.5885 166.85 53.5885C169.923 53.5885 172.07 52.1076 172.675 49.7012H170.12Z" fill="black"/>
<path d="M113.804 48.3665C114.009 51.6665 116.759 53.777 120.852 53.777C125.226 53.777 127.963 51.5642 127.963 48.0339C127.963 45.2584 126.403 43.7235 122.617 42.8409L120.583 42.3421C118.178 41.7793 117.206 41.0246 117.206 39.7072C117.206 38.0444 118.716 36.9571 120.98 36.9571C123.128 36.9571 124.612 38.0188 124.881 39.7199H127.669C127.503 36.6118 124.766 34.4246 121.018 34.4246C116.989 34.4246 114.303 36.6118 114.303 39.899C114.303 42.6107 115.825 44.2223 119.163 45.0025L121.542 45.5781C123.985 46.1537 125.06 46.9979 125.06 48.4049C125.06 50.0421 123.371 51.2316 121.069 51.2316C118.6 51.2316 116.887 50.1188 116.644 48.3665H113.804Z" fill="black"/>
<path d="M86.319 39.6682C84.4926 39.6682 82.9129 40.5814 82.0985 42.1116H81.901V39.8903H79.3465V57.7967H81.9997V51.2931H82.2095C82.9129 52.7123 84.4309 53.5515 86.3437 53.5515C89.7374 53.5515 91.897 50.8735 91.897 46.6036C91.897 42.3338 89.7374 39.6682 86.319 39.6682ZM85.5662 51.1697C83.3449 51.1697 81.9504 49.4173 81.9504 46.616C81.9504 43.8023 83.3449 42.0499 85.5785 42.0499C87.8245 42.0499 89.1697 43.7653 89.1697 46.6036C89.1697 49.4544 87.8245 51.1697 85.5662 51.1697Z" fill="black"/>
<path d="M101.181 39.6682C99.3547 39.6682 97.7751 40.5814 96.9606 42.1116H96.7632V39.8903H94.2086V57.7967H96.8619V51.2931H97.0717C97.7751 52.7123 99.293 53.5515 101.206 53.5515C104.6 53.5515 106.759 50.8735 106.759 46.6036C106.759 42.3338 104.6 39.6682 101.181 39.6682ZM100.428 51.1697C98.207 51.1697 96.8125 49.4173 96.8125 46.616C96.8125 43.8023 98.207 42.0499 100.441 42.0499C102.687 42.0499 104.032 43.7653 104.032 46.6036C104.032 49.4544 102.687 51.1697 100.428 51.1697Z" fill="black"/>
<path d="M74.5861 53.3293H77.6303L70.9663 34.8722H67.8837L61.2197 53.3293H64.1616L65.8628 48.4305H72.8977L74.5861 53.3293ZM69.2779 38.2234H69.4954L72.1686 46.0258H66.5919L69.2779 38.2234Z" fill="black"/>
<path d="M63.0029 20.9504V29.8542H66.2177C68.8709 29.8542 70.4074 28.2191 70.4074 25.3746C70.4074 22.5732 68.8586 20.9504 66.2177 20.9504H63.0029ZM64.3851 22.2092H66.0634C67.9084 22.2092 69.0005 23.3815 69.0005 25.3931C69.0005 27.4355 67.9269 28.5955 66.0634 28.5955H64.3851V22.2092Z" fill="black"/>
<path d="M75.1129 29.9838C77.075 29.9838 78.2783 28.6695 78.2783 26.4914C78.2783 24.3256 77.0689 23.0052 75.1129 23.0052C73.1507 23.0052 71.9413 24.3256 71.9413 26.4914C71.9413 28.6695 73.1445 29.9838 75.1129 29.9838ZM75.1129 28.8053C73.959 28.8053 73.3111 27.9599 73.3111 26.4914C73.3111 25.0352 73.959 24.1837 75.1129 24.1837C76.2605 24.1837 76.9146 25.0352 76.9146 26.4914C76.9146 27.9538 76.2605 28.8053 75.1129 28.8053Z" fill="black"/>
<path d="M88.5247 23.1347H87.1981L86.0011 28.2623H85.8962L84.514 23.1347H83.2429L81.8608 28.2623H81.762L80.5588 23.1347H79.2137L81.0648 29.8542H82.4284L83.8106 24.9056H83.9155L85.3038 29.8542H86.6798L88.5247 23.1347Z" fill="black"/>
<path d="M90.0525 29.8542H91.3791V25.9237C91.3791 24.8748 92.0024 24.2207 92.9834 24.2207C93.9645 24.2207 94.4335 24.7575 94.4335 25.8373V29.8542H95.7601V25.5041C95.7601 23.906 94.9333 23.0052 93.4339 23.0052C92.4219 23.0052 91.7555 23.4556 91.4285 24.2022H91.3298V23.1347H90.0525V29.8542Z" fill="black"/>
<path d="M97.8494 29.8542H99.176V20.5123H97.8494V29.8542Z" fill="black"/>
<path d="M104.165 29.9838C106.128 29.9838 107.331 28.6695 107.331 26.4914C107.331 24.3256 106.121 23.0052 104.165 23.0052C102.203 23.0052 100.994 24.3256 100.994 26.4914C100.994 28.6695 102.197 29.9838 104.165 29.9838ZM104.165 28.8053C103.011 28.8053 102.364 27.9599 102.364 26.4914C102.364 25.0352 103.011 24.1837 104.165 24.1837C105.313 24.1837 105.967 25.0352 105.967 26.4914C105.967 27.9538 105.313 28.8053 104.165 28.8053Z" fill="black"/>
<path d="M111.283 28.8485C110.562 28.8485 110.037 28.4968 110.037 27.8921C110.037 27.2997 110.457 26.985 111.382 26.9233L113.024 26.8184V27.3799C113.024 28.2129 112.283 28.8485 111.283 28.8485ZM110.944 29.9653C111.826 29.9653 112.561 29.5827 112.962 28.9102H113.067V29.8542H114.344V25.2635C114.344 23.8443 113.394 23.0052 111.709 23.0052C110.185 23.0052 109.099 23.7456 108.963 24.8994H110.247C110.395 24.4243 110.907 24.1528 111.648 24.1528C112.555 24.1528 113.024 24.5539 113.024 25.2635V25.8435L111.203 25.9484C109.605 26.0471 108.704 26.7444 108.704 27.9538C108.704 29.1817 109.648 29.9653 110.944 29.9653Z" fill="black"/>
<path d="M118.846 29.9653C119.771 29.9653 120.555 29.5272 120.956 28.7929H121.061V29.8542H122.332V20.5123H121.005V24.2022H120.907C120.543 23.4618 119.765 23.0237 118.846 23.0237C117.149 23.0237 116.057 24.3688 116.057 26.4914C116.057 28.6202 117.137 29.9653 118.846 29.9653ZM119.222 24.2145C120.333 24.2145 121.03 25.0969 121.03 26.4976C121.03 27.9044 120.339 28.7744 119.222 28.7744C118.099 28.7744 117.427 27.9168 117.427 26.4914C117.427 25.0784 118.105 24.2145 119.222 24.2145Z" fill="black"/>
<path d="M130.935 29.9838C132.897 29.9838 134.1 28.6695 134.1 26.4914C134.1 24.3256 132.891 23.0052 130.935 23.0052C128.973 23.0052 127.763 24.3256 127.763 26.4914C127.763 28.6695 128.966 29.9838 130.935 29.9838ZM130.935 28.8053C129.781 28.8053 129.133 27.9599 129.133 26.4914C129.133 25.0352 129.781 24.1837 130.935 24.1837C132.082 24.1837 132.737 25.0352 132.737 26.4914C132.737 27.9538 132.082 28.8053 130.935 28.8053Z" fill="black"/>
<path d="M135.856 29.8542H137.183V25.9237C137.183 24.8748 137.806 24.2207 138.787 24.2207C139.768 24.2207 140.237 24.7575 140.237 25.8373V29.8542H141.564V25.5041C141.564 23.906 140.737 23.0052 139.238 23.0052C138.226 23.0052 137.559 23.4556 137.232 24.2022H137.134V23.1347H135.856V29.8542Z" fill="black"/>
<path d="M147.674 21.4626V23.1656H146.606V24.2824H147.674V28.0772C147.674 29.373 148.26 29.8913 149.735 29.8913C149.994 29.8913 150.241 29.8604 150.457 29.8234V28.7189C150.271 28.7374 150.154 28.7498 149.951 28.7498C149.29 28.7498 149 28.4412 149 27.7378V24.2824H150.457V23.1656H149V21.4626H147.674Z" fill="black"/>
<path d="M152.237 29.8542H153.564V25.9299C153.564 24.9118 154.169 24.2269 155.255 24.2269C156.193 24.2269 156.692 24.7699 156.692 25.8435V29.8542H158.019V25.5165C158.019 23.9184 157.137 23.0113 155.705 23.0113C154.693 23.0113 153.984 23.4618 153.657 24.2145H153.552V20.5123H152.237V29.8542Z" fill="black"/>
<path d="M162.805 24.1343C163.786 24.1343 164.427 24.8192 164.458 25.8744H161.065C161.139 24.8254 161.824 24.1343 162.805 24.1343ZM164.452 28.0402C164.205 28.5646 163.656 28.8546 162.854 28.8546C161.793 28.8546 161.108 28.108 161.065 26.9295V26.8555H165.81V26.3927C165.81 24.2824 164.68 23.0052 162.811 23.0052C160.917 23.0052 159.713 24.3688 159.713 26.5161C159.713 28.6634 160.892 29.9838 162.817 29.9838C164.353 29.9838 165.427 29.2434 165.729 28.0402H164.452Z" fill="black"/>
<path d="M46.8242 38.181C46.8564 35.6819 48.1986 33.3172 50.3277 32.0082C48.9845 30.0899 46.7348 28.8736 44.3941 28.8004C41.8976 28.5383 39.4773 30.2943 38.2051 30.2943C36.9083 30.2943 34.9496 28.8264 32.8404 28.8698C30.0911 28.9586 27.5281 30.5217 26.1906 32.9253C23.3153 37.9034 25.46 45.2195 28.2142 49.2434C29.5923 51.2137 31.2028 53.4147 33.3101 53.3367C35.3722 53.2511 36.1424 52.0217 38.6315 52.0217C41.0976 52.0217 41.8202 53.3367 43.9703 53.287C46.183 53.2511 47.5772 51.3079 48.9068 49.3188C49.8969 47.9149 50.6588 46.3632 51.1643 44.7212C48.5638 43.6214 46.8273 41.0045 46.8242 38.181Z" fill="black"/>
<path d="M42.7631 26.1541C43.9696 24.7057 44.564 22.8441 44.42 20.9646C42.5768 21.1582 40.8742 22.0392 39.6514 23.4319C38.4556 24.7927 37.8334 26.6216 37.951 28.4293C39.7949 28.4483 41.6076 27.5912 42.7631 26.1541Z" fill="black"/>
<path d="M16.4243 66.6755L16.9932 65.302L16.4243 66.6755ZM187.611 61.0434L188.984 61.6123L187.611 61.0434ZM181.979 66.6755L181.41 65.302L181.979 66.6755ZM181.979 8.79217L181.41 10.1657L181.979 8.79217ZM187.611 14.4243L186.237 14.9932L187.611 14.4243ZM16.4243 8.79217L15.8554 7.41865L16.4243 8.79217ZM10.7922 14.4243L9.41865 13.8554L10.7922 14.4243ZM25.6103 9.48669H172.793V6.51331H25.6103V9.48669ZM186.916 23.6103V51.8574H189.89V23.6103H186.916ZM172.793 65.981H25.6103V68.9544H172.793V65.981ZM11.4867 51.8574V23.6103H8.51331V51.8574H11.4867ZM25.6103 65.981C23.1654 65.981 21.4063 65.9802 20.0173 65.8854C18.6417 65.7916 17.7381 65.6105 16.9932 65.302L15.8554 68.049C17.023 68.5327 18.2879 68.7477 19.8149 68.8519C21.3286 68.9552 23.2061 68.9544 25.6103 68.9544V65.981ZM8.51331 51.8574C8.51331 54.2616 8.5125 56.1391 8.61578 57.6528C8.71996 59.1798 8.93502 60.4447 9.41865 61.6123L12.1657 60.4744C11.8572 59.7295 11.6761 58.826 11.5823 57.4504C11.4875 56.0614 11.4867 54.3022 11.4867 51.8574H8.51331ZM16.9932 65.302C14.8076 64.3966 13.071 62.6601 12.1657 60.4744L9.41865 61.6123C10.6258 64.5265 12.9411 66.8419 15.8554 68.049L16.9932 65.302ZM186.916 51.8574C186.916 54.3022 186.916 56.0614 186.821 57.4504C186.727 58.826 186.546 59.7295 186.237 60.4744L188.984 61.6123C189.468 60.4447 189.683 59.1798 189.787 57.6528C189.891 56.1391 189.89 54.2616 189.89 51.8574H186.916ZM172.793 68.9544C175.197 68.9544 177.074 68.9552 178.588 68.8519C180.115 68.7477 181.38 68.5327 182.548 68.049L181.41 65.302C180.665 65.6105 179.761 65.7916 178.386 65.8854C176.997 65.9802 175.238 65.981 172.793 65.981V68.9544ZM186.237 60.4744C185.332 62.6601 183.595 64.3966 181.41 65.302L182.548 68.049C185.462 66.8419 187.777 64.5265 188.984 61.6123L186.237 60.4744ZM172.793 9.48669C175.238 9.48669 176.997 9.4875 178.386 9.58227C179.761 9.67612 180.665 9.85715 181.41 10.1657L182.548 7.41865C181.38 6.93502 180.115 6.71996 178.588 6.61578C177.074 6.5125 175.197 6.51331 172.793 6.51331V9.48669ZM189.89 23.6103C189.89 21.2061 189.891 19.3285 189.787 17.8149C189.683 16.2879 189.468 15.023 188.984 13.8554L186.237 14.9932C186.546 15.7381 186.727 16.6417 186.821 18.0173C186.916 19.4063 186.916 21.1654 186.916 23.6103H189.89ZM181.41 10.1657C183.595 11.071 185.332 12.8076 186.237 14.9932L188.984 13.8554C187.777 10.9411 185.462 8.62577 182.548 7.41865L181.41 10.1657ZM25.6103 6.51331C23.2061 6.51331 21.3285 6.5125 19.8149 6.61578C18.2879 6.71996 17.023 6.93502 15.8554 7.41865L16.9932 10.1657C17.7381 9.85715 18.6417 9.67612 20.0173 9.58227C21.4063 9.4875 23.1654 9.48669 25.6103 9.48669V6.51331ZM11.4867 23.6103C11.4867 21.1654 11.4875 19.4063 11.5823 18.0173C11.6761 16.6417 11.8572 15.7381 12.1657 14.9932L9.41865 13.8554C8.93502 15.023 8.71996 16.2879 8.61578 17.8149C8.5125 19.3286 8.51331 21.2061 8.51331 23.6103H11.4867ZM15.8554 7.41865C12.9411 8.62577 10.6258 10.9411 9.41865 13.8554L12.1657 14.9932C13.071 12.8076 14.8076 11.071 16.9932 10.1657L15.8554 7.41865Z" fill="black"/>
</g>
<defs>
<filter id="filter0_d" x="0" y="0" width="198.403" height="79.4677" filterUnits="userSpaceOnUse" color-interpolation-filters="sRGB">
<feFlood flood-opacity="0" result="BackgroundImageFix"/>
<feColorMatrix in="SourceAlpha" type="matrix" values="0 0 0 0 0 0 0 0 0 0 0 0 0 0 0 0 0 0 127 0"/>
<feOffset dy="2"/>
<feGaussianBlur stdDeviation="5"/>
<feColorMatrix type="matrix" values="0 0 0 0 1 0 0 0 0 1 0 0 0 0 1 0 0 0 0.25 0"/>
<feBlend mode="normal" in2="BackgroundImageFix" result="effect1_dropShadow"/>
<feBlend mode="normal" in="SourceGraphic" in2="effect1_dropShadow" result="shape"/>
</filter>
</defs>
</svg>
