<svg width="68" height="68" viewBox="0 0 68 68" fill="none" xmlns="http://www.w3.org/2000/svg">
<g filter="url(#filter0_d)">
<circle cx="28" cy="27" r="21" stroke="#FF7A00" stroke-width="2"/>
<path d="M22.5064 27.3146C22.5091 27.4947 22.5823 27.6666 22.7095 27.7939L29.6429 34.7273C29.8162 34.9087 30.0749 34.9819 30.3186 34.9182C30.561 34.8546 30.7506 34.665 30.8142 34.4226C30.8779 34.1788 30.8048 33.9202 30.6233 33.7469L24.1802 27.3037L30.6233 20.8606C30.8048 20.6873 30.8779 20.4286 30.8142 20.1849C30.7506 19.9425 30.561 19.7529 30.3186 19.6893C30.0749 19.6256 29.8162 19.6987 29.6429 19.8802L22.7095 26.8135C22.5768 26.9462 22.5037 27.1263 22.5064 27.3146Z" fill="#FF7A00"/>
</g>
<defs>
<filter id="filter0_d" x="0" y="0" width="68" height="68" filterUnits="userSpaceOnUse" color-interpolation-filters="sRGB">
<feFlood flood-opacity="0" result="BackgroundImageFix"/>
<feColorMatrix in="SourceAlpha" type="matrix" values="0 0 0 0 0 0 0 0 0 0 0 0 0 0 0 0 0 0 127 0"/>
<feOffset dx="6" dy="7"/>
<feGaussianBlur stdDeviation="6"/>
<feColorMatrix type="matrix" values="0 0 0 0 0 0 0 0 0 0 0 0 0 0 0 0 0 0 0.25 0"/>
<feBlend mode="normal" in2="BackgroundImageFix" result="effect1_dropShadow"/>
<feBlend mode="normal" in="SourceGraphic" in2="effect1_dropShadow" result="shape"/>
</filter>
</defs>
</svg>
