<svg width="68" height="68" viewBox="0 0 68 68" fill="none" xmlns="http://www.w3.org/2000/svg">
<g filter="url(#filter0_d)">
<circle cx="28" cy="27" r="21" transform="rotate(-180 28 27)" stroke="#FF7A00" stroke-width="2"/>
<path d="M33.4931 26.6854C33.4904 26.5053 33.4173 26.3334 33.29 26.2061L26.3566 19.2727C26.1833 19.0913 25.9247 19.0181 25.6809 19.0818C25.4385 19.1454 25.2489 19.335 25.1853 19.5774C25.1216 19.8212 25.1948 20.0798 25.3762 20.2531L31.8193 26.6963L25.3762 33.1394C25.1948 33.3127 25.1216 33.5714 25.1853 33.8151C25.2489 34.0575 25.4385 34.2471 25.6809 34.3107C25.9247 34.3744 26.1833 34.3013 26.3566 34.1198L33.29 27.1865C33.4227 27.0538 33.4958 26.8737 33.4931 26.6854Z" fill="#FF7A00"/>
</g>
<defs>
<filter id="filter0_d" x="0" y="0" width="68" height="68" filterUnits="userSpaceOnUse" color-interpolation-filters="sRGB">
<feFlood flood-opacity="0" result="BackgroundImageFix"/>
<feColorMatrix in="SourceAlpha" type="matrix" values="0 0 0 0 0 0 0 0 0 0 0 0 0 0 0 0 0 0 127 0"/>
<feOffset dx="6" dy="7"/>
<feGaussianBlur stdDeviation="6"/>
<feColorMatrix type="matrix" values="0 0 0 0 0 0 0 0 0 0 0 0 0 0 0 0 0 0 0.25 0"/>
<feBlend mode="normal" in2="BackgroundImageFix" result="effect1_dropShadow"/>
<feBlend mode="normal" in="SourceGraphic" in2="effect1_dropShadow" result="shape"/>
</filter>
</defs>
</svg>
