<svg width="22" height="23" viewBox="0 0 22 23" fill="none" xmlns="http://www.w3.org/2000/svg">
<path d="M11.0084 0.000456145C12.9876 0.000456145 14.9668 0.000456145 16.9459 0.000456145C17.6455 -0.00972852 18.3373 0.150772 18.9631 0.468459C19.5889 0.786147 20.1304 1.25174 20.5421 1.82609C21.2005 2.68511 21.5976 3.72056 21.6847 4.80541C21.6847 5.1287 21.7284 5.43931 21.7284 5.78162C21.7284 9.4202 21.7284 13.0609 21.7284 16.7037C21.7519 17.7564 21.4743 18.7935 20.9292 19.6894C20.2746 20.7785 19.2256 21.5637 18.0073 21.8763C17.5443 21.996 17.0678 22.0535 16.59 22.0475H5.68284C4.86448 22.0673 4.04841 21.9516 3.26665 21.7052C2.5032 21.4879 1.81439 21.0591 1.27738 20.4669C0.740373 19.8746 0.376362 19.1423 0.226114 18.3518C0.125164 17.8531 0.0708121 17.3459 0.0637842 16.8368C0.0637842 13.1475 0.0637842 9.45189 0.0637842 5.7626C0.0343773 4.62321 0.292274 3.49509 0.812992 2.48534C1.29815 1.54491 2.09063 0.805299 3.05437 0.393475C3.69959 0.125067 4.39265 -0.00444567 5.08971 0.0131344L11.0084 0.000456145ZM15.9033 7.95589C16.2905 8.73363 16.5037 9.58865 16.5276 10.4598C16.5254 11.3162 16.3334 12.1612 15.9657 12.932C15.6112 13.7083 15.0857 14.3914 14.4298 14.9288C13.5631 15.6446 12.5047 16.0798 11.3916 16.1782C10.2785 16.2765 9.16194 16.0334 8.18644 15.4803C7.12413 14.8859 6.28714 13.9491 5.80771 12.8179C5.46858 12.0484 5.30165 11.2121 5.31892 10.3692C5.33619 9.52629 5.53724 8.69777 5.9076 7.94321H5.73279H0.738072C0.581987 7.94321 0.550768 8.00026 0.550768 8.14606C0.550768 11.0493 0.550768 13.9526 0.550768 16.8558C0.545028 17.4352 0.625003 18.0121 0.788018 18.5674C0.949476 19.1597 1.24701 19.7046 1.65617 20.1575C2.06534 20.6104 2.57448 20.9583 3.14178 21.1727C3.94231 21.4637 4.78912 21.6013 5.63913 21.5784H16.5651C16.8574 21.5817 17.1496 21.5626 17.4391 21.5213C18.0055 21.4458 18.551 21.2553 19.0433 20.9613C19.5357 20.6673 19.9647 20.2757 20.3049 19.8098C20.961 18.94 21.3046 17.8687 21.2788 16.7734C21.2788 13.9082 21.2788 11.0451 21.2788 8.1841C21.2788 7.99393 21.2226 7.96223 21.0541 7.96223H15.9033V7.95589ZM2.89828 0.983002L2.7859 1.02103C2.3668 1.26641 1.99459 1.58634 1.68707 1.96554C0.961342 2.89209 0.553575 4.03397 0.525796 5.21745C0.488336 5.92108 0.525796 6.63104 0.525796 7.34101C0.525796 7.46145 0.563257 7.49948 0.681881 7.49948H6.03871C6.1133 7.49093 6.18218 7.45483 6.23226 7.39806C6.43829 7.15084 6.61935 6.87192 6.8566 6.63738C7.43422 6.0156 8.14207 5.53354 8.92783 5.22681C9.7136 4.92009 10.5572 4.79655 11.3963 4.86531C12.2354 4.93408 13.0486 5.1934 13.7757 5.6241C14.5029 6.05481 15.1254 6.64589 15.5973 7.35369C15.6267 7.40647 15.6709 7.44915 15.7243 7.47625C15.7777 7.50336 15.8378 7.51365 15.897 7.50582H21.1415C21.2414 7.50582 21.3413 7.50582 21.3413 7.36637C21.3413 6.49792 21.3413 5.62314 21.2726 4.76104C21.205 3.77851 20.8384 2.84155 20.2237 2.07965C19.8515 1.56848 19.3644 1.15507 18.8029 0.873883C18.2414 0.592698 17.6218 0.451892 16.9959 0.463205C13.4184 0.463205 9.84718 0.463205 6.26972 0.463205C6.01998 0.463205 6.01998 0.463203 6.01998 0.716763V5.85769C6.0293 5.94977 6.01865 6.04281 5.98876 6.13026C5.96589 6.1668 5.93575 6.19808 5.90027 6.2221C5.86479 6.24612 5.82475 6.26234 5.78273 6.26972C5.74248 6.25775 5.70508 6.23751 5.67286 6.21024C5.64064 6.18298 5.61428 6.14929 5.59543 6.11125C5.57613 6.03215 5.57613 5.94946 5.59543 5.87036C5.59543 4.16517 5.59543 2.45999 5.59543 0.754798C5.59543 0.697747 5.59543 0.647035 5.59543 0.596323C5.59543 0.545611 5.55797 0.456864 5.46432 0.456864H4.98358C4.74633 0.456864 4.74633 0.456865 4.74633 0.697747V5.90206C4.74633 6.16196 4.67765 6.26972 4.52157 6.26972C4.36548 6.26972 4.29056 6.16196 4.29056 5.90206V0.513915C4.05956 0.570966 3.85977 0.628018 3.66622 0.666052C3.47268 0.704086 3.43522 0.805509 3.44146 0.98934C3.44146 2.61846 3.44146 4.24124 3.44146 5.86402C3.46076 5.94312 3.46076 6.02581 3.44146 6.10491C3.40141 6.1816 3.33462 6.24037 3.25416 6.26972C3.23028 6.27739 3.20503 6.27955 3.18022 6.27607C3.15542 6.27258 3.13169 6.26353 3.11076 6.24956C3.08984 6.2356 3.07223 6.21708 3.05924 6.19535C3.04625 6.17361 3.03819 6.14921 3.03564 6.12392C3.02966 6.0374 3.02966 5.95055 3.03564 5.86402V1.23656C2.91077 1.16049 2.90453 1.08443 2.89828 0.983002ZM10.9023 5.32521C9.88156 5.32145 8.88266 5.62533 8.03213 6.19838C7.1816 6.77142 6.51769 7.58786 6.12449 8.54427C5.7313 9.50069 5.62649 10.5541 5.82336 11.571C6.02023 12.5879 6.5099 13.5227 7.23038 14.2569C7.95085 14.991 8.86971 15.4916 9.87059 15.6952C10.8715 15.8988 11.9093 15.7962 12.8527 15.4004C13.7962 15.0047 14.6027 14.3336 15.1702 13.4722C15.7377 12.6107 16.0406 11.5976 16.0406 10.5612C16.0406 9.17583 15.4999 7.8469 14.5368 6.86551C13.5737 5.88411 12.2668 5.33024 10.9023 5.32521Z" fill="white"/>
<path d="M18.7883 4.05724C18.7883 4.29812 18.7883 4.53901 18.7883 4.77355C18.7887 5.0783 18.6734 5.37147 18.4665 5.59221C18.2595 5.81294 17.9768 5.94428 17.677 5.95894C17.1427 5.99387 16.6068 5.99387 16.0725 5.95894C15.9208 5.95484 15.7714 5.92042 15.6328 5.85766C15.4942 5.7949 15.3691 5.70502 15.2648 5.59317C15.1604 5.48132 15.0788 5.34969 15.0245 5.20579C14.9703 5.06189 14.9445 4.90855 14.9487 4.75453C14.9487 4.27277 14.9487 3.78467 14.9487 3.3029C14.9468 3.13792 14.9781 2.9743 15.0408 2.82206C15.1034 2.66983 15.1961 2.5322 15.313 2.41763C15.4299 2.30306 15.5687 2.21397 15.7208 2.15582C15.8729 2.09767 16.035 2.07169 16.1973 2.07947C16.6469 2.07947 17.0964 2.07947 17.5459 2.07947C17.7115 2.07326 17.8766 2.10179 18.0309 2.16331C18.1852 2.22482 18.3253 2.31798 18.4425 2.43697C18.5597 2.55596 18.6514 2.69822 18.712 2.85485C18.7726 3.01148 18.8007 3.17911 18.7946 3.34727C18.7946 3.57548 18.7946 3.80368 18.7946 4.03189L18.7883 4.05724ZM16.8779 2.56124H16.1536C16.0526 2.56032 15.9524 2.58018 15.8591 2.6196C15.7658 2.65902 15.6813 2.7172 15.6108 2.79063C15.5402 2.86406 15.485 2.95123 15.4485 3.04689C15.4119 3.14255 15.3948 3.24473 15.3982 3.34727C15.3982 3.81002 15.3982 4.27911 15.3982 4.74819C15.394 4.85072 15.4103 4.95306 15.446 5.04904C15.4818 5.14502 15.5363 5.23266 15.6063 5.30668C15.6763 5.38071 15.7603 5.43959 15.8533 5.47979C15.9463 5.51998 16.0463 5.54066 16.1474 5.54057C16.6281 5.54057 17.1089 5.54057 17.5959 5.54057C17.7907 5.53891 17.9772 5.45957 18.115 5.31965C18.2528 5.17973 18.3309 4.99044 18.3326 4.79257C18.3326 4.29812 18.3326 3.79734 18.3326 3.3029C18.3263 3.10883 18.2471 2.92456 18.1113 2.78784C17.9755 2.65113 17.7933 2.57233 17.6021 2.56758C17.3586 2.5549 17.1089 2.56124 16.8779 2.56124Z" fill="white"/>
<path d="M10.9014 14.1994C10.1862 14.2007 9.48669 13.9865 8.8914 13.584C8.29611 13.1814 7.8318 12.6087 7.55724 11.9381C7.28268 11.2676 7.2102 10.5294 7.34898 9.81702C7.48775 9.10464 7.83155 8.45007 8.33685 7.93613C8.84216 7.4222 9.48627 7.07201 10.1877 6.92988C10.8891 6.78774 11.6162 6.86006 12.2771 7.13766C12.938 7.41527 13.503 7.8857 13.9005 8.48941C14.298 9.09312 14.5101 9.80298 14.5101 10.5292C14.5109 11.0109 14.4182 11.488 14.2372 11.9332C14.0562 12.3785 13.7906 12.7832 13.4554 13.1241C13.1202 13.465 12.7221 13.7354 12.2839 13.9199C11.8456 14.1045 11.3759 14.1994 10.9014 14.1994ZM10.9014 13.7494C11.528 13.7581 12.1429 13.5779 12.6685 13.2315C13.194 12.8851 13.6065 12.3882 13.8537 11.8036C14.1009 11.2191 14.1716 10.5732 14.057 9.94773C13.9423 9.32231 13.6474 8.7455 13.2097 8.29036C12.7719 7.83522 12.2109 7.52223 11.5978 7.39103C10.9847 7.25983 10.3471 7.31632 9.76561 7.55334C9.18416 7.79036 8.68506 8.19726 8.33155 8.7225C7.97803 9.24773 7.78599 9.86767 7.77975 10.5038C7.77457 11.3487 8.09604 12.162 8.67509 12.7689C9.25413 13.3758 10.0445 13.7278 10.8765 13.7494H10.9014Z" fill="white"/>
</svg>
