<svg width="65" height="68" viewBox="0 0 65 68" fill="none" xmlns="http://www.w3.org/2000/svg">
<path d="M7.37418 12.6004C6.76973 13.3168 6.34114 14.1813 6.1728 15.0976L0.989741 44.0223C0.656109 45.8912 1.37025 47.8346 2.82269 49.06L23.1939 66.2477C24.6659 67.4897 26.6821 67.85 28.4682 67.2065L35.7206 64.5843C39.024 63.138 39.7664 62.2547 40.7103 61.136C43.8071 57.4656 43.3605 53.4955 39.5135 50.2497L18.4945 32.5155C18.1804 32.2505 17.7096 32.2869 17.4446 32.6009L15.3746 35.0544C15.0931 35.388 15.1498 35.8425 15.4638 36.1075L36.4637 53.8255C38.1909 55.2828 38.3733 58.4906 34.5061 60.1669L26.9185 62.9065C26.6547 63.02 26.3401 62.9567 26.1242 62.7745L5.77222 45.6031C5.53669 45.4044 5.43758 45.1186 5.48542 44.823L10.6723 15.9015C10.7036 15.6255 10.9032 15.3889 11.1866 15.292L38.8224 5.31116C39.1058 5.21425 39.4046 5.26424 39.6205 5.4464L59.9917 22.634C60.2075 22.8162 60.3225 23.1161 60.2716 23.3755L55.0916 52.3356C55.0407 52.595 54.8245 52.8513 54.5773 52.9451L47.3899 55.4515C47.1758 55.506 46.9944 55.6832 46.9569 55.8868C46.5663 57.9427 46.4485 58.2802 45.807 59.9565C45.6402 60.3533 45.4216 61.0094 46.7991 60.4917L56.127 57.2451C57.0103 56.9151 57.803 56.371 58.3992 55.6644C59.0119 54.9382 59.4112 54.0694 59.5878 53.1433L64.7711 24.1794C65.1048 22.3105 64.4103 20.3837 62.9382 19.1417L42.5862 1.97026C41.1141 0.728248 39.0979 0.367955 37.3118 1.01139L9.6336 10.9958C8.75867 11.316 7.97862 11.884 7.37418 12.6004ZM27.5026 20.6255C22.8161 26.18 22.372 31.4821 26.2975 34.7941C30.5566 38.3877 34.512 36.0854 39.5463 31.1938C45.5564 25.3448 46.9153 25.6513 48.1714 26.7112C50.3304 28.5328 49.7822 31.0556 46.3211 35.1577C41.9658 40.3197 39.7074 40.3644 36.8412 38.5845C36.5333 38.3919 36.139 38.4601 35.9071 38.7348L33.7692 41.2688C33.5042 41.5828 33.5643 42.0343 33.8587 42.2827C37.1365 45.0483 42.5458 46.5547 49.7329 38.0363C54.9328 31.8733 55.482 26.2906 51.2424 22.7136C47.0421 19.1697 43.5196 21.0704 37.6806 26.3582C31.7784 31.7607 30.8521 32.022 29.4389 30.8297C28.2613 29.8361 27.1617 27.9986 30.9374 23.5235C34.2991 19.5391 36.4179 18.7745 39.6202 20.4348C39.9251 20.5912 40.3033 20.543 40.5351 20.2683L42.6731 17.7343C42.8055 17.5773 42.842 17.3763 42.8236 17.1592C42.8083 16.9782 42.7001 16.7851 42.5069 16.6557C37.5436 13.14 32.7687 14.3839 27.5026 20.6255Z" fill="white"/>
</svg>
