<svg width="67" height="68" viewBox="0 0 67 68" fill="none" xmlns="http://www.w3.org/2000/svg">
<mask id="path-1-inside-1" fill="white">
<path d="M13.6307 0.510366C13.2858 0.432544 12.924 0.494919 12.6251 0.683773C12.3261 0.872626 12.1144 1.17249 12.0365 1.51742L6.45873 26.2293L0.293808 53.5424C0.293227 53.5449 0.292654 53.5474 0.292088 53.55C0.287531 53.5748 0.28368 53.5997 0.28054 53.6248C0.276928 53.6463 0.273843 53.6678 0.271287 53.6894C0.270955 53.6947 0.270656 53.7 0.270387 53.7053C0.265692 53.7454 0.262825 53.7857 0.261793 53.8261C0.261483 53.8638 0.26277 53.9015 0.265655 53.9391C0.267902 53.9621 0.270747 53.985 0.274183 54.0078C0.277735 54.0356 0.282165 54.0633 0.287465 54.0909C0.295953 54.132 0.306375 54.1726 0.318696 54.2127C0.325338 54.2359 0.332609 54.2589 0.340499 54.2817C0.346015 54.2992 0.351891 54.3165 0.358122 54.3337C0.369256 54.36 0.381228 54.3858 0.394019 54.4113C0.401032 54.4264 0.408327 54.4414 0.415902 54.4562C0.42857 54.4801 0.441963 54.5036 0.45606 54.5267C0.464124 54.5412 0.472458 54.5555 0.481056 54.5697C0.502937 54.6018 0.526206 54.6329 0.550798 54.6629C0.552752 54.666 0.554719 54.6691 0.556699 54.6722C0.580948 54.7022 0.606486 54.7311 0.633241 54.7589C0.638166 54.7645 0.643138 54.7701 0.648156 54.7756C0.651797 54.7792 0.655457 54.7827 0.659138 54.7861C0.686226 54.8124 0.714415 54.8374 0.743627 54.8613C0.778042 54.8898 0.813871 54.9166 0.85098 54.9416C0.874631 54.9576 0.89879 54.9728 0.923421 54.9873C0.940694 54.9969 0.95818 55.0062 0.975867 55.0151C0.978212 55.0166 0.980561 55.018 0.982915 55.0194C1.01609 55.0365 1.04996 55.0521 1.08445 55.0663C1.10964 55.0764 1.13514 55.0857 1.1609 55.0943C1.18382 55.1028 1.20696 55.1107 1.23031 55.1179C1.23876 55.1199 1.24723 55.1219 1.25571 55.1237C1.27069 55.1282 1.28574 55.1325 1.30086 55.1365C1.31352 55.1396 1.32622 55.1425 1.33897 55.1451L53.3258 66.8792C53.583 66.9372 53.8516 66.9176 54.0977 66.8229C54.3437 66.7283 54.5562 66.5628 54.7083 66.3474C54.8603 66.132 54.9451 65.8764 54.9519 65.6128C54.9587 65.3492 54.8872 65.0896 54.7465 64.8666L35.3174 34.1099L66.0741 14.6808C66.2969 14.54 66.473 14.3362 66.5801 14.0952C66.6872 13.8543 66.7204 13.587 66.6756 13.3272C66.6308 13.0674 66.51 12.8267 66.3285 12.6355C66.1469 12.4443 65.9128 12.3112 65.6556 12.2531L38.3425 6.08815L13.6307 0.510366ZM14.3442 3.40518L34.6156 7.98071L9.76867 23.6766L14.3442 3.40518ZM38.2939 8.81095L61.9287 14.1456L32.7662 32.5677L3.60374 50.9897L8.93842 27.3549L38.2939 8.81095ZM33.0631 35.534L50.7731 63.5693L5.02778 53.244L33.0631 35.534Z"/>
</mask>
<path d="M13.6307 0.510366C13.2858 0.432544 12.924 0.494919 12.6251 0.683773C12.3261 0.872626 12.1144 1.17249 12.0365 1.51742L6.45873 26.2293L0.293808 53.5424C0.293227 53.5449 0.292654 53.5474 0.292088 53.55C0.287531 53.5748 0.28368 53.5997 0.28054 53.6248C0.276928 53.6463 0.273843 53.6678 0.271287 53.6894C0.270955 53.6947 0.270656 53.7 0.270387 53.7053C0.265692 53.7454 0.262825 53.7857 0.261793 53.8261C0.261483 53.8638 0.26277 53.9015 0.265655 53.9391C0.267902 53.9621 0.270747 53.985 0.274183 54.0078C0.277735 54.0356 0.282165 54.0633 0.287465 54.0909C0.295953 54.132 0.306375 54.1726 0.318696 54.2127C0.325338 54.2359 0.332609 54.2589 0.340499 54.2817C0.346015 54.2992 0.351891 54.3165 0.358122 54.3337C0.369256 54.36 0.381228 54.3858 0.394019 54.4113C0.401032 54.4264 0.408327 54.4414 0.415902 54.4562C0.42857 54.4801 0.441963 54.5036 0.45606 54.5267C0.464124 54.5412 0.472458 54.5555 0.481056 54.5697C0.502937 54.6018 0.526206 54.6329 0.550798 54.6629C0.552752 54.666 0.554719 54.6691 0.556699 54.6722C0.580948 54.7022 0.606486 54.7311 0.633241 54.7589C0.638166 54.7645 0.643138 54.7701 0.648156 54.7756C0.651797 54.7792 0.655457 54.7827 0.659138 54.7861C0.686226 54.8124 0.714415 54.8374 0.743627 54.8613C0.778042 54.8898 0.813871 54.9166 0.85098 54.9416C0.874631 54.9576 0.89879 54.9728 0.923421 54.9873C0.940694 54.9969 0.95818 55.0062 0.975867 55.0151C0.978212 55.0166 0.980561 55.018 0.982915 55.0194C1.01609 55.0365 1.04996 55.0521 1.08445 55.0663C1.10964 55.0764 1.13514 55.0857 1.1609 55.0943C1.18382 55.1028 1.20696 55.1107 1.23031 55.1179C1.23876 55.1199 1.24723 55.1219 1.25571 55.1237C1.27069 55.1282 1.28574 55.1325 1.30086 55.1365C1.31352 55.1396 1.32622 55.1425 1.33897 55.1451L53.3258 66.8792C53.583 66.9372 53.8516 66.9176 54.0977 66.8229C54.3437 66.7283 54.5562 66.5628 54.7083 66.3474C54.8603 66.132 54.9451 65.8764 54.9519 65.6128C54.9587 65.3492 54.8872 65.0896 54.7465 64.8666L35.3174 34.1099L66.0741 14.6808C66.2969 14.54 66.473 14.3362 66.5801 14.0952C66.6872 13.8543 66.7204 13.587 66.6756 13.3272C66.6308 13.0674 66.51 12.8267 66.3285 12.6355C66.1469 12.4443 65.9128 12.3112 65.6556 12.2531L38.3425 6.08815L13.6307 0.510366ZM14.3442 3.40518L34.6156 7.98071L9.76867 23.6766L14.3442 3.40518ZM38.2939 8.81095L61.9287 14.1456L32.7662 32.5677L3.60374 50.9897L8.93842 27.3549L38.2939 8.81095ZM33.0631 35.534L50.7731 63.5693L5.02778 53.244L33.0631 35.534Z" fill="white"/>
<path d="M13.6307 0.510366L61.1264 -209.915L61.1159 -209.917L61.1053 -209.919L13.6307 0.510366ZM12.0365 1.51742L-198.384 -45.9993L-198.386 -45.9888L-198.388 -45.9783L12.0365 1.51742ZM0.293808 53.5424L210.579 101.654L210.649 101.346L210.719 101.038L0.293808 53.5424ZM0.292088 53.55L-210.271 6.67088L-211.151 10.6233L-211.882 14.606L0.292088 53.55ZM0.28054 53.6248L213.01 89.4089L213.76 84.9511L214.323 80.4658L0.28054 53.6248ZM0.271287 53.6894L-213.956 28.3644L-214.651 34.2443L-215.022 40.1534L0.271287 53.6894ZM0.270387 53.7053L214.529 78.7643L215.35 71.7429L215.709 64.6828L0.270387 53.7053ZM0.261793 53.8261L-215.386 48.3199L-215.434 50.1831L-215.449 52.0469L0.261793 53.8261ZM0.265655 53.9391L-214.821 70.4398L-214.647 72.7035L-214.426 74.963L0.265655 53.9391ZM0.274183 54.0078L214.257 26.6946L213.949 24.2813L213.586 21.8755L0.274183 54.0078ZM0.287465 54.0909L-211.546 94.8456L-211.268 96.293L-210.97 97.7365L0.287465 54.0909ZM0.318696 54.2127L207.699 -5.18415L207.13 -7.16974L206.523 -9.14408L0.318696 54.2127ZM0.340499 54.2817L206.041 -10.6946L205.155 -13.4981L204.194 -16.2764L0.340499 54.2817ZM0.358122 54.3337L-202.491 127.727L-200.491 133.256L-198.192 138.668L0.358122 54.3337ZM0.394019 54.4113L196.115 -36.2966L194.675 -39.4034L193.137 -42.4629L0.394019 54.4113ZM0.415902 54.4562L-191.765 152.441L-190.977 153.986L-190.165 155.517L0.415902 54.4562ZM0.45606 54.5267L188.963 -50.3533L186.829 -54.1884L184.541 -57.9336L0.45606 54.5267ZM0.481056 54.5697L-183.982 166.409L-180.966 171.383L-177.687 176.187L0.481056 54.5697ZM0.550798 54.6629L183.401 -59.7937L176.125 -71.4169L167.436 -82.0253L0.550798 54.6629ZM0.556699 54.6722L-181.339 170.64L-174.816 180.871L-167.188 190.305L0.556699 54.6722ZM0.633241 54.7589L162.793 -87.5042L159.48 -91.2802L155.995 -94.898L0.633241 54.7589ZM0.648156 54.7756L-159.099 199.743L-154.329 204.999L-149.223 209.93L0.648156 54.7756ZM0.659138 54.7861L150.715 -100.191L149.74 -101.134L148.754 -102.065L0.659138 54.7861ZM0.743627 54.8613L138.469 -111.17L137.802 -111.723L137.131 -112.27L0.743627 54.8613ZM0.85098 54.9416L121.779 -123.694L121.495 -123.887L121.21 -124.079L0.85098 54.9416ZM0.923421 54.9873L-108.286 241.019L-106.396 242.129L-104.483 243.2L0.923421 54.9873ZM0.975867 55.0151L113.142 -129.249L105.691 -133.784L97.8983 -137.704L0.975867 55.0151ZM0.982915 55.0194L-110.043 239.973L-103.975 243.615L-97.6811 246.852L0.982915 55.0194ZM1.08445 55.0663L-81.1547 254.494L-80.1297 254.916L-79.1003 255.328L1.08445 55.0663ZM1.1609 55.0943L76.3899 -147.082L72.7074 -148.452L68.9774 -149.687L1.1609 55.0943ZM1.23031 55.1179L-62.7705 261.124L-55.6127 263.348L-48.3178 265.069L1.23031 55.1179ZM1.25571 55.1237L63.9928 -151.271L55.4365 -153.871L46.6944 -155.755L1.25571 55.1237ZM1.30086 55.1365L-54.132 263.611L-51.709 264.255L-49.2718 264.843L1.30086 55.1365ZM1.33897 55.1451L48.8346 -155.28L47.2935 -155.628L45.7475 -155.953L1.33897 55.1451ZM53.3258 66.8792L5.83011 277.304L5.87144 277.314L5.91277 277.323L53.3258 66.8792ZM54.7465 64.8666L237.164 -50.2782L237.144 -50.31L237.124 -50.3418L54.7465 64.8666ZM35.3174 34.1099L-79.891 -148.267L-262.268 -33.0591L-147.06 149.318L35.3174 34.1099ZM66.0741 14.6808L181.282 197.058L181.314 197.038L181.346 197.018L66.0741 14.6808ZM65.6556 12.2531L113.234 -198.153L113.193 -198.163L113.151 -198.172L65.6556 12.2531ZM14.3442 3.40518L61.8399 -207.02L-148.585 -254.515L-196.081 -44.0905L14.3442 3.40518ZM34.6156 7.98071L149.824 190.358L590.122 -87.7796L82.1113 -202.444L34.6156 7.98071ZM9.76867 23.6766L-200.656 -23.8191L-315.321 484.192L124.977 206.054L9.76867 23.6766ZM38.2939 8.81095L85.7896 -201.614L-1.37126 -221.287L-76.9145 -173.566L38.2939 8.81095ZM61.9287 14.1456L177.137 196.523L617.435 -81.6146L109.424 -196.279L61.9287 14.1456ZM32.7662 32.5677L-82.4422 -149.81L32.7662 32.5677ZM3.60374 50.9897L-206.821 3.49403L-321.486 511.505L118.812 233.367L3.60374 50.9897ZM8.93842 27.3549L-106.27 -155.022L-181.813 -107.302L-201.487 -20.1407L8.93842 27.3549ZM33.0631 35.534L215.441 -79.6744L100.232 -262.052L-82.1453 -146.843L33.0631 35.534ZM50.7731 63.5693L3.27746 273.994L511.288 388.659L233.151 -51.6391L50.7731 63.5693ZM5.02778 53.244L-110.181 -129.133L-550.479 149.004L-42.4679 263.669L5.02778 53.244ZM61.1053 -209.919C4.95826 -222.587 -53.9212 -212.434 -102.583 -181.694L127.833 183.061C79.7693 213.424 21.6133 223.452 -33.8439 210.94L61.1053 -209.919ZM-102.583 -181.694C-151.245 -150.954 -185.705 -102.144 -198.384 -45.9993L222.457 49.0341C209.934 104.489 175.898 152.699 127.833 183.061L-102.583 -181.694ZM-198.388 -45.9783L-203.966 -21.2664L216.884 73.7249L222.461 49.0131L-198.388 -45.9783ZM-203.966 -21.2664L-210.131 6.04668L210.719 101.038L216.884 73.7249L-203.966 -21.2664ZM-209.991 5.4305C-210.086 5.84369 -210.179 6.25715 -210.271 6.67088L210.855 100.429C210.764 100.838 210.672 101.246 210.579 101.654L-209.991 5.4305ZM-211.882 14.606C-212.624 18.6472 -213.251 22.7081 -213.762 26.7838L214.323 80.4658C213.818 84.4913 213.199 88.5024 212.466 92.4939L-211.882 14.606ZM-212.449 17.8406C-213.037 21.3352 -213.539 24.8442 -213.956 28.3644L214.498 79.0145C214.087 82.4915 213.591 85.9573 213.01 89.4089L-212.449 17.8406ZM-215.022 40.1534C-215.076 41.0136 -215.125 41.8717 -215.169 42.7277L215.709 64.6828C215.666 65.5282 215.618 66.3758 215.565 67.2254L-215.022 40.1534ZM-213.988 28.6462C-214.752 35.1796 -215.219 41.7443 -215.386 48.3199L215.91 59.3323C215.744 65.8272 215.283 72.3112 214.529 78.7643L-213.988 28.6462ZM-215.449 52.0469C-215.5 58.1836 -215.29 64.3201 -214.821 70.4398L215.352 37.4384C215.816 43.483 216.023 49.5441 215.973 55.6054L-215.449 52.0469ZM-214.426 74.963C-214.06 78.6999 -213.597 82.4268 -213.038 86.1401L213.586 21.8755C214.139 25.5431 214.596 29.2242 214.957 32.9152L-214.426 74.963ZM-213.708 81.321C-213.13 85.8515 -212.409 90.3619 -211.546 94.8456L212.121 13.3362C212.973 17.7648 213.685 22.2198 214.257 26.6946L-213.708 81.321ZM-210.97 97.7365C-209.588 104.423 -207.892 111.042 -205.886 117.57L206.523 -9.14408C208.505 -2.69637 210.18 3.84069 211.545 10.4453L-210.97 97.7365ZM-207.061 113.61C-205.98 117.384 -204.797 121.129 -203.513 124.84L204.194 -16.2764C205.462 -12.6111 206.631 -8.91227 207.699 -5.18415L-207.061 113.61ZM-205.36 119.258C-204.462 122.099 -203.506 124.923 -202.491 127.727L203.208 -19.0598C204.21 -16.2897 205.154 -13.5007 206.041 -10.6946L-205.36 119.258ZM-198.192 138.668C-196.379 142.938 -194.43 147.146 -192.349 151.285L193.137 -42.4629C195.192 -38.3742 197.117 -34.2181 198.908 -30.0006L-198.192 138.668ZM-195.327 145.119C-194.185 147.583 -192.997 150.024 -191.765 152.441L192.597 -43.5289C193.814 -41.1412 194.987 -38.73 196.115 -36.2966L-195.327 145.119ZM-190.165 155.517C-188.105 159.402 -185.925 163.227 -183.629 166.987L184.541 -57.9336C186.809 -54.2201 188.962 -50.442 190.997 -46.6046L-190.165 155.517ZM-188.05 159.407C-186.737 161.768 -185.38 164.102 -183.982 166.409L184.944 -57.2694C186.325 -54.9911 187.665 -52.6853 188.963 -50.3533L-188.05 159.407ZM-177.687 176.187C-174.125 181.405 -170.337 186.465 -166.335 191.351L167.436 -82.0253C171.389 -77.1992 175.13 -72.2018 178.649 -67.0473L-177.687 176.187ZM-182.299 169.119C-181.987 169.618 -181.667 170.125 -181.339 170.64L182.452 -61.2953C182.777 -60.7868 183.093 -60.2861 183.401 -59.7937L-182.299 169.119ZM-167.188 190.305C-163.241 195.186 -159.085 199.894 -154.729 204.416L155.995 -94.898C160.298 -90.4315 164.403 -85.7814 168.301 -80.961L-167.188 190.305ZM-161.526 197.022C-160.719 197.942 -159.909 198.849 -159.099 199.743L160.395 -90.1915C161.196 -89.3091 161.995 -88.4134 162.793 -87.5042L-161.526 197.022ZM-149.223 209.93C-148.639 210.495 -148.043 211.064 -147.436 211.637L148.754 -102.065C149.354 -101.499 149.943 -100.936 150.52 -100.379L-149.223 209.93ZM-149.396 209.763C-144.986 214.033 -140.398 218.113 -135.644 221.993L137.131 -112.27C141.827 -108.439 146.359 -104.409 150.715 -100.191L-149.396 209.763ZM-136.982 220.892C-131.379 225.54 -125.547 229.902 -119.508 233.962L121.21 -124.079C127.174 -120.069 132.935 -115.76 138.469 -111.17L-136.982 220.892ZM-120.078 233.577C-116.23 236.182 -112.297 238.664 -108.286 241.019L110.133 -131.044C114.095 -128.719 117.979 -126.267 121.779 -123.694L-120.078 233.577ZM-104.483 243.2C-101.67 244.776 -98.8233 246.287 -95.9466 247.734L97.8983 -137.704C100.74 -136.275 103.551 -134.782 106.33 -133.225L-104.483 243.2ZM-111.19 239.279C-110.816 239.507 -110.434 239.738 -110.043 239.973L112.009 -129.934C112.395 -129.702 112.773 -129.474 113.142 -129.249L-111.19 239.279ZM-97.6811 246.852C-92.2821 249.629 -86.7685 252.179 -81.1547 254.494L83.3236 -144.361C88.8684 -142.074 94.3143 -139.556 99.647 -136.814L-97.6811 246.852ZM-79.1003 255.328C-74.9961 256.972 -70.8459 258.488 -66.6556 259.876L68.9774 -149.687C73.1161 -148.317 77.2154 -146.819 81.2692 -145.196L-79.1003 255.328ZM-74.0681 257.27C-70.341 258.657 -66.5738 259.942 -62.7705 261.124L65.2311 -150.888C68.9877 -149.721 72.7086 -148.451 76.3899 -147.082L-74.0681 257.27ZM-48.3178 265.069C-46.9426 265.394 -45.5643 265.705 -44.183 266.002L46.6944 -155.755C48.0587 -155.461 49.4201 -155.154 50.7784 -154.833L-48.3178 265.069ZM-61.4814 261.518C-59.0455 262.258 -56.5953 262.956 -54.132 263.611L56.7337 -153.338C59.1668 -152.691 61.5868 -152.002 63.9928 -151.271L-61.4814 261.518ZM-49.2718 264.843C-47.2113 265.34 -45.1437 265.807 -43.0695 266.243L45.7475 -155.953C47.7961 -155.522 49.8384 -155.061 51.8735 -154.57L-49.2718 264.843ZM-46.1567 265.57L5.83011 277.304L100.821 -143.546L48.8346 -155.28L-46.1567 265.57ZM5.91277 277.323C47.7791 286.755 91.5014 283.565 131.554 268.156L-23.3587 -134.51C16.2018 -149.73 59.3869 -152.881 100.739 -143.564L5.91277 277.323ZM131.554 268.156C171.606 252.747 206.193 225.811 230.943 190.75L-121.526 -58.0551C-97.0805 -92.6857 -62.9184 -119.291 -23.3587 -134.51L131.554 268.156ZM230.943 190.75C255.691 155.689 269.491 114.08 270.599 71.1791L-160.695 60.0464C-159.601 17.6731 -145.971 -23.4255 -121.526 -58.0551L230.943 190.75ZM270.599 71.1791C271.706 28.2789 260.071 -13.9875 237.164 -50.2782L-127.671 180.011C-150.297 144.167 -161.789 102.42 -160.695 60.0464L270.599 71.1791ZM237.124 -50.3418L217.695 -81.0985L-147.06 149.318L-127.631 180.075L237.124 -50.3418ZM150.526 216.487L181.282 197.058L-49.1343 -167.697L-79.891 -148.267L150.526 216.487ZM181.346 197.018C217.621 174.086 246.283 140.915 263.71 101.698L-130.55 -73.5076C-113.337 -112.242 -85.0268 -145.006 -49.1978 -167.656L181.346 197.018ZM263.71 101.698C281.138 62.4811 286.549 18.9779 279.26 -23.3139L-145.908 49.9683C-153.108 8.1962 -147.763 -34.7725 -130.55 -73.5076L263.71 101.698ZM279.26 -23.3139C271.97 -65.6061 252.307 -104.787 222.756 -135.907L-90.0994 161.178C-119.287 130.441 -138.708 91.7409 -145.908 49.9683L279.26 -23.3139ZM222.756 -135.907C193.205 -167.026 155.093 -188.688 113.234 -198.153L18.0774 222.659C-23.2669 213.31 -60.9116 191.915 -90.0994 161.178L222.756 -135.907ZM113.151 -198.172L85.8382 -204.337L-9.15313 216.513L18.16 222.678L113.151 -198.172ZM85.8382 -204.337L61.1264 -209.915L-33.865 210.935L-9.15313 216.513L85.8382 -204.337ZM-33.1515 213.83L-12.88 218.406L82.1113 -202.444L61.8399 -207.02L-33.1515 213.83ZM-80.5928 -174.397L-105.44 -158.701L124.977 206.054L149.824 190.358L-80.5928 -174.397ZM220.194 71.1723L224.769 50.9009L-196.081 -44.0905L-200.656 -23.8191L220.194 71.1723ZM-9.20172 219.236L14.433 224.571L109.424 -196.279L85.7896 -201.614L-9.20172 219.236ZM-53.2797 -168.232L-82.4422 -149.81L147.975 214.945L177.137 196.523L-53.2797 -168.232ZM-82.4422 -149.81L-111.605 -131.388L118.812 233.367L147.975 214.945L-82.4422 -149.81ZM214.029 98.4854L219.363 74.8506L-201.487 -20.1407L-206.821 3.49403L214.029 98.4854ZM124.147 209.732L153.502 191.188L-76.9145 -173.566L-106.27 -155.022L124.147 209.732ZM-149.314 150.742L-131.604 178.778L233.151 -51.6391L215.441 -79.6744L-149.314 150.742ZM98.2688 -146.856L52.5235 -157.181L-42.4679 263.669L3.27746 273.994L98.2688 -146.856ZM120.236 235.621L148.272 217.911L-82.1453 -146.843L-110.181 -129.133L120.236 235.621Z" fill="white" mask="url(#path-1-inside-1)"/>
</svg>
