<svg width="65" height="47" viewBox="0 0 65 47" fill="none" xmlns="http://www.w3.org/2000/svg">
<path d="M38.865 23.7223L33.4617 8.46552C33.4003 8.28243 33.2982 8.15031 33.1556 8.06916C33.0333 7.98797 32.8907 7.94753 32.7279 7.94784C32.3615 7.94854 32.1175 8.12204 31.996 8.46833L26.6513 23.7458L23.0788 23.7526L29.0009 7.03896C29.2843 6.20381 29.7513 5.58205 30.4019 5.17367C31.0729 4.76526 31.846 4.56022 32.7214 4.55853C33.5763 4.55689 34.3401 4.75899 35.0126 5.16482C35.6851 5.57066 36.1647 6.1906 36.4513 7.02466L42.4375 23.7155L38.865 23.7223Z" fill="#009B95"/>
<path d="M15.5054 8.41901C16.909 8.41901 18.281 8.83523 19.4479 9.61502C20.6149 10.3948 21.5244 11.5032 22.0614 12.7999C22.5985 14.0966 22.7389 15.5234 22.4649 16.9C22.191 18.2765 21.515 19.5409 20.5224 20.5332C19.5299 21.5255 18.2653 22.2012 16.8887 22.4748C15.5121 22.7484 14.0853 22.6077 12.7887 22.0703C11.4921 21.533 10.384 20.6232 9.60452 19.456C8.82501 18.2889 8.40913 16.9168 8.40947 15.5133C8.41223 13.6308 9.16196 11.8264 10.494 10.4962C11.8261 9.16611 13.6316 8.41901 15.5141 8.41901H15.5054ZM15.5141 0.000885107C12.4456 0.000885126 9.44607 0.910817 6.89476 2.61561C4.34344 4.32039 2.35496 6.74347 1.18078 9.5784C0.00660753 12.4133 -0.300523 15.5328 0.298233 18.5423C0.896988 21.5518 2.37474 24.3161 4.54459 26.4857C6.71445 28.6553 9.47896 30.1328 12.4885 30.7312C15.4981 31.3296 18.6175 31.0221 21.4523 29.8476C24.2871 28.6732 26.71 26.6844 28.4145 24.1329C30.119 21.5814 31.0286 18.5817 31.0282 15.5133C31.0282 13.476 30.6269 11.4587 29.8472 9.57653C29.0676 7.69437 27.9248 5.98422 26.4841 4.54374C25.0435 3.10326 23.3332 1.96067 21.451 1.1812C19.5687 0.401731 17.5514 0.000657531 15.5141 0.000885107Z" fill="#FF7A00"/>
<path d="M49.4875 8.41813C50.891 8.41813 52.263 8.83435 53.43 9.61414C54.597 10.3939 55.5065 11.5023 56.0435 12.799C56.5805 14.0957 56.721 15.5226 56.447 16.8991C56.1731 18.2756 55.4971 19.54 54.5045 20.5323C53.512 21.5246 52.2474 22.2003 50.8708 22.4739C49.4942 22.7475 48.0674 22.6068 46.7708 22.0694C45.4742 21.5321 44.3661 20.6223 43.5866 19.4552C42.8071 18.288 42.3912 16.9159 42.3916 15.5124C42.3943 13.6314 43.1428 11.8283 44.4731 10.4984C45.8033 9.16853 47.6066 8.42042 49.4875 8.41813ZM49.4875 9.68081e-08C46.419 -0.000342624 43.4192 0.909297 40.8677 2.61388C38.3161 4.31846 36.3274 6.74141 35.153 9.57631C33.9785 12.4112 33.6711 15.5307 34.2697 18.5403C34.8683 21.5499 36.3459 24.3144 38.5157 26.4842C40.6855 28.654 43.45 30.1316 46.4596 30.7302C49.4692 31.3288 52.5887 31.0214 55.4236 29.8469C58.2585 28.6725 60.6814 26.6837 62.386 24.1322C64.0906 21.5806 65.0002 18.5809 64.9999 15.5124C64.9999 11.3982 63.3656 7.4526 60.4564 4.54347C57.5473 1.63433 53.6017 9.68081e-08 49.4875 9.68081e-08Z" fill="#FF7A00"/>
<path d="M37.4868 36.6237C38.9416 38.4004 40.7728 39.8319 42.8482 40.8149C44.9235 41.7979 47.1912 42.3078 49.4876 42.3078C51.7839 42.3078 54.0517 41.7979 56.127 40.8149C58.2023 39.8319 60.0335 38.4004 61.4884 36.6237" stroke="#FF7A00" stroke-width="7.57648" stroke-miterlimit="10"/>
</svg>
