<svg width="129" height="135" viewBox="0 0 129 135" fill="none" xmlns="http://www.w3.org/2000/svg">
<path d="M79.9141 24.6225C92.291 29.2189 102.979 36.0409 109.812 40.8607C112.564 42.7384 113.653 45.9958 112.948 49.4426C111.684 54.3935 110.075 59.5013 108.213 64.5153C93.6888 103.625 58.7756 108.631 48.5385 109.109C41.1875 101.814 18.0053 75.2326 32.4362 36.3741C34.2983 31.36 36.4129 26.4398 38.687 21.8642C40.15 18.6989 43.3543 17.0361 46.6647 17.4096C54.9871 18.2182 67.5373 20.0261 79.9141 24.6225ZM82.7072 17.1015C69.5726 12.2237 56.2647 10.1343 47.3439 9.38889C40.9758 8.7356 34.474 12.3118 31.7344 18.141C29.6465 22.2153 27.093 27.5431 24.8585 33.5599C5.77248 84.9535 45.4661 117.382 45.4661 117.382C45.4661 117.382 96.7045 118.723 115.791 67.3294C118.118 61.0619 119.568 55.6096 120.646 51.1601C122.215 44.6112 119.783 38.0025 114.28 34.247C107.288 29.0827 95.8418 21.9793 82.7072 17.1015Z" fill="white"/>
</svg>
