<svg width="155" height="155" viewBox="0 0 155 155" fill="none" xmlns="http://www.w3.org/2000/svg">
<g filter="url(#filter0_d)">
<path d="M53.528 61.4243L42.8612 69.5938C42.4609 69.8982 42.2597 70.3837 42.3315 70.8647L44.2538 83.7386C44.3256 84.2196 44.6596 84.6227 45.1317 84.7993L57.7228 89.5009C58.1922 89.6754 58.7301 89.5951 59.128 89.291L69.7941 81.1167C70.1892 80.8107 70.3908 80.3276 70.319 79.8465L68.3967 66.9727C68.3249 66.4917 67.991 66.0886 67.5189 65.912L54.9332 61.2144C54.6971 61.1261 54.4442 61.1033 54.2025 61.1394C53.9585 61.1759 53.7256 61.2712 53.5256 61.4246L53.528 61.4243ZM115.083 64.0809L113.305 65.4413C113.237 65.4926 113.205 65.5724 113.217 65.653L113.538 67.7998C113.55 67.8804 113.606 67.9471 113.683 67.9768L115.782 68.7608C115.861 68.7901 115.949 68.777 116.016 68.7257L117.794 67.3629C117.859 67.312 117.893 67.2318 117.881 67.1513L117.561 65.0044C117.549 64.9239 117.493 64.8571 117.413 64.8278L115.315 64.0462C115.276 64.0302 115.235 64.0267 115.194 64.0327C115.154 64.0388 115.115 64.0542 115.083 64.0809Z" fill="white"/>
<path d="M95.4431 41.2157L89.3105 38.9023C89.1179 38.8294 88.9003 38.8643 88.7405 38.9947C88.5807 39.1252 88.4997 39.3286 88.5301 39.5324L91.3767 58.6125L85.7253 56.5035C85.4892 56.4152 85.2363 56.3924 84.9946 56.4285C84.7529 56.4645 84.5177 56.5602 84.3177 56.7136L84.3201 56.7133L73.6533 64.8828C73.253 65.1873 73.0518 65.6727 73.1233 66.1514L75.0456 79.0252C75.1174 79.5062 75.4513 79.9094 75.9234 80.0859L88.5145 84.7875C88.9839 84.9621 89.5218 84.8818 89.9197 84.5777L100.586 76.4034C100.981 76.0997 101.183 75.6142 101.111 75.1332L96.1831 42.1323C96.1208 41.7152 95.836 41.3653 95.4431 41.2157ZM93.2398 73.2635L88.3926 76.9789C88.2122 77.1173 87.9682 77.1538 87.7552 77.0741L82.0318 74.9371C81.8141 74.8582 81.6628 74.6724 81.6302 74.4544L80.7563 68.6016C80.7238 68.3836 80.8145 68.1641 80.9969 68.0231L85.8468 64.3096L85.8445 64.31C85.9358 64.2406 86.0409 64.1983 86.1523 64.1817C86.2637 64.165 86.3769 64.1772 86.4842 64.2145L92.205 66.3495C92.4207 66.4311 92.5719 66.6169 92.6045 66.8349L93.4784 72.6877C93.5106 72.9033 93.4202 73.1251 93.2398 73.2635Z" fill="white"/>
<path d="M53.528 61.4243L44.2538 83.7386C44.3256 84.2196 44.6596 84.6227 45.1317 84.7993L57.7228 89.5009C58.1922 89.6754 58.7301 89.5951 59.128 89.291L68.3967 66.9727C68.3249 66.4917 67.9909 66.0886 67.5189 65.912L54.9332 61.2144C54.6971 61.1261 54.4442 61.1033 54.2025 61.1394C53.9584 61.1759 53.7256 61.2712 53.5256 61.4246" fill="white"/>
<path d="M53.528 61.4243L42.8612 69.5938C42.4609 69.8982 42.2597 70.3837 42.3315 70.8647L57.7204 89.5012C58.1898 89.6758 58.7277 89.5955 59.1256 89.2914L69.7917 81.1171C70.1892 80.8107 70.3908 80.3276 70.319 79.8465L54.9332 61.2144C54.6971 61.1261 54.4442 61.1033 54.2025 61.1394C53.9584 61.1759 53.7256 61.2712 53.5256 61.4246" fill="#1B1816"/>
<path d="M126.745 56.9544L114.16 52.2569C113.924 52.1686 113.671 52.1458 113.429 52.1819C113.187 52.2179 112.952 52.3136 112.752 52.467L112.755 52.4667L102.088 60.6362C101.69 60.9403 101.488 61.4356 101.562 61.9332L103.476 74.7549C103.55 75.2501 103.889 75.6671 104.358 75.8417L116.949 80.5433C117.421 80.7198 117.955 80.6402 118.355 80.3334L123.273 76.5637C123.723 76.2179 123.616 75.5145 123.083 75.318L110.464 70.6932C110.251 70.6112 110.097 70.4235 110.064 70.2007L109.191 64.3574C109.159 64.1394 109.247 63.9203 109.421 63.7877L114.28 60.0681L114.277 60.0685C114.369 59.9991 114.474 59.9568 114.585 59.9402C114.696 59.9235 114.81 59.9357 114.917 59.973L120.651 62.1133C120.856 62.1893 121.004 62.373 121.037 62.591L121.749 67.3585C121.779 67.5623 121.917 67.7356 122.109 67.811C122.302 67.884 122.52 67.8514 122.683 67.723L127.872 63.5737C128.192 63.3176 128.354 62.9083 128.293 62.5007L127.628 58.0459C127.553 57.5459 127.215 57.129 126.745 56.9544ZM39.0716 70.0457L26.4859 65.3482C26.2499 65.2599 25.9969 65.2371 25.7553 65.2732C25.5136 65.3093 25.2783 65.405 25.0784 65.5584L25.0808 65.558L14.4139 73.7276C14.016 74.0317 13.8138 74.527 13.8881 75.0246L16.5294 92.7134C16.5598 92.9171 16.6971 93.0904 16.8901 93.1658C17.0827 93.2388 17.3007 93.2062 17.4632 93.0778L22.6525 88.9285C22.9728 88.6724 23.1321 88.2634 23.0713 87.8559L21.5169 77.4464C21.4844 77.2284 21.5728 77.0093 21.7468 76.8767L26.6054 73.1571C26.6968 73.0878 26.8019 73.0454 26.9133 73.0288C27.0247 73.0122 27.1379 73.0243 27.2452 73.0616L32.9789 75.202C33.184 75.2779 33.3326 75.4616 33.3651 75.6796L34.9194 86.0891C34.9803 86.4967 35.2522 86.8412 35.6357 86.9923L41.8108 89.4446C42.0037 89.52 42.2217 89.4874 42.3846 89.3614C42.5443 89.2309 42.625 89.0251 42.5946 88.8213L39.9537 71.1349C39.8794 70.6373 39.541 70.2203 39.0716 70.0457Z" fill="white"/>
</g>
<defs>
<filter id="filter0_d" x="0" y="0.216797" width="154.722" height="154.722" filterUnits="userSpaceOnUse" color-interpolation-filters="sRGB">
<feFlood flood-opacity="0" result="BackgroundImageFix"/>
<feColorMatrix in="SourceAlpha" type="matrix" values="0 0 0 0 0 0 0 0 0 0 0 0 0 0 0 0 0 0 127 0"/>
<feOffset dx="6" dy="7"/>
<feGaussianBlur stdDeviation="6"/>
<feColorMatrix type="matrix" values="0 0 0 0 0.770833 0 0 0 0 0.770833 0 0 0 0 0.770833 0 0 0 0.2 0"/>
<feBlend mode="normal" in2="BackgroundImageFix" result="effect1_dropShadow"/>
<feBlend mode="normal" in="SourceGraphic" in2="effect1_dropShadow" result="shape"/>
</filter>
</defs>
</svg>
