<svg width="119" height="125" viewBox="0 0 119 125" fill="none" xmlns="http://www.w3.org/2000/svg">
<mask id="path-1-inside-1" fill="white">
<path d="M74.7871 1.61481C69.5235 2.81156 65.2897 5.27293 62.453 7.39542C59.1206 7.05822 53.5836 6.4463 47.7144 9.13071C44.2671 10.5735 41.3076 12.809 38.7996 15.7709C33.2714 14.4979 27.7327 14.2053 22.2224 15.203C18.8048 15.7037 5.47526 20.3713 2.20991 28.7245C1.05299 31.9851 0.0707038 36.0138 0.293893 40.587C0.399885 44.6447 1.40181 49.0514 4.7515 57.814C6.9389 63.8432 8.91969 67.751 13.1784 75.7542C13.6175 76.4728 15.8504 80.3233 22.3123 90.8337C23.5475 92.7214 25.9828 96.2495 29.9011 99.164C32.5565 101.281 34.9776 102.368 37.5589 101.781C40.9168 101.018 42.7075 98.1656 44.1863 95.1082C44.2985 94.902 44.4162 94.6733 44.5284 94.4671C44.4057 94.8139 44.3101 95.1864 44.3035 95.6237C44.3775 98.328 47.9443 99.6962 50.7601 100.14C53.0616 100.701 55.4406 100.437 57.2455 100.026C59.5648 99.4989 61.2626 98.5708 62.2337 98.0843C63.0521 97.5793 64.7795 96.3149 66.5163 94.485C68.1099 101.075 69.9445 108.863 70.5125 110.616C72.8194 117.171 75.6815 121.41 79.6276 123.234C82.6801 124.719 87.3883 123.924 87.6505 123.865C92.289 122.81 98.8134 118.064 100.792 112.448C101.814 109.76 101.857 107.571 101.724 104.604C101.886 102.94 100.342 93.7675 100.192 91.8987C99.8951 88.9581 99.5262 86.0763 99.1757 83.2754C100.981 83.3326 103.186 83.3308 105.465 82.8127C109.589 81.875 114.366 77.7913 115.275 77.0319C116.991 75.0155 120.292 70.4595 117.782 67.767C116.34 66.1815 114.787 66.5346 111.034 67.9405C111.034 67.9405 105.018 70.1163 104.434 69.9728C104.028 69.9161 103.371 69.6829 102.617 69.3546C103.485 66.9676 104.206 64.6352 105.177 62.4692C106.919 55.8123 107.675 50.7402 108.143 46.8284C108.992 39.8325 109.103 34.354 109.047 30.5614C109.097 22.3865 108.789 18.6512 106.808 14.7434C103.103 7.96422 94.2003 3.46184 90.6933 2.35649C88.3895 1.78544 82.5313 -0.14593 74.7871 1.61481ZM75.9637 6.78968C82.4172 5.3224 87.3918 6.91254 89.9454 7.41617C93.1429 8.32615 100.773 12.0337 102.404 16.8289C103.314 19.6195 104.214 22.4124 104.115 30.3223C103.909 34.1745 103.929 39.0701 103.071 46.0683C102.603 49.9801 102.062 54.7376 100.203 60.8791C100.152 61.0288 100.093 61.191 100.045 61.3508C100.099 60.1904 100.111 59.263 100.111 59.263C100.037 56.5586 99.5658 54.4866 98.5981 51.4434C97.9821 49.9465 96.8475 46.1226 96.4937 44.5661C96.319 43.798 95.2608 35.5986 94.8749 32.6888C94.08 27.9799 89.9404 22.926 88.9396 22.0693C83.714 16.9965 80.8839 14.1109 75.9844 11.6852C74.756 11.0397 72.6582 9.97542 69.9228 9.04542C71.7128 8.14947 73.7251 7.29864 75.9637 6.78968ZM53.3959 13.0368C56.7822 12.352 59.8473 12.633 62.1518 12.9275C67.9882 13.5033 71.9816 15.5822 73.8287 16.5229C77.8345 18.6097 80.2875 21.0495 85.5131 26.1223C85.9242 26.6241 86.9337 27.6595 87.9 29.2043C82.5059 29.9205 79.4197 32.578 77.7442 34.9573C75.2369 38.2486 76.3714 42.0724 77.2793 44.853C77.7504 46.9249 78.8653 49.4033 84.7366 57.3161C87.1618 60.8465 89.6445 64.6296 91.8454 67.1267C93.0175 68.5503 94.3412 69.8013 95.6987 70.8745C95.1548 71.3277 94.6216 71.8741 94.1677 72.5832C93.0363 74.7432 93.1877 76.6221 93.4387 80.1047C93.5127 82.809 94.2325 88.3535 94.9699 92.8097C95.3813 94.6189 96.6165 103.597 96.6484 104.95C96.4603 107.714 96.4923 109.067 95.8176 110.857C94.6584 114.108 89.5122 117.733 86.0946 118.234C85.0661 118.468 83.5132 118.821 81.9881 118.084C78.6734 116.658 76.5855 112.233 75.5007 108.674C74.6502 106.146 70.6749 87.4487 69.2185 83.4217C68.7219 82.4504 67.8815 79.9203 65.4031 78.5811C64.3704 78.0505 62.4905 78.0847 60.739 78.2171C60.5616 77.3433 60.4144 76.4627 60.3964 75.6376C60.2946 74.0238 60.632 73.1286 60.8622 71.7157C60.9396 70.8902 61.2195 69.7424 61.4497 68.3294C62.1213 60.5553 59.4184 51.0929 56.7742 45.4332C56.4049 44.9751 54.4264 41.0774 50.288 39.5735C45.885 38.1191 42.0449 40.3528 39.9026 41.6584C39.0044 42.139 38.1508 42.7689 37.3133 43.4695C37.2287 42.3514 37.1217 41.2277 37.1123 40.1137C36.9643 34.705 37.0033 30.0722 39.3615 24.9122C41.9695 19.6847 45.4479 15.9069 49.9195 14.0717C51.106 13.6 52.2697 13.261 53.3959 13.0368ZM21.6251 20.7387C22.2278 20.591 22.7444 20.4842 23.1368 20.4375C27.2185 19.7327 31.2965 19.8047 35.4959 20.5506C35.1415 21.184 34.7871 21.8173 34.462 22.4865C31.2522 28.6586 31.4476 34.3223 31.6554 39.9938C31.8354 46.7559 33.1014 53.5367 35.6604 60.0343L36.273 65.061C36.5991 67.708 37.1939 72.7494 41.214 77.2778C42.603 78.769 44.033 79.9746 45.5257 80.9426C43.6945 85.0156 41.6582 88.9332 39.549 92.6229C38.4075 94.7851 37.4109 96.3723 36.3824 96.6062C36.1202 96.6658 34.9745 96.3842 33.0103 94.928C29.4612 92.4717 27.6675 89.3398 26.8591 88.163C21.6447 79.548 18.4862 74.0053 18.0471 73.2867C14.0979 65.4789 12.1295 61.5789 9.73735 55.8619C6.5646 47.8776 5.62243 43.7336 5.63593 40.2015C5.58739 36.3965 6.23005 33.2528 7.05196 30.8975C9.0853 25.1948 17.4556 21.8036 21.6251 20.7387ZM87.056 34.5409C87.8829 34.3529 88.8033 34.25 89.7971 34.2366C90.3161 36.6591 91.0413 44.4664 91.2734 45.4873C91.7445 47.5592 93.1986 51.5761 93.5525 53.1326C94.4627 55.9233 94.8143 57.4697 95.0232 59.6012C95.0232 59.6012 95.0606 61.538 94.9661 62.9413C93.148 60.4953 91.0793 57.5535 88.6418 54.2491C82.7705 46.3363 82.107 44.5844 81.8129 43.2907C81.3993 41.4714 80.8707 39.1468 82.1791 37.7651C83.337 36.1412 84.9431 35.0426 87.056 34.5409ZM47.1562 44.4099C47.6843 44.3536 48.1927 44.3974 48.7039 44.5469C51.0077 45.118 52.1103 47.5885 52.1103 47.5885C54.6947 52.9854 57.1508 61.409 56.3774 67.5693C56.3597 68.6576 56.0224 69.5528 55.9372 70.3906C55.7171 71.8013 55.497 73.2119 55.5011 75.6558C55.5884 76.6458 55.7439 77.6096 55.9296 78.5665C54.0598 78.5984 52.2311 78.3445 50.8372 77.811C48.5357 77.2501 46.5793 75.7816 45.0796 73.9434C42.3822 70.475 41.8217 66.797 41.6151 64.6755L40.7634 58.5977C39.7386 55.7693 38.9031 52.8873 38.2839 49.9774C39.2416 48.686 40.5578 47.2919 42.5723 46.2174C44.0379 45.4803 45.6101 44.5594 47.1562 44.4099ZM85.617 37.4936C84.9483 37.6776 84.2599 37.9616 83.9066 38.1801C82.9379 38.6768 82.6757 38.7364 82.5307 39.3114C82.3958 39.8842 83.3492 40.486 83.7286 40.9418C83.9807 40.8845 84.934 41.4862 85.9051 40.9997C86.6218 40.5604 87.0189 39.928 87.2213 39.6056C87.4237 39.2832 88.1581 37.7556 87.2645 37.4167C86.9426 37.2135 86.2834 37.2996 85.617 37.4936ZM47.3941 48.1612C47.1163 48.2456 46.8602 48.3782 46.6279 48.5693C46.3758 48.6266 45.919 48.9962 45.774 49.5712C45.629 50.1463 46.0084 50.6022 46.3303 50.8054C47.0215 51.4667 47.9749 52.0684 49.2656 51.7749C49.5278 51.7153 50.5563 51.4815 51.1457 50.529C51.1457 50.529 51.7553 49.5719 51.5806 48.8038C51.1989 48.3378 50.6272 48.2021 49.791 48.1158C49.1625 48.0567 48.2172 47.9103 47.3941 48.1612ZM50.343 83.1C52.1191 83.5891 54.1812 83.8431 56.3765 83.8435C56.0747 85.0814 55.4872 86.1823 54.8285 86.9698C53.3076 88.6762 51.1653 89.9818 48.9632 91.0246C48.4389 91.1438 48.2466 91.4639 47.7323 91.5808C46.5624 92.2188 45.442 92.8881 44.8104 93.9352C46.7003 90.5399 48.5336 86.8491 50.343 83.1ZM100.587 73.8556C101.909 74.4478 103.161 74.8223 104.205 74.9357C105.875 75.0981 107.165 74.8047 111.697 73.2323C111.095 74.177 109.07 75.998 105.831 77.287C103.722 77.9899 100.922 78.0843 98.6018 77.9528C98.4703 76.4415 98.5115 75.5498 98.805 75.0685C98.9163 74.905 99.7137 74.4474 100.587 73.8556ZM61.8913 83.4719C62.4465 83.4414 62.8861 83.4158 62.9851 83.4784C63.6189 83.887 64.1752 85.1211 64.2924 85.6366C64.4237 86.0744 64.699 87.1917 64.8961 87.9654C63.3361 90.9456 60.2326 93.1075 59.5617 93.5151C58.6504 94.2645 55.6719 95.4838 52.3418 95.1567C54.7463 93.7915 57.153 92.4364 58.8562 90.4122C60.367 88.7081 61.4511 86.2932 61.8913 83.4719Z"/>
</mask>
<path d="M74.7871 1.61481C69.5235 2.81156 65.2897 5.27293 62.453 7.39542C59.1206 7.05822 53.5836 6.4463 47.7144 9.13071C44.2671 10.5735 41.3076 12.809 38.7996 15.7709C33.2714 14.4979 27.7327 14.2053 22.2224 15.203C18.8048 15.7037 5.47526 20.3713 2.20991 28.7245C1.05299 31.9851 0.0707038 36.0138 0.293893 40.587C0.399885 44.6447 1.40181 49.0514 4.7515 57.814C6.9389 63.8432 8.91969 67.751 13.1784 75.7542C13.6175 76.4728 15.8504 80.3233 22.3123 90.8337C23.5475 92.7214 25.9828 96.2495 29.9011 99.164C32.5565 101.281 34.9776 102.368 37.5589 101.781C40.9168 101.018 42.7075 98.1656 44.1863 95.1082C44.2985 94.902 44.4162 94.6733 44.5284 94.4671C44.4057 94.8139 44.3101 95.1864 44.3035 95.6237C44.3775 98.328 47.9443 99.6962 50.7601 100.14C53.0616 100.701 55.4406 100.437 57.2455 100.026C59.5648 99.4989 61.2626 98.5708 62.2337 98.0843C63.0521 97.5793 64.7795 96.3149 66.5163 94.485C68.1099 101.075 69.9445 108.863 70.5125 110.616C72.8194 117.171 75.6815 121.41 79.6276 123.234C82.6801 124.719 87.3883 123.924 87.6505 123.865C92.289 122.81 98.8134 118.064 100.792 112.448C101.814 109.76 101.857 107.571 101.724 104.604C101.886 102.94 100.342 93.7675 100.192 91.8987C99.8951 88.9581 99.5262 86.0763 99.1757 83.2754C100.981 83.3326 103.186 83.3308 105.465 82.8127C109.589 81.875 114.366 77.7913 115.275 77.0319C116.991 75.0155 120.292 70.4595 117.782 67.767C116.34 66.1815 114.787 66.5346 111.034 67.9405C111.034 67.9405 105.018 70.1163 104.434 69.9728C104.028 69.9161 103.371 69.6829 102.617 69.3546C103.485 66.9676 104.206 64.6352 105.177 62.4692C106.919 55.8123 107.675 50.7402 108.143 46.8284C108.992 39.8325 109.103 34.354 109.047 30.5614C109.097 22.3865 108.789 18.6512 106.808 14.7434C103.103 7.96422 94.2003 3.46184 90.6933 2.35649C88.3895 1.78544 82.5313 -0.14593 74.7871 1.61481ZM75.9637 6.78968C82.4172 5.3224 87.3918 6.91254 89.9454 7.41617C93.1429 8.32615 100.773 12.0337 102.404 16.8289C103.314 19.6195 104.214 22.4124 104.115 30.3223C103.909 34.1745 103.929 39.0701 103.071 46.0683C102.603 49.9801 102.062 54.7376 100.203 60.8791C100.152 61.0288 100.093 61.191 100.045 61.3508C100.099 60.1904 100.111 59.263 100.111 59.263C100.037 56.5586 99.5658 54.4866 98.5981 51.4434C97.9821 49.9465 96.8475 46.1226 96.4937 44.5661C96.319 43.798 95.2608 35.5986 94.8749 32.6888C94.08 27.9799 89.9404 22.926 88.9396 22.0693C83.714 16.9965 80.8839 14.1109 75.9844 11.6852C74.756 11.0397 72.6582 9.97542 69.9228 9.04542C71.7128 8.14947 73.7251 7.29864 75.9637 6.78968ZM53.3959 13.0368C56.7822 12.352 59.8473 12.633 62.1518 12.9275C67.9882 13.5033 71.9816 15.5822 73.8287 16.5229C77.8345 18.6097 80.2875 21.0495 85.5131 26.1223C85.9242 26.6241 86.9337 27.6595 87.9 29.2043C82.5059 29.9205 79.4197 32.578 77.7442 34.9573C75.2369 38.2486 76.3714 42.0724 77.2793 44.853C77.7504 46.9249 78.8653 49.4033 84.7366 57.3161C87.1618 60.8465 89.6445 64.6296 91.8454 67.1267C93.0175 68.5503 94.3412 69.8013 95.6987 70.8745C95.1548 71.3277 94.6216 71.8741 94.1677 72.5832C93.0363 74.7432 93.1877 76.6221 93.4387 80.1047C93.5127 82.809 94.2325 88.3535 94.9699 92.8097C95.3813 94.6189 96.6165 103.597 96.6484 104.95C96.4603 107.714 96.4923 109.067 95.8176 110.857C94.6584 114.108 89.5122 117.733 86.0946 118.234C85.0661 118.468 83.5132 118.821 81.9881 118.084C78.6734 116.658 76.5855 112.233 75.5007 108.674C74.6502 106.146 70.6749 87.4487 69.2185 83.4217C68.7219 82.4504 67.8815 79.9203 65.4031 78.5811C64.3704 78.0505 62.4905 78.0847 60.739 78.2171C60.5616 77.3433 60.4144 76.4627 60.3964 75.6376C60.2946 74.0238 60.632 73.1286 60.8622 71.7157C60.9396 70.8902 61.2195 69.7424 61.4497 68.3294C62.1213 60.5553 59.4184 51.0929 56.7742 45.4332C56.4049 44.9751 54.4264 41.0774 50.288 39.5735C45.885 38.1191 42.0449 40.3528 39.9026 41.6584C39.0044 42.139 38.1508 42.7689 37.3133 43.4695C37.2287 42.3514 37.1217 41.2277 37.1123 40.1137C36.9643 34.705 37.0033 30.0722 39.3615 24.9122C41.9695 19.6847 45.4479 15.9069 49.9195 14.0717C51.106 13.6 52.2697 13.261 53.3959 13.0368ZM21.6251 20.7387C22.2278 20.591 22.7444 20.4842 23.1368 20.4375C27.2185 19.7327 31.2965 19.8047 35.4959 20.5506C35.1415 21.184 34.7871 21.8173 34.462 22.4865C31.2522 28.6586 31.4476 34.3223 31.6554 39.9938C31.8354 46.7559 33.1014 53.5367 35.6604 60.0343L36.273 65.061C36.5991 67.708 37.1939 72.7494 41.214 77.2778C42.603 78.769 44.033 79.9746 45.5257 80.9426C43.6945 85.0156 41.6582 88.9332 39.549 92.6229C38.4075 94.7851 37.4109 96.3723 36.3824 96.6062C36.1202 96.6658 34.9745 96.3842 33.0103 94.928C29.4612 92.4717 27.6675 89.3398 26.8591 88.163C21.6447 79.548 18.4862 74.0053 18.0471 73.2867C14.0979 65.4789 12.1295 61.5789 9.73735 55.8619C6.5646 47.8776 5.62243 43.7336 5.63593 40.2015C5.58739 36.3965 6.23005 33.2528 7.05196 30.8975C9.0853 25.1948 17.4556 21.8036 21.6251 20.7387ZM87.056 34.5409C87.8829 34.3529 88.8033 34.25 89.7971 34.2366C90.3161 36.6591 91.0413 44.4664 91.2734 45.4873C91.7445 47.5592 93.1986 51.5761 93.5525 53.1326C94.4627 55.9233 94.8143 57.4697 95.0232 59.6012C95.0232 59.6012 95.0606 61.538 94.9661 62.9413C93.148 60.4953 91.0793 57.5535 88.6418 54.2491C82.7705 46.3363 82.107 44.5844 81.8129 43.2907C81.3993 41.4714 80.8707 39.1468 82.1791 37.7651C83.337 36.1412 84.9431 35.0426 87.056 34.5409ZM47.1562 44.4099C47.6843 44.3536 48.1927 44.3974 48.7039 44.5469C51.0077 45.118 52.1103 47.5885 52.1103 47.5885C54.6947 52.9854 57.1508 61.409 56.3774 67.5693C56.3597 68.6576 56.0224 69.5528 55.9372 70.3906C55.7171 71.8013 55.497 73.2119 55.5011 75.6558C55.5884 76.6458 55.7439 77.6096 55.9296 78.5665C54.0598 78.5984 52.2311 78.3445 50.8372 77.811C48.5357 77.2501 46.5793 75.7816 45.0796 73.9434C42.3822 70.475 41.8217 66.797 41.6151 64.6755L40.7634 58.5977C39.7386 55.7693 38.9031 52.8873 38.2839 49.9774C39.2416 48.686 40.5578 47.2919 42.5723 46.2174C44.0379 45.4803 45.6101 44.5594 47.1562 44.4099ZM85.617 37.4936C84.9483 37.6776 84.2599 37.9616 83.9066 38.1801C82.9379 38.6768 82.6757 38.7364 82.5307 39.3114C82.3958 39.8842 83.3492 40.486 83.7286 40.9418C83.9807 40.8845 84.934 41.4862 85.9051 40.9997C86.6218 40.5604 87.0189 39.928 87.2213 39.6056C87.4237 39.2832 88.1581 37.7556 87.2645 37.4167C86.9426 37.2135 86.2834 37.2996 85.617 37.4936ZM47.3941 48.1612C47.1163 48.2456 46.8602 48.3782 46.6279 48.5693C46.3758 48.6266 45.919 48.9962 45.774 49.5712C45.629 50.1463 46.0084 50.6022 46.3303 50.8054C47.0215 51.4667 47.9749 52.0684 49.2656 51.7749C49.5278 51.7153 50.5563 51.4815 51.1457 50.529C51.1457 50.529 51.7553 49.5719 51.5806 48.8038C51.1989 48.3378 50.6272 48.2021 49.791 48.1158C49.1625 48.0567 48.2172 47.9103 47.3941 48.1612ZM50.343 83.1C52.1191 83.5891 54.1812 83.8431 56.3765 83.8435C56.0747 85.0814 55.4872 86.1823 54.8285 86.9698C53.3076 88.6762 51.1653 89.9818 48.9632 91.0246C48.4389 91.1438 48.2466 91.4639 47.7323 91.5808C46.5624 92.2188 45.442 92.8881 44.8104 93.9352C46.7003 90.5399 48.5336 86.8491 50.343 83.1ZM100.587 73.8556C101.909 74.4478 103.161 74.8223 104.205 74.9357C105.875 75.0981 107.165 74.8047 111.697 73.2323C111.095 74.177 109.07 75.998 105.831 77.287C103.722 77.9899 100.922 78.0843 98.6018 77.9528C98.4703 76.4415 98.5115 75.5498 98.805 75.0685C98.9163 74.905 99.7137 74.4474 100.587 73.8556ZM61.8913 83.4719C62.4465 83.4414 62.8861 83.4158 62.9851 83.4784C63.6189 83.887 64.1752 85.1211 64.2924 85.6366C64.4237 86.0744 64.699 87.1917 64.8961 87.9654C63.3361 90.9456 60.2326 93.1075 59.5617 93.5151C58.6504 94.2645 55.6719 95.4838 52.3418 95.1567C54.7463 93.7915 57.153 92.4364 58.8562 90.4122C60.367 88.7081 61.4511 86.2932 61.8913 83.4719Z" fill="white" stroke="white" stroke-width="459.275" mask="url(#path-1-inside-1)"/>
</svg>
