<svg width="222" height="80" viewBox="0 0 222 80" fill="none" xmlns="http://www.w3.org/2000/svg">
<g filter="url(#filter0_d)">
<path d="M10.4033 15.4335C10.4033 11.3281 13.7314 8 17.8368 8H203.673C207.779 8 211.107 11.3281 211.107 15.4335V60.0342C211.107 64.1396 207.779 67.4677 203.673 67.4677H17.8368C13.7314 67.4677 10.4033 64.1396 10.4033 60.0342V15.4335Z" fill="white"/>
<path d="M111.7 40.3373C108.204 40.3373 105.354 42.997 105.354 46.6602C105.354 50.3011 108.204 52.9831 111.7 52.9831C115.199 52.9831 118.049 50.3011 118.049 46.6602C118.047 42.997 115.197 40.3373 111.7 40.3373ZM111.7 50.4944C109.784 50.4944 108.132 48.914 108.132 46.6617C108.132 44.3855 109.785 42.829 111.7 42.829C113.617 42.829 115.268 44.3855 115.268 46.6617C115.268 48.9125 113.617 50.4944 111.7 50.4944ZM97.8533 40.3373C94.3566 40.3373 91.5066 42.997 91.5066 46.6602C91.5066 50.3011 94.3566 52.9831 97.8533 52.9831C101.351 52.9831 104.201 50.3011 104.201 46.6602C104.201 42.997 101.351 40.3373 97.8533 40.3373ZM97.8533 50.4944C95.937 50.4944 94.2852 48.914 94.2852 46.6617C94.2852 44.3855 95.9384 42.829 97.8533 42.829C99.7697 42.829 101.421 44.3855 101.421 46.6617C101.423 48.9125 99.7697 50.4944 97.8533 50.4944ZM81.3837 42.2789V44.9609H87.8033C87.6115 46.4699 87.109 47.5715 86.3418 48.3372C85.4082 49.2708 83.9468 50.3011 81.3837 50.3011C77.4321 50.3011 74.3428 47.1151 74.3428 43.1635C74.3428 39.2118 77.4321 36.0259 81.3837 36.0259C83.5156 36.0259 85.0722 36.8644 86.2214 37.9422L88.114 36.0497C86.5084 34.5169 84.3779 33.3439 81.3837 33.3439C75.9707 33.3439 71.4199 37.7504 71.4199 43.1635C71.4199 48.5765 75.9707 52.9831 81.3837 52.9831C84.3051 52.9831 86.5098 52.0242 88.2329 50.2282C90.0051 48.4561 90.5566 45.9644 90.5566 43.9529C90.5566 43.3315 90.5091 42.7561 90.4124 42.2774H81.3837V42.2789ZM148.743 44.3617C148.216 42.9494 146.611 40.3373 143.33 40.3373C140.072 40.3373 137.365 42.9003 137.365 46.6602C137.365 50.2044 140.049 52.9831 143.64 52.9831C146.538 52.9831 148.215 51.2109 148.911 50.1807L146.755 48.743C146.037 49.7971 145.054 50.4914 143.64 50.4914C142.228 50.4914 141.222 49.8447 140.575 48.575L149.03 45.0783L148.743 44.3617ZM140.12 46.4699C140.049 44.0258 142.013 42.7814 143.426 42.7814C144.528 42.7814 145.462 43.333 145.774 44.1224L140.12 46.4699ZM133.247 52.601H136.024V34.0159H133.247V52.601ZM128.695 41.7511H128.6C127.977 41.0078 126.778 40.3373 125.271 40.3373C122.109 40.3373 119.211 43.1159 119.211 46.6854C119.211 50.2297 122.109 52.9846 125.271 52.9846C126.78 52.9846 127.977 52.3141 128.6 51.5484H128.695V52.4583C128.695 54.8771 127.401 56.1705 125.318 56.1705C123.618 56.1705 122.564 54.95 122.132 53.9197L119.714 54.9262C120.408 56.6017 122.251 58.6622 125.318 58.6622C128.576 58.6622 131.331 56.7459 131.331 52.0747V40.7223H128.696V41.7511H128.695ZM125.51 50.4944C123.594 50.4944 121.99 48.8887 121.99 46.6854C121.99 44.4569 123.594 42.829 125.51 42.829C127.401 42.829 128.887 44.4569 128.887 46.6854C128.887 48.8887 127.401 50.4944 125.51 50.4944ZM161.757 34.0159H155.11V52.601H157.883V45.56H161.756C164.83 45.56 167.854 43.3344 167.854 39.7887C167.854 36.2429 164.832 34.0159 161.757 34.0159ZM161.829 42.9732H157.883V36.6027H161.829C163.903 36.6027 165.08 38.3198 165.08 39.7887C165.08 41.2278 163.903 42.9732 161.829 42.9732ZM178.973 40.3046C176.965 40.3046 174.885 41.1891 174.024 43.1501L176.486 44.1774C177.012 43.1501 177.993 42.8141 179.021 42.8141C180.455 42.8141 181.914 43.6749 181.938 45.2047V45.3965C181.435 45.1096 180.359 44.6799 179.045 44.6799C176.391 44.6799 173.688 46.1383 173.688 48.8635C173.688 51.3507 175.864 52.9519 178.303 52.9519C180.167 52.9519 181.196 52.1148 181.841 51.1336H181.936V52.5683H184.615V45.4426C184.617 42.1451 182.152 40.3046 178.973 40.3046ZM178.637 50.4899C177.73 50.4899 176.462 50.035 176.462 48.911C176.462 47.4764 178.041 46.9263 179.404 46.9263C180.622 46.9263 181.197 47.1894 181.938 47.5477C181.722 49.2708 180.24 50.4899 178.637 50.4899ZM194.371 40.7104L191.191 48.7683H191.096L187.795 40.7104H184.807L189.756 51.9721L186.934 58.237H189.828L197.456 40.7104H194.371ZM169.385 52.601H172.158V34.0159H169.385V52.601Z" fill="black"/>
<path d="M80.9001 23.2282C80.9001 24.474 80.5314 25.4656 79.7925 26.206C78.954 27.0861 77.8598 27.5262 76.5159 27.5262C75.2284 27.5262 74.1327 27.0802 73.2332 26.1882C72.3323 25.2947 71.8818 24.1886 71.8818 22.8684C71.8818 21.5467 72.3323 20.4406 73.2332 19.5486C74.1327 18.6551 75.2284 18.2091 76.5159 18.2091C77.1551 18.2091 77.7662 18.334 78.346 18.5822C78.9273 18.832 79.3926 19.1635 79.7405 19.5783L78.957 20.3633C78.3668 19.6571 77.5536 19.3048 76.5144 19.3048C75.5748 19.3048 74.763 19.6348 74.0777 20.2949C73.3923 20.955 73.0504 21.8128 73.0504 22.8669C73.0504 23.921 73.3923 24.7788 74.0777 25.4389C74.763 26.099 75.5748 26.429 76.5144 26.429C77.5104 26.429 78.3415 26.0975 79.0061 25.4329C79.4372 25.0003 79.687 24.3982 79.7539 23.6266H76.5144V22.5547H80.8362C80.8808 22.7881 80.9001 23.0126 80.9001 23.2282Z" fill="black"/>
<path d="M87.7539 19.5026H83.6923V22.3303H87.3555V23.4022H83.6923V26.2299H87.7539V27.327H82.546V18.4069H87.7539V19.5026Z" fill="black"/>
<path d="M92.587 27.327H91.4407V19.5026H88.949V18.4069H95.0787V19.5026H92.587V27.327Z" fill="black"/>
<path d="M99.5134 27.327V18.4069H100.66V27.327H99.5134Z" fill="black"/>
<path d="M105.743 27.327H104.597V19.5026H102.105V18.4069H108.235V19.5026H105.743V27.327Z" fill="black"/>
<path d="M119.838 26.1748C118.961 27.0758 117.871 27.5263 116.567 27.5263C115.263 27.5263 114.174 27.0758 113.298 26.1748C112.421 25.2739 111.984 24.1708 111.984 22.867C111.984 21.5631 112.421 20.46 113.298 19.5591C114.174 18.6581 115.263 18.2062 116.567 18.2062C117.864 18.2062 118.952 18.6596 119.832 19.565C120.712 20.4704 121.152 21.5706 121.152 22.867C121.152 24.1708 120.714 25.2739 119.838 26.1748ZM114.144 25.427C114.804 26.0961 115.611 26.4291 116.567 26.4291C117.523 26.4291 118.332 26.0946 118.99 25.427C119.651 24.758 119.982 23.9047 119.982 22.867C119.982 21.8292 119.651 20.9759 118.99 20.3069C118.332 19.6379 117.523 19.3048 116.567 19.3048C115.611 19.3048 114.804 19.6393 114.144 20.3069C113.485 20.9759 113.154 21.8292 113.154 22.867C113.154 23.9047 113.485 24.758 114.144 25.427Z" fill="black"/>
<path d="M122.761 27.327V18.4069H124.155L128.49 25.3453H128.54L128.49 23.6267V18.4069H129.637V27.327H128.44L123.904 20.0512H123.855L123.904 21.7698V27.327H122.761Z" fill="black"/>
<path d="M80.9001 23.2282C80.9001 24.474 80.5314 25.4656 79.7925 26.206C78.954 27.0861 77.8598 27.5262 76.5159 27.5262C75.2284 27.5262 74.1327 27.0802 73.2332 26.1882C72.3323 25.2947 71.8818 24.1886 71.8818 22.8684C71.8818 21.5467 72.3323 20.4406 73.2332 19.5486C74.1327 18.6551 75.2284 18.2091 76.5159 18.2091C77.1551 18.2091 77.7662 18.334 78.346 18.5822C78.9273 18.832 79.3926 19.1635 79.7405 19.5783L78.957 20.3633C78.3668 19.6571 77.5536 19.3048 76.5144 19.3048C75.5748 19.3048 74.763 19.6348 74.0777 20.2949C73.3923 20.955 73.0504 21.8128 73.0504 22.8669C73.0504 23.921 73.3923 24.7788 74.0777 25.4389C74.763 26.099 75.5748 26.429 76.5144 26.429C77.5104 26.429 78.3415 26.0975 79.0061 25.4329C79.4372 25.0003 79.687 24.3982 79.7539 23.6266H76.5144V22.5547H80.8362C80.8808 22.7881 80.9001 23.0126 80.9001 23.2282Z" stroke="black" stroke-width="0.297338" stroke-miterlimit="10"/>
<path d="M87.7539 19.5026H83.6923V22.3303H87.3555V23.4022H83.6923V26.2299H87.7539V27.327H82.546V18.4069H87.7539V19.5026Z" stroke="black" stroke-width="0.297338" stroke-miterlimit="10"/>
<path d="M92.587 27.327H91.4407V19.5026H88.949V18.4069H95.0787V19.5026H92.587V27.327Z" stroke="black" stroke-width="0.297338" stroke-miterlimit="10"/>
<path d="M99.5134 27.327V18.4069H100.66V27.327H99.5134Z" stroke="black" stroke-width="0.297338" stroke-miterlimit="10"/>
<path d="M105.743 27.327H104.597V19.5026H102.105V18.4069H108.235V19.5026H105.743V27.327Z" stroke="black" stroke-width="0.297338" stroke-miterlimit="10"/>
<path d="M119.838 26.1748C118.961 27.0758 117.871 27.5263 116.567 27.5263C115.263 27.5263 114.174 27.0758 113.298 26.1748C112.421 25.2739 111.984 24.1708 111.984 22.867C111.984 21.5631 112.421 20.46 113.298 19.5591C114.174 18.6581 115.263 18.2062 116.567 18.2062C117.864 18.2062 118.952 18.6596 119.832 19.565C120.712 20.4704 121.152 21.5706 121.152 22.867C121.152 24.1708 120.714 25.2739 119.838 26.1748ZM114.144 25.427C114.804 26.0961 115.611 26.4291 116.567 26.4291C117.523 26.4291 118.332 26.0946 118.99 25.427C119.651 24.758 119.982 23.9047 119.982 22.867C119.982 21.8292 119.651 20.9759 118.99 20.3069C118.332 19.6379 117.523 19.3048 116.567 19.3048C115.611 19.3048 114.804 19.6393 114.144 20.3069C113.485 20.9759 113.154 21.8292 113.154 22.867C113.154 23.9047 113.485 24.758 114.144 25.427Z" stroke="black" stroke-width="0.297338" stroke-miterlimit="10"/>
<path d="M122.761 27.327V18.4069H124.155L128.49 25.3453H128.54L128.49 23.6267V18.4069H129.637V27.327H128.44L123.904 20.0512H123.855L123.904 21.7698V27.327H122.761Z" stroke="black" stroke-width="0.297338" stroke-miterlimit="10"/>
<path fill-rule="evenodd" clip-rule="evenodd" d="M25.5021 19.8437C25.3265 20.2414 25.2295 20.7286 25.2295 21.2955V54.1751C25.2295 54.7432 25.3266 55.2305 25.5024 55.628L43.3931 37.7347L25.5021 19.8437ZM26.5356 56.6973C27.1988 56.9811 28.0639 56.8911 29.0072 56.3561L50.0544 44.396L44.4444 38.7859L26.5356 56.6973ZM51.3961 43.6352L57.9991 39.8836C60.0761 38.7017 60.0761 36.7704 57.9991 35.59L51.3931 31.8363L45.4955 37.7346L51.3961 43.6352ZM50.0524 31.0745L29.0072 19.116C28.0638 18.5799 27.1987 18.4905 26.5356 18.7746L44.4443 36.6834L50.0524 31.0745Z" fill="black"/>
<path d="M17.8368 9.48669H203.673V6.51331H17.8368V9.48669ZM209.62 15.4335V60.0342H212.593V15.4335H209.62ZM203.673 65.981H17.8368V68.9544H203.673V65.981ZM11.89 60.0342V15.4335H8.91663V60.0342H11.89ZM17.8368 65.981C14.5525 65.981 11.89 63.3185 11.89 60.0342H8.91663C8.91663 64.9607 12.9103 68.9544 17.8368 68.9544V65.981ZM209.62 60.0342C209.62 63.3185 206.958 65.981 203.673 65.981V68.9544C208.6 68.9544 212.593 64.9607 212.593 60.0342H209.62ZM203.673 9.48669C206.958 9.48669 209.62 12.1491 209.62 15.4335H212.593C212.593 10.507 208.6 6.51331 203.673 6.51331V9.48669ZM17.8368 6.51331C12.9103 6.51331 8.91663 10.507 8.91663 15.4335H11.89C11.89 12.1492 14.5525 9.48669 17.8368 9.48669V6.51331Z" fill="black"/>
</g>
<defs>
<filter id="filter0_d" x="0.40332" y="0" width="220.703" height="79.4677" filterUnits="userSpaceOnUse" color-interpolation-filters="sRGB">
<feFlood flood-opacity="0" result="BackgroundImageFix"/>
<feColorMatrix in="SourceAlpha" type="matrix" values="0 0 0 0 0 0 0 0 0 0 0 0 0 0 0 0 0 0 127 0"/>
<feOffset dy="2"/>
<feGaussianBlur stdDeviation="5"/>
<feColorMatrix type="matrix" values="0 0 0 0 1 0 0 0 0 1 0 0 0 0 1 0 0 0 0.25 0"/>
<feBlend mode="normal" in2="BackgroundImageFix" result="effect1_dropShadow"/>
<feBlend mode="normal" in="SourceGraphic" in2="effect1_dropShadow" result="shape"/>
</filter>
</defs>
</svg>
