<svg width="23" height="23" viewBox="0 0 23 23" fill="none" xmlns="http://www.w3.org/2000/svg">
<path d="M0.266205 8.132L9.95199 12.9515L14.714 22.7927C14.7792 22.9273 14.9191 23.0094 15.0666 22.9991C15.2141 22.9889 15.342 22.8885 15.3885 22.7464L22.696 0.488109L22.6982 0.475076C22.7053 0.451054 22.7096 0.426265 22.7118 0.400965L22.7138 0.38001L22.7148 0.371065L22.7146 0.36851C22.7143 0.341932 22.7111 0.315865 22.7055 0.290566L22.7002 0.272932L22.6882 0.232555L22.6874 0.229999L22.6738 0.203421L22.6627 0.18221C22.6474 0.156144 22.63 0.1311 22.6084 0.109122L22.6079 0.108355H22.6076C22.5857 0.0861218 22.5611 0.0684886 22.5351 0.0528997L22.514 0.0413999L22.4876 0.0275998L22.4845 0.0265777L22.4465 0.0148222L22.4279 0.00919991C22.403 0.00357771 22.3773 0.000255536 22.3514 0.000255536L22.3484 0L22.3406 0.000766608L22.3189 0.00306668C22.2942 0.00511111 22.2701 0.00971109 22.2467 0.0166111L22.2336 0.0191665L0.31126 7.44686C0.171061 7.49439 0.0721415 7.62421 0.0623251 7.77397C0.0525087 7.92372 0.133557 8.06581 0.266205 8.132ZM14.977 21.6534L10.6681 12.7489L20.3818 2.89211L20.4201 2.86604L21.5107 1.7531L14.977 21.6534ZM20.995 1.22104L10.1513 12.2242L1.3883 7.86392L20.995 1.22104Z" fill="white"/>
</svg>
