<svg width="59" height="59" viewBox="0 0 59 59" fill="none" xmlns="http://www.w3.org/2000/svg">
<path d="M6.85426 13.6069C0.642537 17.0808 -1.58616 24.9653 1.88774 31.177L13.3954 51.754C16.8693 57.9657 24.7538 60.1944 30.9655 56.7205L51.5425 45.2128C57.7542 41.7389 59.9829 33.8544 56.509 27.6427L45.0013 7.06575C41.5274 0.854027 33.6429 -1.37467 27.4312 2.09924L6.85426 13.6069ZM7.95023 15.5666L28.5272 4.05894C33.6798 1.17734 40.16 3.00909 43.0416 8.16172L54.5493 28.7387C57.4309 33.8913 55.5991 40.3715 50.4465 43.2531L29.8696 54.7608C24.7169 57.6424 18.2367 55.8106 15.3551 50.658L3.84745 30.081C0.965849 24.9284 2.7976 18.4482 7.95023 15.5666ZM23.374 12.0861C23.1858 12.1905 23.0315 12.3468 22.9296 12.5364C22.8277 12.726 22.7824 12.9409 22.7992 13.1554C22.8159 13.37 22.894 13.5753 23.0241 13.7468C23.1543 13.9182 23.3309 14.0487 23.5331 14.1226C23.5331 14.1226 29.5051 16.363 32.6182 21.729C33.2068 22.7429 33.6072 24.3002 33.9965 25.7568C31.4417 25.4646 20.1233 24.1329 13.1443 22.0554C12.874 21.975 12.5834 21.9992 12.3301 22.1233C12.0769 22.2473 11.8796 22.4621 11.7775 22.725C11.6753 22.9879 11.6759 23.2795 11.779 23.542C11.882 23.8045 12.0801 24.0186 12.3338 24.1417C12.3338 24.1417 15.2133 25.5374 18.5159 27.0154C19.1394 27.2944 19.5655 27.3853 20.196 27.6611C17.5361 27.3801 14.9972 27.1638 10.2275 26.1839C9.95531 26.1288 9.67236 26.1765 9.43329 26.3178C9.19423 26.4591 9.01603 26.684 8.9331 26.9491C8.85017 27.2141 8.8684 27.5005 8.98427 27.7528C9.10014 28.0052 9.30544 28.2057 9.56049 28.3156C9.56049 28.3156 13.8703 30.1553 18.98 32.0142C23.4294 33.6329 28.1574 35.0844 31.7213 35.5384C31.1184 36.5442 30.0716 37.9224 27.644 39.2808C24.9164 40.8074 20.7379 41.9924 14.8203 41.5258C14.5723 41.5063 14.3248 41.5699 14.1167 41.7064C13.9087 41.843 13.7519 42.0448 13.671 42.2801C13.5901 42.5154 13.5896 42.7709 13.6697 43.0065C13.7498 43.2421 13.9059 43.4445 14.1135 43.5817C14.1135 43.5817 25.2851 50.8917 37.5406 44.0392C40.3409 42.4731 41.9244 40.5964 43.0611 39.0274C44.1978 37.4584 44.9116 36.3067 45.8739 35.7686C47.9212 34.6236 50.6222 36.0876 50.6222 36.0876C50.8032 36.1941 51.0104 36.2478 51.2203 36.2424C51.4302 36.2371 51.6344 36.173 51.8097 36.0574C51.985 35.9418 52.1244 35.7794 52.212 35.5886C52.2996 35.3978 52.332 35.1863 52.3055 34.978C51.9378 32.0858 49.8188 30.1108 47.9358 28.8672C46.4017 27.854 45.4305 27.5544 44.9355 27.3746C44.8759 26.5668 44.6725 24.8803 43.3958 22.5955C41.0442 18.3881 35.6472 13.0473 24.0245 11.9509C23.799 11.9293 23.5722 11.9765 23.374 12.0861ZM29.8435 15.3794C36.5098 17.2815 39.8213 20.8023 41.4361 23.6914C42.8155 26.16 42.7794 28.088 42.7794 28.088C42.7768 28.3263 42.8502 28.5594 42.9889 28.7532C43.1276 28.9471 43.3244 29.0919 43.5508 29.1664C43.5508 29.1664 45.09 29.6803 46.6984 30.7425C47.6767 31.3886 48.5068 32.2616 49.1543 33.2381C47.8805 32.9857 46.3221 32.9453 44.7779 33.8089C43.1279 34.7316 42.304 36.2449 41.242 37.7108C40.18 39.1767 38.9032 40.7045 36.4446 42.0795C29.9139 45.7311 24.0798 44.9415 20.1343 43.6917C23.7067 43.3528 26.5988 42.4389 28.7399 41.2405C33.1265 38.786 34.5189 35.132 34.5189 35.132C34.5812 34.9643 34.6025 34.784 34.581 34.6064C34.5595 34.4287 34.4958 34.2587 34.3953 34.1107C34.2948 33.9626 34.1603 33.8407 34.0032 33.7551C33.846 33.6696 33.6706 33.6228 33.4917 33.6187C30.8369 33.5596 25.1999 31.845 20.2724 30.0754C21.4497 30.2069 22.776 30.3762 23.6393 30.431C26.4766 30.611 27.7824 30.4404 27.7824 30.4404C28.0456 30.4033 28.287 30.274 28.4638 30.0756C28.6406 29.8771 28.7412 29.6224 28.7479 29.3568C28.7546 29.0911 28.6668 28.8317 28.5002 28.6247C28.3335 28.4176 28.0989 28.2764 27.8379 28.2261C27.1518 28.0953 25.0602 27.1633 23.4337 26.5188C29.7318 27.564 35.5064 28.2186 35.5064 28.2186C35.6788 28.2368 35.8531 28.2148 36.0156 28.1543C36.1781 28.0939 36.3244 27.9966 36.443 27.8702C36.5616 27.7437 36.6494 27.5915 36.6993 27.4255C36.7493 27.2594 36.7601 27.0841 36.7309 26.9132C36.3562 24.7091 35.5735 22.3468 34.5608 20.6024C33.234 18.3155 31.5159 16.7007 29.8435 15.3794Z" fill="white"/>
</svg>
