<svg width="22" height="22" viewBox="0 0 22 22" fill="none" xmlns="http://www.w3.org/2000/svg">
<path fill-rule="evenodd" clip-rule="evenodd" d="M6.94248 4.35205C6.93182 4.354 6.9213 4.35665 6.91098 4.35998C5.83505 4.69551 5.10873 5.27412 4.71423 6.01478C4.31973 6.75544 4.26213 7.63772 4.43865 8.55693C4.7917 10.3954 6.07711 12.429 7.70622 14.1209C9.33534 15.8128 11.31 17.159 13.1312 17.5424C14.0418 17.7341 14.919 17.6802 15.6744 17.2786C16.4297 16.877 17.0414 16.1313 17.4302 15.0162C17.4479 14.9624 17.4474 14.9041 17.4289 14.8506C17.4103 14.797 17.3748 14.7513 17.3278 14.7205L13.7217 12.4261C13.7141 12.4204 13.7063 12.4151 13.6981 12.4103L13.6823 12.3944C13.6797 12.3944 13.6771 12.3944 13.6745 12.3944C13.6693 12.3916 13.6641 12.3889 13.6587 12.3865C13.6561 12.3864 13.6535 12.3864 13.6509 12.3865C13.6385 12.3773 13.6253 12.3692 13.6115 12.3624C13.6089 12.3624 13.6063 12.3624 13.6036 12.3624C13.5984 12.3623 13.5931 12.3623 13.5879 12.3624C13.5853 12.3624 13.5827 12.3624 13.58 12.3624C13.5646 12.3583 13.5488 12.3556 13.5328 12.3545C13.5168 12.3556 13.501 12.3583 13.4856 12.3624C13.442 12.3702 13.4013 12.3896 13.3675 12.4184C13.3647 12.4236 13.362 12.4289 13.3596 12.4343C13.3446 12.4486 13.3314 12.4647 13.3202 12.4822L12.3911 13.4175C10.7778 12.6465 9.58088 11.2951 8.51729 9.46841L9.37552 8.59703L9.41488 8.55707C9.42036 8.55202 9.42561 8.54673 9.43063 8.54121C9.43325 8.54125 9.43587 8.54125 9.43849 8.54121C9.44129 8.53602 9.44391 8.53072 9.44635 8.52535C9.44903 8.52276 9.45165 8.52012 9.45421 8.51741C9.45702 8.51222 9.45964 8.50693 9.46208 8.50155C9.46212 8.49891 9.46212 8.49626 9.46208 8.49362C9.46475 8.49103 9.46737 8.48839 9.46994 8.48569C9.47274 8.48049 9.47536 8.47522 9.4778 8.46984C9.48047 8.46725 9.4831 8.46461 9.48566 8.46191C9.48582 8.45662 9.48582 8.45133 9.48566 8.44604C9.48582 8.44076 9.48582 8.43547 9.48566 8.43018C9.48834 8.4276 9.49096 8.42495 9.49352 8.42225C9.49368 8.41696 9.49368 8.41167 9.49352 8.40639C9.49356 8.40374 9.49356 8.4011 9.49352 8.39845C9.49368 8.39317 9.49368 8.38789 9.49352 8.38261C9.49356 8.37996 9.49356 8.37732 9.49352 8.37467C9.49368 8.36939 9.49368 8.3641 9.49352 8.35881C9.49356 8.35617 9.49356 8.35352 9.49352 8.35088C9.49368 8.34559 9.49368 8.3403 9.49352 8.33502C9.49356 8.33237 9.49356 8.32973 9.49352 8.32708C9.49108 8.32171 9.48846 8.31643 9.48566 8.31124C9.4857 8.30859 9.4857 8.30595 9.48566 8.3033C9.48322 8.29793 9.4806 8.29263 9.4778 8.28744C9.47784 8.2848 9.47784 8.28215 9.4778 8.27951C9.47278 8.27399 9.46753 8.26869 9.46205 8.26365C9.46209 8.261 9.46209 8.25836 9.46205 8.25571C9.45949 8.25301 9.45687 8.25037 9.45419 8.24778C9.4455 8.23064 9.43494 8.21455 9.42269 8.19982C9.42013 8.19712 9.41751 8.19447 9.41483 8.19188L7.20233 4.47459C7.18047 4.43913 7.15037 4.40966 7.11468 4.38876C7.07899 4.36786 7.0388 4.35614 6.99762 4.35467C6.9793 4.35263 6.96082 4.35263 6.9425 4.35467L6.94248 4.35205ZM6.87949 4.91164L8.91877 8.34115L8.02117 9.24449C7.98137 9.28461 7.95589 9.33704 7.94876 9.39351C7.94163 9.44999 7.95326 9.50726 7.9818 9.55627C9.13272 11.5798 10.4737 13.1243 12.3438 13.9611C12.39 13.9806 12.4409 13.9857 12.49 13.9757C12.5391 13.9658 12.5841 13.9412 12.6194 13.9051L13.5721 12.9378L16.8869 15.0403C16.5323 15.9521 16.0351 16.5178 15.446 16.831C14.8168 17.1655 14.0632 17.2215 13.2335 17.0469C11.5741 16.6975 9.63947 15.401 8.06054 13.7612C6.48161 12.1214 5.25673 10.1381 4.93469 8.46106C4.77367 7.62258 4.83801 6.87286 5.16303 6.26266C5.46704 5.69189 6.00653 5.22067 6.87949 4.91164Z" fill="white"/>
<path fill-rule="evenodd" clip-rule="evenodd" d="M10.8956 0C4.9166 0 0.0615234 4.92685 0.0615234 11C0.0615234 13.2479 0.728703 15.3428 1.90505 17.1355L0.631496 21.4508C0.618208 21.4959 0.617426 21.5438 0.629236 21.5893C0.641045 21.6348 0.664989 21.6762 0.698432 21.7087C0.731876 21.7413 0.773524 21.7639 0.818793 21.774C0.864063 21.7841 0.911202 21.7814 0.955022 21.766L5.11828 20.3072C6.78692 21.379 8.77173 22 10.8956 22C16.8771 22 21.7297 17.0731 21.7297 11C21.7297 4.9269 16.8771 0 10.8956 0ZM10.8956 0.511628C16.6049 0.511628 21.2258 5.20331 21.2258 11C21.2258 16.7967 16.6049 21.4884 10.8956 21.4884C8.82601 21.4884 6.89888 20.8716 5.28819 19.8105C5.25607 19.7894 5.21961 19.776 5.1816 19.7712C5.14359 19.7665 5.10503 19.7707 5.06883 19.7834L1.25524 21.1197L2.4218 17.167C2.43257 17.1305 2.43518 17.092 2.42944 17.0544C2.42371 17.0168 2.40977 16.9809 2.38865 16.9495C1.22353 15.2138 0.565435 13.1861 0.565435 11C0.565435 5.20338 5.18894 0.511628 10.8956 0.511628Z" fill="white"/>
</svg>
